G04 #@! TF.FileFunction,Soldermask,Bot*
%FSLAX46Y46*%
G04 Gerber Fmt 4.6, Leading zero omitted, Abs format (unit mm)*
G04 Created by KiCad (PCBNEW 4.0.2-stable) date 06/04/2016 21:32:28*
%MOMM*%
G01*
G04 APERTURE LIST*
%ADD10C,0.100000*%
%ADD11C,0.150000*%
%ADD12R,2.432000X2.432000*%
%ADD13O,2.432000X2.432000*%
%ADD14C,6.200000*%
%ADD15C,1.924000*%
%ADD16O,2.600000X17.600000*%
%ADD17R,3.900120X3.900120*%
%ADD18R,2.127200X2.432000*%
%ADD19O,2.127200X2.432000*%
%ADD20R,2.127200X2.127200*%
%ADD21O,2.127200X2.127200*%
%ADD22R,3.900000X2.400000*%
%ADD23R,1.100000X1.700000*%
%ADD24R,1.950000X1.000000*%
%ADD25R,1.924000X1.924000*%
%ADD26R,1.400000X1.650000*%
%ADD27R,3.051760X2.429460*%
%ADD28R,1.200100X1.200100*%
%ADD29R,1.700000X1.100000*%
%ADD30R,1.460000X1.050000*%
%ADD31R,2.400000X2.400000*%
%ADD32C,2.400000*%
%ADD33C,1.797000*%
G04 APERTURE END LIST*
D10*
D11*
X81838800Y-79552800D02*
X81838800Y-63906400D01*
X76758800Y-81483200D02*
X76758800Y-96621600D01*
X80822800Y-80467200D02*
X77673200Y-80467200D01*
X77774800Y-62941200D02*
X80772000Y-62941200D01*
X76758800Y-47548800D02*
X76758800Y-61925200D01*
X138277600Y-100025200D02*
X80264000Y-100025200D01*
X141782800Y-96520000D02*
X141782800Y-47548800D01*
X80162400Y-43992800D02*
X138125200Y-43992800D01*
X80010000Y-43992800D02*
X80162400Y-43992800D01*
X80010000Y-43992800D02*
G75*
G03X76758800Y-47548800I152400J-3403600D01*
G01*
X80822800Y-80467200D02*
G75*
G03X81838800Y-79552800I50800J965200D01*
G01*
X76758800Y-61925200D02*
G75*
G03X77774800Y-62941200I1016000J0D01*
G01*
X81838800Y-63906400D02*
G75*
G03X80772000Y-62941200I-1016000J-50800D01*
G01*
X77673200Y-80467200D02*
G75*
G03X76758800Y-81483200I50800J-965200D01*
G01*
X138277600Y-100025200D02*
G75*
G03X141782800Y-96520000I0J3505200D01*
G01*
X141782800Y-47447200D02*
X141782800Y-47548800D01*
X141782800Y-47447200D02*
G75*
G03X138125200Y-43992800I-3556000J-101600D01*
G01*
X76758800Y-96621600D02*
G75*
G03X80264000Y-100025200I3454400J50800D01*
G01*
D12*
X116951760Y-64510920D03*
D13*
X114411760Y-64510920D03*
D10*
G36*
X110667000Y-65922120D02*
X110167000Y-64522120D01*
X112337000Y-64522120D01*
X111837000Y-65922120D01*
X110667000Y-65922120D01*
X110667000Y-65922120D01*
G37*
G36*
X111837000Y-63252120D02*
X112337000Y-64652120D01*
X110167000Y-64652120D01*
X110667000Y-63252120D01*
X111837000Y-63252120D01*
X111837000Y-63252120D01*
G37*
D14*
X138240000Y-96583500D03*
X80201000Y-96583500D03*
D15*
X85154000Y-48831500D03*
X85154000Y-46291500D03*
X87694000Y-48831500D03*
X87694000Y-46291500D03*
X90234000Y-48831500D03*
X90234000Y-46291500D03*
X92774000Y-48831500D03*
X92774000Y-46291500D03*
X95314000Y-48831500D03*
X95314000Y-46291500D03*
X97854000Y-48831500D03*
X97854000Y-46291500D03*
X100394000Y-48831500D03*
X100394000Y-46291500D03*
X102934000Y-48831500D03*
X102934000Y-46291500D03*
X105474000Y-48831500D03*
X105474000Y-46291500D03*
X108014000Y-48831500D03*
X108014000Y-46291500D03*
X110554000Y-48831500D03*
X110554000Y-46291500D03*
X113094000Y-48831500D03*
X113094000Y-46291500D03*
X115634000Y-48831500D03*
X115634000Y-46291500D03*
X118174000Y-48831500D03*
X118174000Y-46291500D03*
X120714000Y-48831500D03*
X120714000Y-46291500D03*
X123254000Y-48831500D03*
X123254000Y-46291500D03*
X125794000Y-48831500D03*
X125794000Y-46291500D03*
X128334000Y-48831500D03*
X128334000Y-46291500D03*
X130874000Y-48831500D03*
X130874000Y-46291500D03*
X133414000Y-48831500D03*
X133414000Y-46291500D03*
D14*
X80201000Y-47561500D03*
X138240000Y-47561500D03*
D16*
X121730000Y-88455500D03*
D15*
X102006000Y-52527200D03*
X102006000Y-55067200D03*
X102006000Y-63195200D03*
X102006000Y-65735200D03*
X120548000Y-52527200D03*
X120548000Y-55067200D03*
X120548000Y-63195200D03*
X120548000Y-65735200D03*
D17*
X90528140Y-57048400D03*
X84528660Y-57048400D03*
X87528400Y-61747400D03*
D18*
X126289000Y-97891600D03*
D19*
X128829000Y-97891600D03*
X131369000Y-97891600D03*
D18*
X107798000Y-94284800D03*
D19*
X110338000Y-94284800D03*
X112878000Y-94284800D03*
X115418000Y-94284800D03*
D18*
X90728800Y-94284800D03*
D19*
X93268800Y-94284800D03*
X95808800Y-94284800D03*
X98348800Y-94284800D03*
D18*
X107798000Y-90728800D03*
D19*
X110338000Y-90728800D03*
X112878000Y-90728800D03*
X115418000Y-90728800D03*
D18*
X90728800Y-90678000D03*
D19*
X93268800Y-90678000D03*
X95808800Y-90678000D03*
X98348800Y-90678000D03*
D20*
X124968000Y-55168800D03*
D21*
X124968000Y-52628800D03*
X127508000Y-55168800D03*
X127508000Y-52628800D03*
X130048000Y-55168800D03*
X130048000Y-52628800D03*
D18*
X85344000Y-97917000D03*
D19*
X87884000Y-97917000D03*
X90424000Y-97917000D03*
X92964000Y-97917000D03*
X95504000Y-97917000D03*
X98044000Y-97917000D03*
X100584000Y-97917000D03*
D22*
X96520000Y-53086000D03*
D15*
X96520000Y-59182000D03*
X96520000Y-56134000D03*
X96520000Y-62230000D03*
D22*
X96520000Y-65278000D03*
D15*
X124714000Y-61468000D03*
X124714000Y-64008000D03*
X124714000Y-66548000D03*
X124714000Y-69088000D03*
X124714000Y-71628000D03*
X124714000Y-74168000D03*
X124714000Y-76708000D03*
X124714000Y-79248000D03*
X124714000Y-81788000D03*
X124714000Y-84328000D03*
X124714000Y-86868000D03*
X124714000Y-89408000D03*
X139954000Y-89408000D03*
X139954000Y-86868000D03*
X139954000Y-84328000D03*
X139954000Y-81788000D03*
X139954000Y-79248000D03*
X139954000Y-76708000D03*
X139954000Y-74168000D03*
X139954000Y-71628000D03*
X139954000Y-69088000D03*
X139954000Y-66548000D03*
X139954000Y-64008000D03*
X139954000Y-61468000D03*
X137414000Y-72898000D03*
X137414000Y-70358000D03*
X105308000Y-69646800D03*
X105308000Y-72186800D03*
X105308000Y-74726800D03*
X105308000Y-77266800D03*
X105308000Y-79806800D03*
X105308000Y-82346800D03*
X105308000Y-84886800D03*
X105308000Y-87426800D03*
X117928000Y-87266800D03*
X117928000Y-84766800D03*
X117928000Y-82266800D03*
X117928000Y-79766800D03*
X117928000Y-77266800D03*
X117928000Y-74766800D03*
X117928000Y-72266800D03*
X117928000Y-69766800D03*
X88036400Y-69596000D03*
X88036400Y-72136000D03*
X88036400Y-74676000D03*
X88036400Y-77216000D03*
X88036400Y-79756000D03*
X88036400Y-82296000D03*
X88036400Y-84836000D03*
X88036400Y-87376000D03*
X100656400Y-87216000D03*
X100656400Y-84716000D03*
X100656400Y-82216000D03*
X100656400Y-79716000D03*
X100656400Y-77216000D03*
X100656400Y-74716000D03*
X100656400Y-72216000D03*
X100656400Y-69716000D03*
X84455000Y-85039200D03*
X79629000Y-85039200D03*
D12*
X134874000Y-55214500D03*
D13*
X137414000Y-55214500D03*
D23*
X137287000Y-62473800D03*
X135387000Y-62473800D03*
X137287000Y-60319900D03*
X135387000Y-60319900D03*
X137287000Y-58171100D03*
X135387000Y-58171100D03*
D24*
X127836000Y-62174100D03*
X127836000Y-60904100D03*
X127836000Y-59634100D03*
X127836000Y-58364100D03*
X133236000Y-58364100D03*
X133236000Y-59634100D03*
X133236000Y-60904100D03*
X133236000Y-62174100D03*
D18*
X104262000Y-97922100D03*
D19*
X106802000Y-97922100D03*
X109342000Y-97922100D03*
X111882000Y-97922100D03*
X114422000Y-97922100D03*
X116962000Y-97922100D03*
X119502000Y-97922100D03*
D25*
X95991700Y-83611700D03*
D15*
X93451700Y-83611700D03*
D25*
X113254000Y-83713300D03*
D15*
X110714000Y-83713300D03*
D26*
X131846000Y-64571900D03*
X129846000Y-64571900D03*
D27*
X113149340Y-53609200D03*
X108978660Y-53609200D03*
D28*
X116654240Y-61384200D03*
X116654240Y-59484200D03*
X118653220Y-60434200D03*
D29*
X109281000Y-60203100D03*
X109281000Y-58303100D03*
D23*
X113650000Y-57576700D03*
X111750000Y-57576700D03*
D30*
X111691000Y-61407100D03*
X111691000Y-60457100D03*
X111691000Y-59507100D03*
X113891000Y-59507100D03*
X113891000Y-61407100D03*
X113891000Y-60457100D03*
D23*
X131572000Y-72867500D03*
X133472000Y-72867500D03*
X131597000Y-70327500D03*
X133497000Y-70327500D03*
D10*
G36*
X134667000Y-51860900D02*
X136067000Y-51360900D01*
X136067000Y-53530900D01*
X134667000Y-53030900D01*
X134667000Y-51860900D01*
X134667000Y-51860900D01*
G37*
G36*
X137337000Y-53030900D02*
X135937000Y-53530900D01*
X135937000Y-51360900D01*
X137337000Y-51860900D01*
X137337000Y-53030900D01*
X137337000Y-53030900D01*
G37*
D31*
X78740000Y-90678000D03*
D32*
X81280000Y-90678000D03*
D33*
X91440000Y-66040000D03*
X88900000Y-66040000D03*
M02*
