M48
;DRILL file {KiCad 4.0.2-stable} date 05/04/2016 23:39:34
;FORMAT={-:-/ absolute / inch / decimal}
FMAT,2
INCH,TZ
T1C0.016
T2C0.030
T3C0.032
T4C0.039
T5C0.040
T6C0.079
T7C0.108
%
G90
G05
M72
T1
X3.33Y-3.25
X3.4347Y-2.005
X3.54Y-2.05
X3.614Y-2.6975
X3.9729Y-2.3866
X4.0447Y-2.6473
X4.0659Y-2.6085
X4.1069Y-2.52
X4.3996Y-2.2668
X4.4511Y-3.4389
X5.0944Y-2.298
X5.1944Y-2.2365
T2
X3.135Y-3.348
X3.325Y-3.348
X3.3525Y-1.8225
X3.3525Y-1.9225
X3.4525Y-1.8225
X3.4525Y-1.9225
X3.466Y-2.74
X3.466Y-2.84
X3.466Y-2.94
X3.466Y-3.04
X3.466Y-3.14
X3.466Y-3.24
X3.466Y-3.34
X3.466Y-3.44
X3.5525Y-1.8225
X3.5525Y-1.9225
X3.6525Y-1.8225
X3.6525Y-1.9225
X3.6792Y-3.2918
X3.7525Y-1.8225
X3.7525Y-1.9225
X3.7792Y-3.2918
X3.8Y-2.21
X3.8Y-2.33
X3.8Y-2.45
X3.8525Y-1.8225
X3.8525Y-1.9225
X3.9525Y-1.8225
X3.9525Y-1.9225
X3.9629Y-2.7447
X3.9629Y-2.8431
X3.9629Y-2.9416
X3.9629Y-3.04
X3.9629Y-3.1384
X3.9629Y-3.2369
X3.9629Y-3.3353
X3.9629Y-3.4337
X4.016Y-2.068
X4.016Y-2.168
X4.016Y-2.488
X4.016Y-2.588
X4.0525Y-1.8225
X4.0525Y-1.9225
X4.146Y-2.742
X4.146Y-2.842
X4.146Y-2.942
X4.146Y-3.042
X4.146Y-3.142
X4.146Y-3.242
X4.146Y-3.342
X4.146Y-3.442
X4.1525Y-1.8225
X4.1525Y-1.9225
X4.2525Y-1.8225
X4.2525Y-1.9225
X4.3525Y-1.8225
X4.3525Y-1.9225
X4.3588Y-3.2958
X4.4525Y-1.8225
X4.4525Y-1.9225
X4.4588Y-3.2958
X4.5525Y-1.8225
X4.5525Y-1.9225
X4.6428Y-2.7467
X4.6428Y-2.8451
X4.6428Y-2.9436
X4.6428Y-3.042
X4.6428Y-3.1404
X4.6428Y-3.2389
X4.6428Y-3.3373
X4.6428Y-3.4357
X4.6525Y-1.8225
X4.6525Y-1.9225
X4.746Y-2.068
X4.746Y-2.168
X4.746Y-2.488
X4.746Y-2.588
X4.7525Y-1.8225
X4.7525Y-1.9225
X4.8525Y-1.8225
X4.8525Y-1.9225
X4.91Y-2.42
X4.91Y-2.52
X4.91Y-2.62
X4.91Y-2.72
X4.91Y-2.82
X4.91Y-2.92
X4.91Y-3.02
X4.91Y-3.12
X4.91Y-3.22
X4.91Y-3.32
X4.91Y-3.42
X4.91Y-3.52
X4.9525Y-1.8225
X4.9525Y-1.9225
X5.0525Y-1.8225
X5.0525Y-1.9225
X5.1525Y-1.8225
X5.1525Y-1.9225
X5.2525Y-1.8225
X5.2525Y-1.9225
X5.41Y-2.77
X5.41Y-2.87
X5.51Y-2.42
X5.51Y-2.52
X5.51Y-2.62
X5.51Y-2.72
X5.51Y-2.82
X5.51Y-2.92
X5.51Y-3.02
X5.51Y-3.12
X5.51Y-3.22
X5.51Y-3.32
X5.51Y-3.42
X5.51Y-3.52
T3
X3.5Y-2.6
X3.6Y-2.6
T4
X3.1Y-3.57
X3.2Y-3.57
T5
X3.36Y-3.855
X3.46Y-3.855
X3.56Y-3.855
X3.572Y-3.57
X3.572Y-3.712
X3.66Y-3.855
X3.672Y-3.57
X3.672Y-3.712
X3.76Y-3.855
X3.772Y-3.57
X3.772Y-3.712
X3.86Y-3.855
X3.872Y-3.57
X3.872Y-3.712
X3.96Y-3.855
X4.1048Y-3.8552
X4.2048Y-3.8552
X4.244Y-3.572
X4.244Y-3.712
X4.3048Y-3.8552
X4.344Y-3.572
X4.344Y-3.712
X4.4048Y-3.8552
X4.444Y-3.572
X4.444Y-3.712
X4.5044Y-2.5398
X4.5048Y-3.8552
X4.544Y-3.572
X4.544Y-3.712
X4.6044Y-2.5398
X4.6048Y-3.8552
X4.7048Y-3.8552
X4.92Y-2.072
X4.92Y-2.172
X4.972Y-3.854
X5.02Y-2.072
X5.02Y-2.172
X5.072Y-3.854
X5.12Y-2.072
X5.12Y-2.172
X5.172Y-3.854
X5.31Y-2.1738
X5.41Y-2.1738
T7
X3.1575Y-1.8725
X3.1575Y-3.8025
X5.4425Y-1.8725
X5.4425Y-3.8025
T2
X3.7717Y-2.09G85X3.8283Y-2.09
G05
X3.7717Y-2.57G85X3.8283Y-2.57
G05
T4
X3.3279Y-2.2066G85X3.3279Y-2.2853
G05
X3.4066Y-2.431G85X3.4853Y-2.431
G05
X3.5641Y-2.2066G85X3.5641Y-2.2853
G05
T6
X4.7925Y-3.1872G85X4.7925Y-3.7778
G05
T0
M30
