G04 #@! TF.FileFunction,Copper,L2,Bot,Signal*
%FSLAX46Y46*%
G04 Gerber Fmt 4.6, Leading zero omitted, Abs format (unit mm)*
G04 Created by KiCad (PCBNEW 4.0.2-stable) date 05/04/2016 23:50:18*
%MOMM*%
G01*
G04 APERTURE LIST*
%ADD10C,0.100000*%
%ADD11C,0.150000*%
%ADD12R,2.032000X2.032000*%
%ADD13O,2.032000X2.032000*%
%ADD14C,1.524000*%
%ADD15O,2.200000X17.200000*%
%ADD16R,3.500120X3.500120*%
%ADD17R,1.727200X2.032000*%
%ADD18O,1.727200X2.032000*%
%ADD19R,1.727200X1.727200*%
%ADD20O,1.727200X1.727200*%
%ADD21R,3.500000X2.000000*%
%ADD22R,0.700000X1.300000*%
%ADD23R,1.550000X0.600000*%
%ADD24R,1.524000X1.524000*%
%ADD25R,1.000000X1.250000*%
%ADD26R,2.651760X2.029460*%
%ADD27R,0.800100X0.800100*%
%ADD28R,1.300000X0.700000*%
%ADD29R,1.060000X0.650000*%
%ADD30R,2.000000X2.000000*%
%ADD31C,2.000000*%
%ADD32C,1.397000*%
%ADD33C,0.600000*%
%ADD34C,0.500000*%
%ADD35C,0.250000*%
%ADD36C,0.750000*%
%ADD37C,0.254000*%
G04 APERTURE END LIST*
D10*
D11*
X81838800Y-79552800D02*
X81838800Y-63906400D01*
X76758800Y-81483200D02*
X76758800Y-96621600D01*
X80822800Y-80467200D02*
X77673200Y-80467200D01*
X77774800Y-62941200D02*
X80772000Y-62941200D01*
X76758800Y-47548800D02*
X76758800Y-61925200D01*
X138277600Y-100025200D02*
X80264000Y-100025200D01*
X141782800Y-96520000D02*
X141782800Y-47548800D01*
X80162400Y-43992800D02*
X138125200Y-43992800D01*
X80010000Y-43992800D02*
X80162400Y-43992800D01*
X80010000Y-43992800D02*
G75*
G03X76758800Y-47548800I152400J-3403600D01*
G01*
X80822800Y-80467200D02*
G75*
G03X81838800Y-79552800I50800J965200D01*
G01*
X76758800Y-61925200D02*
G75*
G03X77774800Y-62941200I1016000J0D01*
G01*
X81838800Y-63906400D02*
G75*
G03X80772000Y-62941200I-1016000J-50800D01*
G01*
X77673200Y-80467200D02*
G75*
G03X76758800Y-81483200I50800J-965200D01*
G01*
X138277600Y-100025200D02*
G75*
G03X141782800Y-96520000I0J3505200D01*
G01*
X141782800Y-47447200D02*
X141782800Y-47548800D01*
X141782800Y-47447200D02*
G75*
G03X138125200Y-43992800I-3556000J-101600D01*
G01*
X76758800Y-96621600D02*
G75*
G03X80264000Y-100025200I3454400J50800D01*
G01*
D12*
X116951760Y-64510920D03*
D13*
X114411760Y-64510920D03*
D10*
G36*
X110867000Y-65722120D02*
X110367000Y-64722120D01*
X112137000Y-64722120D01*
X111637000Y-65722120D01*
X110867000Y-65722120D01*
X110867000Y-65722120D01*
G37*
G36*
X111637000Y-63452120D02*
X112137000Y-64452120D01*
X110367000Y-64452120D01*
X110867000Y-63452120D01*
X111637000Y-63452120D01*
X111637000Y-63452120D01*
G37*
D14*
X85154000Y-48831500D03*
X85154000Y-46291500D03*
X87694000Y-48831500D03*
X87694000Y-46291500D03*
X90234000Y-48831500D03*
X90234000Y-46291500D03*
X92774000Y-48831500D03*
X92774000Y-46291500D03*
X95314000Y-48831500D03*
X95314000Y-46291500D03*
X97854000Y-48831500D03*
X97854000Y-46291500D03*
X100394000Y-48831500D03*
X100394000Y-46291500D03*
X102934000Y-48831500D03*
X102934000Y-46291500D03*
X105474000Y-48831500D03*
X105474000Y-46291500D03*
X108014000Y-48831500D03*
X108014000Y-46291500D03*
X110554000Y-48831500D03*
X110554000Y-46291500D03*
X113094000Y-48831500D03*
X113094000Y-46291500D03*
X115634000Y-48831500D03*
X115634000Y-46291500D03*
X118174000Y-48831500D03*
X118174000Y-46291500D03*
X120714000Y-48831500D03*
X120714000Y-46291500D03*
X123254000Y-48831500D03*
X123254000Y-46291500D03*
X125794000Y-48831500D03*
X125794000Y-46291500D03*
X128334000Y-48831500D03*
X128334000Y-46291500D03*
X130874000Y-48831500D03*
X130874000Y-46291500D03*
X133414000Y-48831500D03*
X133414000Y-46291500D03*
D15*
X121730000Y-88455500D03*
D14*
X102006000Y-52527200D03*
X102006000Y-55067200D03*
X102006000Y-63195200D03*
X102006000Y-65735200D03*
X120548000Y-52527200D03*
X120548000Y-55067200D03*
X120548000Y-63195200D03*
X120548000Y-65735200D03*
D16*
X90528140Y-57048400D03*
X84528660Y-57048400D03*
X87528400Y-61747400D03*
D17*
X126289000Y-97891600D03*
D18*
X128829000Y-97891600D03*
X131369000Y-97891600D03*
D17*
X107798000Y-94284800D03*
D18*
X110338000Y-94284800D03*
X112878000Y-94284800D03*
X115418000Y-94284800D03*
D17*
X90728800Y-94284800D03*
D18*
X93268800Y-94284800D03*
X95808800Y-94284800D03*
X98348800Y-94284800D03*
D17*
X107798000Y-90728800D03*
D18*
X110338000Y-90728800D03*
X112878000Y-90728800D03*
X115418000Y-90728800D03*
D17*
X90728800Y-90678000D03*
D18*
X93268800Y-90678000D03*
X95808800Y-90678000D03*
X98348800Y-90678000D03*
D19*
X124968000Y-55168800D03*
D20*
X124968000Y-52628800D03*
X127508000Y-55168800D03*
X127508000Y-52628800D03*
X130048000Y-55168800D03*
X130048000Y-52628800D03*
D17*
X85344000Y-97917000D03*
D18*
X87884000Y-97917000D03*
X90424000Y-97917000D03*
X92964000Y-97917000D03*
X95504000Y-97917000D03*
X98044000Y-97917000D03*
X100584000Y-97917000D03*
D21*
X96520000Y-53086000D03*
D14*
X96520000Y-59182000D03*
X96520000Y-56134000D03*
X96520000Y-62230000D03*
D21*
X96520000Y-65278000D03*
D14*
X124714000Y-61468000D03*
X124714000Y-64008000D03*
X124714000Y-66548000D03*
X124714000Y-69088000D03*
X124714000Y-71628000D03*
X124714000Y-74168000D03*
X124714000Y-76708000D03*
X124714000Y-79248000D03*
X124714000Y-81788000D03*
X124714000Y-84328000D03*
X124714000Y-86868000D03*
X124714000Y-89408000D03*
X139954000Y-89408000D03*
X139954000Y-86868000D03*
X139954000Y-84328000D03*
X139954000Y-81788000D03*
X139954000Y-79248000D03*
X139954000Y-76708000D03*
X139954000Y-74168000D03*
X139954000Y-71628000D03*
X139954000Y-69088000D03*
X139954000Y-66548000D03*
X139954000Y-64008000D03*
X139954000Y-61468000D03*
X137414000Y-72898000D03*
X137414000Y-70358000D03*
X105308000Y-69646800D03*
X105308000Y-72186800D03*
X105308000Y-74726800D03*
X105308000Y-77266800D03*
X105308000Y-79806800D03*
X105308000Y-82346800D03*
X105308000Y-84886800D03*
X105308000Y-87426800D03*
X117928000Y-87266800D03*
X117928000Y-84766800D03*
X117928000Y-82266800D03*
X117928000Y-79766800D03*
X117928000Y-77266800D03*
X117928000Y-74766800D03*
X117928000Y-72266800D03*
X117928000Y-69766800D03*
X88036400Y-69596000D03*
X88036400Y-72136000D03*
X88036400Y-74676000D03*
X88036400Y-77216000D03*
X88036400Y-79756000D03*
X88036400Y-82296000D03*
X88036400Y-84836000D03*
X88036400Y-87376000D03*
X100656400Y-87216000D03*
X100656400Y-84716000D03*
X100656400Y-82216000D03*
X100656400Y-79716000D03*
X100656400Y-77216000D03*
X100656400Y-74716000D03*
X100656400Y-72216000D03*
X100656400Y-69716000D03*
X84455000Y-85039200D03*
X79629000Y-85039200D03*
D12*
X134874000Y-55214500D03*
D13*
X137414000Y-55214500D03*
D22*
X137287000Y-62473800D03*
X135387000Y-62473800D03*
X137287000Y-60319900D03*
X135387000Y-60319900D03*
X137287000Y-58171100D03*
X135387000Y-58171100D03*
D23*
X127836000Y-62174100D03*
X127836000Y-60904100D03*
X127836000Y-59634100D03*
X127836000Y-58364100D03*
X133236000Y-58364100D03*
X133236000Y-59634100D03*
X133236000Y-60904100D03*
X133236000Y-62174100D03*
D17*
X104262000Y-97922100D03*
D18*
X106802000Y-97922100D03*
X109342000Y-97922100D03*
X111882000Y-97922100D03*
X114422000Y-97922100D03*
X116962000Y-97922100D03*
X119502000Y-97922100D03*
D24*
X95991700Y-83611700D03*
D14*
X93451700Y-83611700D03*
D24*
X113254000Y-83713300D03*
D14*
X110714000Y-83713300D03*
D25*
X131846000Y-64571900D03*
X129846000Y-64571900D03*
D26*
X113149340Y-53609200D03*
X108978660Y-53609200D03*
D27*
X116654240Y-61384200D03*
X116654240Y-59484200D03*
X118653220Y-60434200D03*
D28*
X109281000Y-60203100D03*
X109281000Y-58303100D03*
D22*
X113650000Y-57576700D03*
X111750000Y-57576700D03*
D29*
X111691000Y-61407100D03*
X111691000Y-60457100D03*
X111691000Y-59507100D03*
X113891000Y-59507100D03*
X113891000Y-61407100D03*
X113891000Y-60457100D03*
D22*
X131572000Y-72867500D03*
X133472000Y-72867500D03*
X131597000Y-70327500D03*
X133497000Y-70327500D03*
D10*
G36*
X134867000Y-52060900D02*
X135867000Y-51560900D01*
X135867000Y-53330900D01*
X134867000Y-52830900D01*
X134867000Y-52060900D01*
X134867000Y-52060900D01*
G37*
G36*
X137137000Y-52830900D02*
X136137000Y-53330900D01*
X136137000Y-51560900D01*
X137137000Y-52060900D01*
X137137000Y-52830900D01*
X137137000Y-52830900D01*
G37*
D30*
X78740000Y-90678000D03*
D31*
X81280000Y-90678000D03*
D32*
X91440000Y-66040000D03*
X88900000Y-66040000D03*
D33*
X111750000Y-57576700D03*
X129398000Y-58369200D03*
X113058500Y-87348800D03*
X87241500Y-50928100D03*
X91796500Y-68517500D03*
X102735800Y-67240900D03*
X103273100Y-66255500D03*
X100912500Y-60620500D03*
X104315100Y-64007900D03*
X131938300Y-56807800D03*
X84582000Y-82550000D03*
X89916000Y-52070000D03*
D34*
X125794000Y-47548800D02*
X125794000Y-46291500D01*
X120714000Y-47548800D02*
X120714000Y-46291500D01*
X120714000Y-47548800D02*
X125794000Y-47548800D01*
X108014000Y-47548800D02*
X108014000Y-46291500D01*
X100394000Y-47548800D02*
X100394000Y-46291500D01*
X100394000Y-47548800D02*
X108014000Y-47548800D01*
X95314000Y-47548800D02*
X95314000Y-48831500D01*
X91491300Y-47548800D02*
X95314000Y-47548800D01*
X90234000Y-46291500D02*
X91491300Y-47548800D01*
X95314000Y-47548800D02*
X100394000Y-47548800D01*
X108014000Y-47548800D02*
X115634000Y-47548800D01*
X110949700Y-57734700D02*
X110381300Y-58303100D01*
X110949700Y-57576700D02*
X110949700Y-57734700D01*
X109281000Y-58303100D02*
X110381300Y-58303100D01*
X111750000Y-57576700D02*
X110949700Y-57576700D01*
X137414000Y-53222900D02*
X136637000Y-52445900D01*
X137414000Y-55214500D02*
X137414000Y-53222900D01*
X133788300Y-48831500D02*
X133414000Y-48831500D01*
X136637000Y-51680200D02*
X133788300Y-48831500D01*
X136637000Y-52445900D02*
X136637000Y-51680200D01*
X137502900Y-56680800D02*
X137414000Y-56680800D01*
X141237100Y-60415000D02*
X137502900Y-56680800D01*
X141237100Y-62724900D02*
X141237100Y-60415000D01*
X139954000Y-64008000D02*
X141237100Y-62724900D01*
X137414000Y-55214500D02*
X137414000Y-56680800D01*
X141175900Y-65229900D02*
X139954000Y-64008000D01*
X141175900Y-74698500D02*
X141175900Y-65229900D01*
X140436400Y-75438000D02*
X141175900Y-74698500D01*
X139497700Y-75438000D02*
X140436400Y-75438000D01*
X131369000Y-83566700D02*
X139497700Y-75438000D01*
X131369000Y-97891600D02*
X131369000Y-83566700D01*
X91128400Y-92144400D02*
X93268800Y-94284800D01*
X89673100Y-92144400D02*
X91128400Y-92144400D01*
X89281800Y-91753100D02*
X89673100Y-92144400D01*
X89281800Y-86081400D02*
X89281800Y-91753100D01*
X88036400Y-84836000D02*
X89281800Y-86081400D01*
X120548000Y-55067200D02*
X120548000Y-52527200D01*
X115634000Y-48831500D02*
X115634000Y-47548800D01*
X85902800Y-83591400D02*
X84455000Y-85039200D01*
X86791800Y-83591400D02*
X85902800Y-83591400D01*
X86791800Y-70840600D02*
X86791800Y-83591400D01*
X88036400Y-69596000D02*
X86791800Y-70840600D01*
X86791800Y-83591400D02*
X88036400Y-84836000D01*
X106552600Y-86131400D02*
X105308000Y-84886800D01*
X106552600Y-87964900D02*
X106552600Y-86131400D01*
X106469700Y-88047800D02*
X106552600Y-87964900D01*
X106469700Y-91983400D02*
X106469700Y-88047800D01*
X107304700Y-92818400D02*
X106469700Y-91983400D01*
X108871600Y-92818400D02*
X107304700Y-92818400D01*
X110338000Y-94284800D02*
X108871600Y-92818400D01*
X115634000Y-47548800D02*
X119444000Y-47548800D01*
X119444000Y-47548800D02*
X120714000Y-47548800D01*
X119444000Y-51423200D02*
X120548000Y-52527200D01*
X119444000Y-47548800D02*
X119444000Y-51423200D01*
X127989000Y-59634100D02*
X127989000Y-60904100D01*
X127836000Y-59634100D02*
X127989000Y-59634100D01*
X127989000Y-59634100D02*
X128142000Y-59634100D01*
X127989000Y-60904100D02*
X128142000Y-60904100D01*
X127836000Y-60904100D02*
X127989000Y-60904100D01*
X127836000Y-62174100D02*
X129061300Y-62174100D01*
X129846000Y-64571900D02*
X129061300Y-64571900D01*
X129061300Y-61626800D02*
X129061300Y-62174100D01*
X128338600Y-60904100D02*
X129061300Y-61626800D01*
X128142000Y-60904100D02*
X128338600Y-60904100D01*
D35*
X127836000Y-58364100D02*
X128419900Y-58364100D01*
X129393000Y-58364100D02*
X129398000Y-58369200D01*
X128419900Y-58364100D02*
X129393000Y-58364100D01*
D34*
X128142000Y-58642000D02*
X128142000Y-59634100D01*
X128419900Y-58364100D02*
X128142000Y-58642000D01*
X129061300Y-62174100D02*
X129061300Y-64571900D01*
X124714000Y-68919200D02*
X124714000Y-69088000D01*
X129061300Y-64571900D02*
X124714000Y-68919200D01*
X125794000Y-47548800D02*
X129604000Y-47548800D01*
X132131000Y-47548800D02*
X133414000Y-48831500D01*
X129604000Y-47548800D02*
X132131000Y-47548800D01*
X130048000Y-52628800D02*
X130048000Y-55168800D01*
X129604000Y-50870900D02*
X129604000Y-47548800D01*
X130048000Y-51314900D02*
X129604000Y-50870900D01*
X130048000Y-52628800D02*
X130048000Y-51314900D01*
X98920300Y-96253300D02*
X100584000Y-97917000D01*
X97777300Y-96253300D02*
X98920300Y-96253300D01*
X95808800Y-94284800D02*
X97777300Y-96253300D01*
X102006000Y-52527200D02*
X102006000Y-55067200D01*
X105308000Y-63926200D02*
X105308000Y-69646800D01*
X101269500Y-59887700D02*
X105308000Y-63926200D01*
X101269500Y-55803700D02*
X101269500Y-59887700D01*
X102006000Y-55067200D02*
X101269500Y-55803700D01*
D36*
X92964000Y-97871300D02*
X92964000Y-97917000D01*
X113254000Y-87153300D02*
X113058500Y-87348800D01*
X113254000Y-83713300D02*
X113254000Y-87153300D01*
X95991700Y-83611700D02*
X95976500Y-83611700D01*
X95961200Y-83611700D02*
X95961200Y-83616800D01*
X95976500Y-83611700D02*
X95961200Y-83611700D01*
X95976500Y-71764700D02*
X102006000Y-65735200D01*
X95976500Y-83611700D02*
X95976500Y-71764700D01*
D35*
X98348800Y-94284800D02*
X99537700Y-94284800D01*
X102998700Y-97745800D02*
X99537700Y-94284800D01*
X102998700Y-99004000D02*
X102998700Y-97745800D01*
X103266200Y-99271500D02*
X102998700Y-99004000D01*
X129314600Y-99271500D02*
X103266200Y-99271500D01*
X130099000Y-98487100D02*
X129314600Y-99271500D01*
X130099000Y-84023000D02*
X130099000Y-98487100D01*
X139954000Y-74168000D02*
X130099000Y-84023000D01*
D34*
X107798000Y-84836800D02*
X107798000Y-89262500D01*
X105308000Y-82346800D02*
X107798000Y-84836800D01*
X107798000Y-90728800D02*
X107798000Y-89262500D01*
X108955000Y-89345800D02*
X110338000Y-90728800D01*
X108955000Y-83453800D02*
X108955000Y-89345800D01*
X105308000Y-79806800D02*
X108955000Y-83453800D01*
X112033900Y-88418400D02*
X112878000Y-89262500D01*
X112033900Y-83311100D02*
X112033900Y-88418400D01*
X105989600Y-77266800D02*
X112033900Y-83311100D01*
X105308000Y-77266800D02*
X105989600Y-77266800D01*
X112878000Y-90728800D02*
X112878000Y-89262500D01*
X115418000Y-83694100D02*
X115418000Y-89262500D01*
X106450700Y-74726800D02*
X115418000Y-83694100D01*
X105308000Y-74726800D02*
X106450700Y-74726800D01*
X115418000Y-90728800D02*
X115418000Y-89262500D01*
X90728800Y-90678000D02*
X90728800Y-89211700D01*
X90728800Y-86262900D02*
X90728800Y-89211700D01*
X89810500Y-85344600D02*
X90728800Y-86262900D01*
X89810500Y-84070100D02*
X89810500Y-85344600D01*
X88036400Y-82296000D02*
X89810500Y-84070100D01*
X93268800Y-87812400D02*
X93268800Y-90678000D01*
X90510800Y-85054400D02*
X93268800Y-87812400D01*
X90510800Y-82230400D02*
X90510800Y-85054400D01*
X88036400Y-79756000D02*
X90510800Y-82230400D01*
X88036400Y-77216000D02*
X88792900Y-77216000D01*
X91211100Y-84614000D02*
X95808800Y-89211700D01*
X91211100Y-79634200D02*
X91211100Y-84614000D01*
X88792900Y-77216000D02*
X91211100Y-79634200D01*
X95808800Y-90678000D02*
X95808800Y-89211700D01*
X91911400Y-84240600D02*
X98348800Y-90678000D01*
X91911400Y-78551000D02*
X91911400Y-84240600D01*
X88036400Y-74676000D02*
X91911400Y-78551000D01*
D35*
X124541000Y-52628800D02*
X124968000Y-52628800D01*
X123581300Y-53588500D02*
X124541000Y-52628800D01*
X123581300Y-62875300D02*
X123581300Y-53588500D01*
X124714000Y-64008000D02*
X123581300Y-62875300D01*
X127508000Y-52628800D02*
X127246600Y-52628800D01*
X127246600Y-52628800D02*
X127047000Y-52628800D01*
X126157000Y-60025000D02*
X124714000Y-61468000D01*
X126157000Y-53718400D02*
X126157000Y-60025000D01*
X127246600Y-52628800D02*
X126157000Y-53718400D01*
X117985000Y-69766800D02*
X117928000Y-69766800D01*
X117985000Y-70033400D02*
X117985000Y-69766800D01*
X124714000Y-76552800D02*
X124714000Y-76630400D01*
X124714000Y-76630400D02*
X124714000Y-76708000D01*
X124714000Y-76630400D02*
X124582000Y-76630400D01*
X124582000Y-76630400D02*
X117985000Y-70033400D01*
X118362000Y-72266800D02*
X117928000Y-72266800D01*
X118362000Y-72581400D02*
X118362000Y-72266800D01*
X124714000Y-78618800D02*
X124714000Y-78933400D01*
X124714000Y-78933400D02*
X124714000Y-79248000D01*
X124714000Y-78933400D02*
X118362000Y-72581400D01*
X124714000Y-81788000D02*
X124714000Y-81154500D01*
X117928000Y-82266800D02*
X117928000Y-82172400D01*
X117928000Y-82172400D02*
X117928000Y-82078100D01*
X123261400Y-82875400D02*
X124714000Y-84328000D01*
X123261400Y-80467100D02*
X123261400Y-82875400D01*
X122316100Y-79521800D02*
X123261400Y-80467100D01*
X120578600Y-79521800D02*
X122316100Y-79521800D01*
X117928000Y-82172400D02*
X120578600Y-79521800D01*
X117928000Y-87266800D02*
X118232000Y-87570800D01*
X124714000Y-95032700D02*
X124714000Y-89408000D01*
X122354500Y-97392200D02*
X124714000Y-95032700D01*
X121093800Y-97392200D02*
X122354500Y-97392200D01*
X118232000Y-94530400D02*
X121093800Y-97392200D01*
X118232000Y-87570800D02*
X118232000Y-94530400D01*
X118204000Y-77266800D02*
X117928000Y-77266800D01*
X100656000Y-77216100D02*
X100656000Y-77216000D01*
X100656000Y-77216000D02*
X100656400Y-77216000D01*
X131572000Y-71327800D02*
X131572000Y-72867500D01*
X131597000Y-71302800D02*
X131572000Y-71327800D01*
X131597000Y-70815100D02*
X131597000Y-71302800D01*
X131597000Y-70815100D02*
X131597000Y-70327500D01*
X133258600Y-69088000D02*
X139954000Y-69088000D01*
X132272300Y-70074300D02*
X133258600Y-69088000D01*
X132272300Y-70327500D02*
X132272300Y-70074300D01*
X131597000Y-70327500D02*
X132272300Y-70327500D01*
X90728800Y-94284800D02*
X91917700Y-94284800D01*
X98044000Y-97917000D02*
X96855100Y-97917000D01*
X94610300Y-93644400D02*
X94610300Y-95260900D01*
X95334500Y-92920200D02*
X94610300Y-93644400D01*
X97993700Y-92920200D02*
X95334500Y-92920200D01*
X99537900Y-91376000D02*
X97993700Y-92920200D01*
X99537900Y-78334100D02*
X99537900Y-91376000D01*
X100656000Y-77216000D02*
X99537900Y-78334100D01*
X94209300Y-95661900D02*
X94610300Y-95260900D01*
X92774700Y-95661900D02*
X94209300Y-95661900D01*
X91917700Y-94804900D02*
X92774700Y-95661900D01*
X91917700Y-94284800D02*
X91917700Y-94804900D01*
X96855100Y-97434200D02*
X96855100Y-97917000D01*
X94681800Y-95260900D02*
X96855100Y-97434200D01*
X94610300Y-95260900D02*
X94681800Y-95260900D01*
X79629000Y-85039200D02*
X79844900Y-85255100D01*
X79844900Y-85255100D02*
X80060800Y-85471000D01*
X132274000Y-45151500D02*
X133414000Y-46291500D01*
X84743900Y-45151500D02*
X132274000Y-45151500D01*
X83695800Y-46199600D02*
X84743900Y-45151500D01*
X83695800Y-50996500D02*
X83695800Y-46199600D01*
X82368800Y-52323500D02*
X83695800Y-50996500D01*
X82368800Y-82731200D02*
X82368800Y-52323500D01*
X79844900Y-85255100D02*
X82368800Y-82731200D01*
X91796500Y-68517500D02*
X91631500Y-68517500D01*
X89154000Y-64516000D02*
X85453000Y-64516000D01*
X90170000Y-65532000D02*
X89154000Y-64516000D01*
X90170000Y-67056000D02*
X90170000Y-65532000D01*
X91631500Y-68517500D02*
X90170000Y-67056000D01*
X85453000Y-64516000D02*
X85453000Y-59847700D01*
X85453000Y-59847700D02*
X85628800Y-59671900D01*
X85628800Y-59671900D02*
X85872800Y-59671900D01*
X85872800Y-59671900D02*
X87241500Y-58303200D01*
X87241500Y-58303200D02*
X87241500Y-50928100D01*
X137384000Y-72867500D02*
X137414000Y-72898000D01*
X85344000Y-97917000D02*
X85344000Y-96575700D01*
X133472000Y-72867500D02*
X137384000Y-72867500D01*
X83362200Y-70581600D02*
X85453000Y-68490800D01*
X83362200Y-94593900D02*
X83362200Y-70581600D01*
X85344000Y-96575700D02*
X83362200Y-94593900D01*
X85453000Y-68490800D02*
X85453000Y-64516000D01*
X137384000Y-70327500D02*
X137414000Y-70358000D01*
X133497000Y-70327500D02*
X137384000Y-70327500D01*
D36*
X111252000Y-65222120D02*
X111856520Y-65222120D01*
X111856520Y-65222120D02*
X113121440Y-66487040D01*
X113121440Y-66487040D02*
X117693440Y-66487040D01*
X117693440Y-66487040D02*
X118445280Y-65735200D01*
X120548000Y-65735200D02*
X118445280Y-65735200D01*
X118445280Y-65735200D02*
X118176040Y-65735200D01*
X118176040Y-65735200D02*
X116951760Y-64510920D01*
X120548000Y-65735200D02*
X120548000Y-63195200D01*
X118653220Y-60434200D02*
X118653220Y-62062700D01*
X118653220Y-62062700D02*
X118203980Y-62511940D01*
X113891000Y-61407100D02*
X114648040Y-61407100D01*
X119864740Y-62511940D02*
X120548000Y-63195200D01*
X118203980Y-62511940D02*
X119864740Y-62511940D01*
X115752880Y-62511940D02*
X118203980Y-62511940D01*
X114648040Y-61407100D02*
X115752880Y-62511940D01*
D35*
X102735800Y-96395900D02*
X104262000Y-97922100D01*
X102735800Y-67240900D02*
X102735800Y-96395900D01*
X110630000Y-48907500D02*
X110554000Y-48831500D01*
X106853000Y-97956600D02*
X106853000Y-98411700D01*
X106836000Y-97956600D02*
X106853000Y-97956600D01*
X106802000Y-97922100D02*
X106836000Y-97956600D01*
X106853000Y-97891600D02*
X106853000Y-97956600D01*
X103368000Y-66350400D02*
X103273100Y-66255500D01*
X103368000Y-68775300D02*
X103368000Y-66350400D01*
X103274700Y-68868600D02*
X103368000Y-68775300D01*
X103274700Y-94313300D02*
X103274700Y-68868600D01*
X106853000Y-97891600D02*
X103274700Y-94313300D01*
X109342000Y-97922100D02*
X108153100Y-97922100D01*
X100912500Y-63690000D02*
X100912500Y-60620500D01*
X101870300Y-64647800D02*
X100912500Y-63690000D01*
X102558100Y-64647800D02*
X101870300Y-64647800D01*
X103898400Y-65988100D02*
X102558100Y-64647800D01*
X103898400Y-68881800D02*
X103898400Y-65988100D01*
X103745100Y-69035100D02*
X103898400Y-68881800D01*
X103745100Y-92572500D02*
X103745100Y-69035100D01*
X108153100Y-96980500D02*
X103745100Y-92572500D01*
X108153100Y-97922100D02*
X108153100Y-96980500D01*
X111882000Y-97922100D02*
X111882000Y-96580800D01*
X104411300Y-64104100D02*
X104315100Y-64007900D01*
X104411300Y-69005800D02*
X104411300Y-64104100D01*
X104220700Y-69196400D02*
X104411300Y-69005800D01*
X104220700Y-77761000D02*
X104220700Y-69196400D01*
X104932600Y-78472900D02*
X104220700Y-77761000D01*
X105580600Y-78472900D02*
X104932600Y-78472900D01*
X109602300Y-82494600D02*
X105580600Y-78472900D01*
X109602300Y-87531200D02*
X109602300Y-82494600D01*
X111608000Y-89536900D02*
X109602300Y-87531200D01*
X111608000Y-96306800D02*
X111608000Y-89536900D01*
X111882000Y-96580800D02*
X111608000Y-96306800D01*
X85154000Y-48831500D02*
X85534500Y-48831500D01*
X137287000Y-58171100D02*
X137287000Y-60319900D01*
X137287000Y-60319900D02*
X137287000Y-62473800D01*
X134336300Y-62918200D02*
X134336300Y-62174100D01*
X134876300Y-63458200D02*
X134336300Y-62918200D01*
X135880500Y-63458200D02*
X134876300Y-63458200D01*
X136611700Y-62727000D02*
X135880500Y-63458200D01*
X136611700Y-62473800D02*
X136611700Y-62727000D01*
X137287000Y-62473800D02*
X136611700Y-62473800D01*
X133236000Y-62174100D02*
X134336300Y-62174100D01*
X133236000Y-62174100D02*
X132961000Y-62174100D01*
X132961000Y-62174100D02*
X132686000Y-62174100D01*
X131846000Y-63289100D02*
X131846000Y-64571900D01*
X132961000Y-62174100D02*
X131846000Y-63289100D01*
X106884300Y-50241800D02*
X105474000Y-48831500D01*
X112621300Y-50241800D02*
X106884300Y-50241800D01*
X122130700Y-59751200D02*
X112621300Y-50241800D01*
X122130700Y-68108000D02*
X122130700Y-59751200D01*
X124256800Y-70234100D02*
X122130700Y-68108000D01*
X125771100Y-70234100D02*
X124256800Y-70234100D01*
X131020700Y-64984500D02*
X125771100Y-70234100D01*
X131020700Y-64571900D02*
X131020700Y-64984500D01*
X131846000Y-64571900D02*
X131020700Y-64571900D01*
X134615200Y-58267600D02*
X134711700Y-58171100D01*
X133786000Y-58267600D02*
X134615200Y-58267600D01*
X135387000Y-58171100D02*
X134711700Y-58171100D01*
X133786000Y-58364100D02*
X133786000Y-58267600D01*
X133236000Y-58364100D02*
X133786000Y-58364100D01*
X133786000Y-58267600D02*
X133786000Y-58171100D01*
X118174000Y-54271100D02*
X118174000Y-48831500D01*
X120109100Y-56206200D02*
X118174000Y-54271100D01*
X120953600Y-56206200D02*
X120109100Y-56206200D01*
X122039100Y-55120700D02*
X120953600Y-56206200D01*
X122039100Y-53851900D02*
X122039100Y-55120700D01*
X124451200Y-51439800D02*
X122039100Y-53851900D01*
X128009000Y-51439800D02*
X124451200Y-51439800D01*
X128778000Y-52208800D02*
X128009000Y-51439800D01*
X128778000Y-55651300D02*
X128778000Y-52208800D01*
X129488400Y-56361700D02*
X128778000Y-55651300D01*
X131309000Y-56361700D02*
X129488400Y-56361700D01*
X131531000Y-56139700D02*
X131309000Y-56361700D01*
X132222700Y-56139700D02*
X131531000Y-56139700D01*
X133786000Y-57703000D02*
X132222700Y-56139700D01*
X133786000Y-58171100D02*
X133786000Y-57703000D01*
X134336300Y-59944500D02*
X134336300Y-59634100D01*
X134711700Y-60319900D02*
X134336300Y-59944500D01*
X133238600Y-59634100D02*
X134336300Y-59634100D01*
X135372800Y-60319900D02*
X134711700Y-60319900D01*
X135372800Y-60319900D02*
X135387000Y-60319900D01*
X133238600Y-59634100D02*
X133236000Y-59634100D01*
X132135700Y-57005200D02*
X131938300Y-56807800D01*
X132135700Y-59634100D02*
X132135700Y-57005200D01*
X133236000Y-59634100D02*
X132135700Y-59634100D01*
D36*
X114422000Y-97922100D02*
X114637800Y-97922100D01*
X114637800Y-97922100D02*
X117119400Y-95440500D01*
X107429300Y-65509140D02*
X107429300Y-61551820D01*
X116395500Y-74475340D02*
X107429300Y-65509140D01*
X116395500Y-88011000D02*
X116395500Y-74475340D01*
X117119400Y-88734900D02*
X116395500Y-88011000D01*
X117119400Y-95440500D02*
X117119400Y-88734900D01*
X111252000Y-63952120D02*
X109829600Y-63952120D01*
X107429300Y-55158560D02*
X108978660Y-53609200D01*
X107429300Y-61551820D02*
X107429300Y-55158560D01*
X109829600Y-63952120D02*
X107429300Y-61551820D01*
X114411760Y-64510920D02*
X113786920Y-64510920D01*
X113786920Y-64510920D02*
X113228120Y-63952120D01*
X113228120Y-63952120D02*
X111252000Y-63952120D01*
X95504000Y-97896700D02*
X95504000Y-97917000D01*
D35*
X114635000Y-97891600D02*
X114635000Y-97716800D01*
X114627000Y-97716800D02*
X114422000Y-97922100D01*
X114635000Y-97716800D02*
X114627000Y-97716800D01*
X108979000Y-53609100D02*
X108979000Y-53609200D01*
X108979000Y-53608800D02*
X108979000Y-53609100D01*
X108401000Y-53031100D02*
X108979000Y-53608800D01*
X108979000Y-53609100D02*
X108979000Y-53609200D01*
D36*
X108401000Y-53031100D02*
X108979000Y-53609200D01*
X108938000Y-53609200D02*
X108978700Y-53609200D01*
X108978700Y-53609200D02*
X108979000Y-53609200D01*
X108979000Y-53609200D02*
X108978700Y-53609200D01*
X108978700Y-53609200D02*
X108938000Y-53609200D01*
X108938000Y-53609200D02*
X107226000Y-53609200D01*
X128829000Y-71233200D02*
X128829000Y-97891600D01*
X131717900Y-68344300D02*
X128829000Y-71233200D01*
X133231700Y-68344300D02*
X131717900Y-68344300D01*
X139954000Y-61622000D02*
X133231700Y-68344300D01*
X139954000Y-61468000D02*
X139954000Y-61622000D01*
D35*
X114635000Y-97716800D02*
X114635000Y-97371500D01*
D36*
X89631500Y-50942200D02*
X88757800Y-50068500D01*
X104559000Y-50942200D02*
X89631500Y-50942200D01*
X107226000Y-53609200D02*
X104559000Y-50942200D01*
D34*
X88315800Y-50154800D02*
X88580100Y-49890600D01*
X87147400Y-50154800D02*
X88315800Y-50154800D01*
X86390500Y-49397900D02*
X87147400Y-50154800D01*
X86390500Y-47579300D02*
X86390500Y-49397900D01*
X85154000Y-46342800D02*
X86390500Y-47579300D01*
X85154000Y-46291500D02*
X85154000Y-46342800D01*
X88961000Y-47558500D02*
X87694000Y-46291500D01*
X88961000Y-49509700D02*
X88961000Y-47558500D01*
X88580100Y-49890600D02*
X88961000Y-49509700D01*
D36*
X88757800Y-50068300D02*
X88757800Y-50068500D01*
X88580100Y-49890600D02*
X88757800Y-50068300D01*
X116654240Y-59484200D02*
X116654240Y-57114100D01*
X116654240Y-57114100D02*
X113149340Y-53609200D01*
D35*
X113149000Y-53609200D02*
X113149000Y-53609300D01*
D36*
X113149000Y-53609200D02*
X113149000Y-53609300D01*
D35*
X112555000Y-54203600D02*
X113149000Y-53609300D01*
X113149000Y-53609200D02*
X113149300Y-53609200D01*
X113149300Y-53609200D02*
X113149300Y-54949200D01*
X112554700Y-55543800D02*
X113149300Y-54949200D01*
X112554700Y-59976100D02*
X112554700Y-55543800D01*
X113035700Y-60457100D02*
X112554700Y-59976100D01*
X113891000Y-60457100D02*
X113035700Y-60457100D01*
X113891000Y-59507100D02*
X113891000Y-57817700D01*
X113891000Y-57817700D02*
X113650000Y-57576700D01*
X116654200Y-61384200D02*
X116654200Y-60658800D01*
X115928800Y-60658800D02*
X116654200Y-60658800D01*
X114777100Y-59507100D02*
X115928800Y-60658800D01*
X113891000Y-59507100D02*
X114777100Y-59507100D01*
X111477000Y-60457100D02*
X111263000Y-60457100D01*
X111691000Y-61407100D02*
X110835700Y-61407100D01*
X110835700Y-60938200D02*
X110835700Y-61407100D01*
X111316800Y-60457100D02*
X110835700Y-60938200D01*
X111477000Y-60457100D02*
X111316800Y-60457100D01*
X111691000Y-60457100D02*
X111477000Y-60457100D01*
X111691000Y-59507100D02*
X110835700Y-59507100D01*
X109281000Y-60203100D02*
X110256300Y-60203100D01*
X110835700Y-60203100D02*
X110256300Y-60203100D01*
X110835700Y-60203100D02*
X110835700Y-59507100D01*
X111089700Y-60457100D02*
X110835700Y-60203100D01*
X111263000Y-60457100D02*
X111089700Y-60457100D01*
X135367000Y-53380200D02*
X135367000Y-52445900D01*
X134874000Y-53873200D02*
X135367000Y-53380200D01*
X134874000Y-55214500D02*
X134874000Y-53873200D01*
X135387000Y-62473800D02*
X135302500Y-62473800D01*
X134874000Y-55214500D02*
X134874000Y-56555800D01*
X135254600Y-56555800D02*
X134874000Y-56555800D01*
X136065900Y-57367100D02*
X135254600Y-56555800D01*
X136065900Y-61710400D02*
X136065900Y-57367100D01*
X135302500Y-62473800D02*
X136065900Y-61710400D01*
X135302500Y-62473800D02*
X135175800Y-62473800D01*
X135175800Y-62473800D02*
X135049000Y-62473800D01*
X135175800Y-61743600D02*
X134336300Y-60904100D01*
X135175800Y-62473800D02*
X135175800Y-61743600D01*
X133236000Y-60904100D02*
X134336300Y-60904100D01*
X88900000Y-66040000D02*
X88900000Y-66294000D01*
X88900000Y-66294000D02*
X84582000Y-70612000D01*
X84582000Y-70612000D02*
X84582000Y-82550000D01*
X89916000Y-52070000D02*
X88138000Y-53848000D01*
X88138000Y-53848000D02*
X88138000Y-59182000D01*
X88138000Y-59182000D02*
X88392000Y-59436000D01*
X88392000Y-59436000D02*
X90170000Y-59436000D01*
X90170000Y-59436000D02*
X91440000Y-60706000D01*
X91440000Y-60706000D02*
X91440000Y-66040000D01*
D37*
G36*
X138556758Y-76984661D02*
X138768990Y-77498303D01*
X139161630Y-77891629D01*
X139369512Y-77977949D01*
X139163697Y-78062990D01*
X138770371Y-78455630D01*
X138557243Y-78968900D01*
X138556758Y-79524661D01*
X138768990Y-80038303D01*
X139161630Y-80431629D01*
X139369512Y-80517949D01*
X139163697Y-80602990D01*
X138770371Y-80995630D01*
X138557243Y-81508900D01*
X138556758Y-82064661D01*
X138768990Y-82578303D01*
X139161630Y-82971629D01*
X139369512Y-83057949D01*
X139163697Y-83142990D01*
X138770371Y-83535630D01*
X138557243Y-84048900D01*
X138556758Y-84604661D01*
X138768990Y-85118303D01*
X139161630Y-85511629D01*
X139369512Y-85597949D01*
X139163697Y-85682990D01*
X138770371Y-86075630D01*
X138557243Y-86588900D01*
X138556758Y-87144661D01*
X138768990Y-87658303D01*
X139161630Y-88051629D01*
X139369512Y-88137949D01*
X139163697Y-88222990D01*
X138770371Y-88615630D01*
X138557243Y-89128900D01*
X138556758Y-89684661D01*
X138768990Y-90198303D01*
X139161630Y-90591629D01*
X139674900Y-90804757D01*
X140230661Y-90805242D01*
X140744303Y-90593010D01*
X141072800Y-90265086D01*
X141072800Y-94134545D01*
X140358470Y-93418967D01*
X138986197Y-92849150D01*
X137500322Y-92847853D01*
X136127056Y-93415275D01*
X135075467Y-94465030D01*
X134505650Y-95837303D01*
X134504353Y-97323178D01*
X135071775Y-98696444D01*
X135689452Y-99315200D01*
X132119765Y-99315200D01*
X132271036Y-99242332D01*
X132660954Y-98805920D01*
X132854184Y-98253513D01*
X132709924Y-98018600D01*
X131496000Y-98018600D01*
X131496000Y-98038600D01*
X131242000Y-98038600D01*
X131242000Y-98018600D01*
X131222000Y-98018600D01*
X131222000Y-97764600D01*
X131242000Y-97764600D01*
X131242000Y-96405383D01*
X131496000Y-96405383D01*
X131496000Y-97764600D01*
X132709924Y-97764600D01*
X132854184Y-97529687D01*
X132660954Y-96977280D01*
X132271036Y-96540868D01*
X131743791Y-96286891D01*
X131728026Y-96284242D01*
X131496000Y-96405383D01*
X131242000Y-96405383D01*
X131009974Y-96284242D01*
X130994209Y-96286891D01*
X130859000Y-96352022D01*
X130859000Y-84337802D01*
X138557059Y-76639743D01*
X138556758Y-76984661D01*
X138556758Y-76984661D01*
G37*
X138556758Y-76984661D02*
X138768990Y-77498303D01*
X139161630Y-77891629D01*
X139369512Y-77977949D01*
X139163697Y-78062990D01*
X138770371Y-78455630D01*
X138557243Y-78968900D01*
X138556758Y-79524661D01*
X138768990Y-80038303D01*
X139161630Y-80431629D01*
X139369512Y-80517949D01*
X139163697Y-80602990D01*
X138770371Y-80995630D01*
X138557243Y-81508900D01*
X138556758Y-82064661D01*
X138768990Y-82578303D01*
X139161630Y-82971629D01*
X139369512Y-83057949D01*
X139163697Y-83142990D01*
X138770371Y-83535630D01*
X138557243Y-84048900D01*
X138556758Y-84604661D01*
X138768990Y-85118303D01*
X139161630Y-85511629D01*
X139369512Y-85597949D01*
X139163697Y-85682990D01*
X138770371Y-86075630D01*
X138557243Y-86588900D01*
X138556758Y-87144661D01*
X138768990Y-87658303D01*
X139161630Y-88051629D01*
X139369512Y-88137949D01*
X139163697Y-88222990D01*
X138770371Y-88615630D01*
X138557243Y-89128900D01*
X138556758Y-89684661D01*
X138768990Y-90198303D01*
X139161630Y-90591629D01*
X139674900Y-90804757D01*
X140230661Y-90805242D01*
X140744303Y-90593010D01*
X141072800Y-90265086D01*
X141072800Y-94134545D01*
X140358470Y-93418967D01*
X138986197Y-92849150D01*
X137500322Y-92847853D01*
X136127056Y-93415275D01*
X135075467Y-94465030D01*
X134505650Y-95837303D01*
X134504353Y-97323178D01*
X135071775Y-98696444D01*
X135689452Y-99315200D01*
X132119765Y-99315200D01*
X132271036Y-99242332D01*
X132660954Y-98805920D01*
X132854184Y-98253513D01*
X132709924Y-98018600D01*
X131496000Y-98018600D01*
X131496000Y-98038600D01*
X131242000Y-98038600D01*
X131242000Y-98018600D01*
X131222000Y-98018600D01*
X131222000Y-97764600D01*
X131242000Y-97764600D01*
X131242000Y-96405383D01*
X131496000Y-96405383D01*
X131496000Y-97764600D01*
X132709924Y-97764600D01*
X132854184Y-97529687D01*
X132660954Y-96977280D01*
X132271036Y-96540868D01*
X131743791Y-96286891D01*
X131728026Y-96284242D01*
X131496000Y-96405383D01*
X131242000Y-96405383D01*
X131009974Y-96284242D01*
X130994209Y-96286891D01*
X130859000Y-96352022D01*
X130859000Y-84337802D01*
X138557059Y-76639743D01*
X138556758Y-76984661D01*
G36*
X102238700Y-98060602D02*
X102238700Y-99004000D01*
X102296552Y-99294839D01*
X102310157Y-99315200D01*
X101387495Y-99315200D01*
X101486036Y-99267732D01*
X101875954Y-98831320D01*
X102069184Y-98278913D01*
X101924924Y-98044000D01*
X100711000Y-98044000D01*
X100711000Y-98064000D01*
X100457000Y-98064000D01*
X100457000Y-98044000D01*
X100437000Y-98044000D01*
X100437000Y-97790000D01*
X100457000Y-97790000D01*
X100457000Y-97770000D01*
X100711000Y-97770000D01*
X100711000Y-97790000D01*
X101924924Y-97790000D01*
X101941350Y-97763252D01*
X102238700Y-98060602D01*
X102238700Y-98060602D01*
G37*
X102238700Y-98060602D02*
X102238700Y-99004000D01*
X102296552Y-99294839D01*
X102310157Y-99315200D01*
X101387495Y-99315200D01*
X101486036Y-99267732D01*
X101875954Y-98831320D01*
X102069184Y-98278913D01*
X101924924Y-98044000D01*
X100711000Y-98044000D01*
X100711000Y-98064000D01*
X100457000Y-98064000D01*
X100457000Y-98044000D01*
X100437000Y-98044000D01*
X100437000Y-97790000D01*
X100457000Y-97790000D01*
X100457000Y-97770000D01*
X100711000Y-97770000D01*
X100711000Y-97790000D01*
X101924924Y-97790000D01*
X101941350Y-97763252D01*
X102238700Y-98060602D01*
G36*
X119629000Y-97795100D02*
X119649000Y-97795100D01*
X119649000Y-98049100D01*
X119629000Y-98049100D01*
X119629000Y-98069100D01*
X119375000Y-98069100D01*
X119375000Y-98049100D01*
X119355000Y-98049100D01*
X119355000Y-97795100D01*
X119375000Y-97795100D01*
X119375000Y-97775100D01*
X119629000Y-97775100D01*
X119629000Y-97795100D01*
X119629000Y-97795100D01*
G37*
X119629000Y-97795100D02*
X119649000Y-97795100D01*
X119649000Y-98049100D01*
X119629000Y-98049100D01*
X119629000Y-98069100D01*
X119375000Y-98069100D01*
X119375000Y-98049100D01*
X119355000Y-98049100D01*
X119355000Y-97795100D01*
X119375000Y-97795100D01*
X119375000Y-97775100D01*
X119629000Y-97775100D01*
X119629000Y-97795100D01*
G36*
X114358330Y-91973215D02*
X114844511Y-92298071D01*
X115418000Y-92412145D01*
X115991489Y-92298071D01*
X116109400Y-92219285D01*
X116109400Y-92794315D01*
X115991489Y-92715529D01*
X115418000Y-92601455D01*
X114844511Y-92715529D01*
X114358330Y-93040385D01*
X114151539Y-93349869D01*
X113780036Y-92934068D01*
X113252791Y-92680091D01*
X113237026Y-92677442D01*
X113005000Y-92798583D01*
X113005000Y-94157800D01*
X113025000Y-94157800D01*
X113025000Y-94411800D01*
X113005000Y-94411800D01*
X113005000Y-95771017D01*
X113237026Y-95892158D01*
X113252791Y-95889509D01*
X113780036Y-95635532D01*
X114151539Y-95219731D01*
X114358330Y-95529215D01*
X114844511Y-95854071D01*
X115205640Y-95925904D01*
X114814680Y-96316864D01*
X114422000Y-96238755D01*
X113848511Y-96352829D01*
X113362330Y-96677685D01*
X113152000Y-96992466D01*
X112941670Y-96677685D01*
X112618291Y-96461610D01*
X112584148Y-96289961D01*
X112419401Y-96043399D01*
X112368000Y-95991998D01*
X112368000Y-95824378D01*
X112503209Y-95889509D01*
X112518974Y-95892158D01*
X112751000Y-95771017D01*
X112751000Y-94411800D01*
X112731000Y-94411800D01*
X112731000Y-94157800D01*
X112751000Y-94157800D01*
X112751000Y-92798583D01*
X112518974Y-92677442D01*
X112503209Y-92680091D01*
X112368000Y-92745222D01*
X112368000Y-92310700D01*
X112878000Y-92412145D01*
X113451489Y-92298071D01*
X113937670Y-91973215D01*
X114148000Y-91658434D01*
X114358330Y-91973215D01*
X114358330Y-91973215D01*
G37*
X114358330Y-91973215D02*
X114844511Y-92298071D01*
X115418000Y-92412145D01*
X115991489Y-92298071D01*
X116109400Y-92219285D01*
X116109400Y-92794315D01*
X115991489Y-92715529D01*
X115418000Y-92601455D01*
X114844511Y-92715529D01*
X114358330Y-93040385D01*
X114151539Y-93349869D01*
X113780036Y-92934068D01*
X113252791Y-92680091D01*
X113237026Y-92677442D01*
X113005000Y-92798583D01*
X113005000Y-94157800D01*
X113025000Y-94157800D01*
X113025000Y-94411800D01*
X113005000Y-94411800D01*
X113005000Y-95771017D01*
X113237026Y-95892158D01*
X113252791Y-95889509D01*
X113780036Y-95635532D01*
X114151539Y-95219731D01*
X114358330Y-95529215D01*
X114844511Y-95854071D01*
X115205640Y-95925904D01*
X114814680Y-96316864D01*
X114422000Y-96238755D01*
X113848511Y-96352829D01*
X113362330Y-96677685D01*
X113152000Y-96992466D01*
X112941670Y-96677685D01*
X112618291Y-96461610D01*
X112584148Y-96289961D01*
X112419401Y-96043399D01*
X112368000Y-95991998D01*
X112368000Y-95824378D01*
X112503209Y-95889509D01*
X112518974Y-95892158D01*
X112751000Y-95771017D01*
X112751000Y-94411800D01*
X112731000Y-94411800D01*
X112731000Y-94157800D01*
X112751000Y-94157800D01*
X112751000Y-92798583D01*
X112518974Y-92677442D01*
X112503209Y-92680091D01*
X112368000Y-92745222D01*
X112368000Y-92310700D01*
X112878000Y-92412145D01*
X113451489Y-92298071D01*
X113937670Y-91973215D01*
X114148000Y-91658434D01*
X114358330Y-91973215D01*
G36*
X105501748Y-84872658D02*
X105487605Y-84886800D01*
X106288213Y-85687408D01*
X106530397Y-85617943D01*
X106717144Y-85094498D01*
X106712561Y-85002941D01*
X106913000Y-85203379D01*
X106913000Y-89069387D01*
X106699083Y-89109638D01*
X106482959Y-89248710D01*
X106337969Y-89460910D01*
X106286960Y-89712800D01*
X106286960Y-91744800D01*
X106331238Y-91980117D01*
X106470310Y-92196241D01*
X106682510Y-92341231D01*
X106934400Y-92392240D01*
X108661600Y-92392240D01*
X108896917Y-92347962D01*
X109113041Y-92208890D01*
X109258031Y-91996690D01*
X109266400Y-91955361D01*
X109278330Y-91973215D01*
X109764511Y-92298071D01*
X110338000Y-92412145D01*
X110848000Y-92310700D01*
X110848000Y-92745222D01*
X110712791Y-92680091D01*
X110697026Y-92677442D01*
X110465000Y-92798583D01*
X110465000Y-94157800D01*
X110485000Y-94157800D01*
X110485000Y-94411800D01*
X110465000Y-94411800D01*
X110465000Y-95771017D01*
X110697026Y-95892158D01*
X110712791Y-95889509D01*
X110848000Y-95824378D01*
X110848000Y-96306800D01*
X110905852Y-96597639D01*
X110917049Y-96614396D01*
X110822330Y-96677685D01*
X110612000Y-96992466D01*
X110401670Y-96677685D01*
X109915489Y-96352829D01*
X109342000Y-96238755D01*
X108768511Y-96352829D01*
X108667635Y-96420233D01*
X108195642Y-95948240D01*
X108661600Y-95948240D01*
X108896917Y-95903962D01*
X109113041Y-95764890D01*
X109258031Y-95552690D01*
X109277232Y-95457873D01*
X109435964Y-95635532D01*
X109963209Y-95889509D01*
X109978974Y-95892158D01*
X110211000Y-95771017D01*
X110211000Y-94411800D01*
X110191000Y-94411800D01*
X110191000Y-94157800D01*
X110211000Y-94157800D01*
X110211000Y-92798583D01*
X109978974Y-92677442D01*
X109963209Y-92680091D01*
X109435964Y-92934068D01*
X109279093Y-93109645D01*
X109264762Y-93033483D01*
X109125690Y-92817359D01*
X108913490Y-92672369D01*
X108661600Y-92621360D01*
X106934400Y-92621360D01*
X106699083Y-92665638D01*
X106482959Y-92804710D01*
X106337969Y-93016910D01*
X106286960Y-93268800D01*
X106286960Y-94039558D01*
X104505100Y-92257698D01*
X104505100Y-88599881D01*
X104515630Y-88610429D01*
X105028900Y-88823557D01*
X105584661Y-88824042D01*
X106098303Y-88611810D01*
X106491629Y-88219170D01*
X106704757Y-87705900D01*
X106705242Y-87150139D01*
X106493010Y-86636497D01*
X106100370Y-86243171D01*
X105908273Y-86163405D01*
X106039143Y-86109197D01*
X106108608Y-85867013D01*
X105308000Y-85066405D01*
X105293858Y-85080548D01*
X105114253Y-84900943D01*
X105128395Y-84886800D01*
X105114253Y-84872658D01*
X105293858Y-84693053D01*
X105308000Y-84707195D01*
X105322143Y-84693053D01*
X105501748Y-84872658D01*
X105501748Y-84872658D01*
G37*
X105501748Y-84872658D02*
X105487605Y-84886800D01*
X106288213Y-85687408D01*
X106530397Y-85617943D01*
X106717144Y-85094498D01*
X106712561Y-85002941D01*
X106913000Y-85203379D01*
X106913000Y-89069387D01*
X106699083Y-89109638D01*
X106482959Y-89248710D01*
X106337969Y-89460910D01*
X106286960Y-89712800D01*
X106286960Y-91744800D01*
X106331238Y-91980117D01*
X106470310Y-92196241D01*
X106682510Y-92341231D01*
X106934400Y-92392240D01*
X108661600Y-92392240D01*
X108896917Y-92347962D01*
X109113041Y-92208890D01*
X109258031Y-91996690D01*
X109266400Y-91955361D01*
X109278330Y-91973215D01*
X109764511Y-92298071D01*
X110338000Y-92412145D01*
X110848000Y-92310700D01*
X110848000Y-92745222D01*
X110712791Y-92680091D01*
X110697026Y-92677442D01*
X110465000Y-92798583D01*
X110465000Y-94157800D01*
X110485000Y-94157800D01*
X110485000Y-94411800D01*
X110465000Y-94411800D01*
X110465000Y-95771017D01*
X110697026Y-95892158D01*
X110712791Y-95889509D01*
X110848000Y-95824378D01*
X110848000Y-96306800D01*
X110905852Y-96597639D01*
X110917049Y-96614396D01*
X110822330Y-96677685D01*
X110612000Y-96992466D01*
X110401670Y-96677685D01*
X109915489Y-96352829D01*
X109342000Y-96238755D01*
X108768511Y-96352829D01*
X108667635Y-96420233D01*
X108195642Y-95948240D01*
X108661600Y-95948240D01*
X108896917Y-95903962D01*
X109113041Y-95764890D01*
X109258031Y-95552690D01*
X109277232Y-95457873D01*
X109435964Y-95635532D01*
X109963209Y-95889509D01*
X109978974Y-95892158D01*
X110211000Y-95771017D01*
X110211000Y-94411800D01*
X110191000Y-94411800D01*
X110191000Y-94157800D01*
X110211000Y-94157800D01*
X110211000Y-92798583D01*
X109978974Y-92677442D01*
X109963209Y-92680091D01*
X109435964Y-92934068D01*
X109279093Y-93109645D01*
X109264762Y-93033483D01*
X109125690Y-92817359D01*
X108913490Y-92672369D01*
X108661600Y-92621360D01*
X106934400Y-92621360D01*
X106699083Y-92665638D01*
X106482959Y-92804710D01*
X106337969Y-93016910D01*
X106286960Y-93268800D01*
X106286960Y-94039558D01*
X104505100Y-92257698D01*
X104505100Y-88599881D01*
X104515630Y-88610429D01*
X105028900Y-88823557D01*
X105584661Y-88824042D01*
X106098303Y-88611810D01*
X106491629Y-88219170D01*
X106704757Y-87705900D01*
X106705242Y-87150139D01*
X106493010Y-86636497D01*
X106100370Y-86243171D01*
X105908273Y-86163405D01*
X106039143Y-86109197D01*
X106108608Y-85867013D01*
X105308000Y-85066405D01*
X105293858Y-85080548D01*
X105114253Y-84900943D01*
X105128395Y-84886800D01*
X105114253Y-84872658D01*
X105293858Y-84693053D01*
X105308000Y-84707195D01*
X105322143Y-84693053D01*
X105501748Y-84872658D01*
G36*
X94122560Y-52086000D02*
X94122560Y-54086000D01*
X94166838Y-54321317D01*
X94305910Y-54537441D01*
X94518110Y-54682431D01*
X94770000Y-54733440D01*
X98270000Y-54733440D01*
X98505317Y-54689162D01*
X98721441Y-54550090D01*
X98866431Y-54337890D01*
X98917440Y-54086000D01*
X98917440Y-53507413D01*
X101205392Y-53507413D01*
X101274857Y-53749597D01*
X101398344Y-53793653D01*
X101274857Y-53844803D01*
X101205392Y-54086987D01*
X102006000Y-54887595D01*
X102806608Y-54086987D01*
X102737143Y-53844803D01*
X102613656Y-53800747D01*
X102737143Y-53749597D01*
X102806608Y-53507413D01*
X102006000Y-52706805D01*
X101205392Y-53507413D01*
X98917440Y-53507413D01*
X98917440Y-52086000D01*
X98892264Y-51952200D01*
X100727897Y-51952200D01*
X100596856Y-52319502D01*
X100624638Y-52874568D01*
X100783603Y-53258343D01*
X101025787Y-53327808D01*
X101826395Y-52527200D01*
X101812253Y-52513058D01*
X101991858Y-52333453D01*
X102006000Y-52347595D01*
X102020143Y-52333453D01*
X102199748Y-52513058D01*
X102185605Y-52527200D01*
X102986213Y-53327808D01*
X103228397Y-53258343D01*
X103415144Y-52734898D01*
X103387362Y-52179832D01*
X103293074Y-51952200D01*
X104140644Y-51952200D01*
X106511822Y-54323378D01*
X106708269Y-54454639D01*
X106496182Y-54772050D01*
X106419300Y-55158560D01*
X106419300Y-65509140D01*
X106496182Y-65895650D01*
X106715122Y-66223318D01*
X115385500Y-74893696D01*
X115385500Y-82410021D01*
X107076490Y-74101010D01*
X106897764Y-73981590D01*
X106789375Y-73909167D01*
X106733184Y-73897990D01*
X106450700Y-73841799D01*
X106450695Y-73841800D01*
X106398478Y-73841800D01*
X106100370Y-73543171D01*
X105892488Y-73456851D01*
X106098303Y-73371810D01*
X106491629Y-72979170D01*
X106704757Y-72465900D01*
X106705242Y-71910139D01*
X106493010Y-71396497D01*
X106100370Y-71003171D01*
X105908273Y-70923405D01*
X106039143Y-70869197D01*
X106108608Y-70627013D01*
X105308000Y-69826405D01*
X105293858Y-69840548D01*
X105114253Y-69660943D01*
X105128395Y-69646800D01*
X105487605Y-69646800D01*
X106288213Y-70447408D01*
X106530397Y-70377943D01*
X106717144Y-69854498D01*
X106689362Y-69299432D01*
X106530397Y-68915657D01*
X106288213Y-68846192D01*
X105487605Y-69646800D01*
X105128395Y-69646800D01*
X105114253Y-69632658D01*
X105293858Y-69453053D01*
X105308000Y-69467195D01*
X106108608Y-68666587D01*
X106039143Y-68424403D01*
X105515698Y-68237656D01*
X105171300Y-68254894D01*
X105171300Y-64384079D01*
X105249938Y-64194699D01*
X105250262Y-63822733D01*
X105108217Y-63478957D01*
X104845427Y-63215708D01*
X104501899Y-63073062D01*
X104129933Y-63072738D01*
X103786157Y-63214783D01*
X103522908Y-63477573D01*
X103380262Y-63821101D01*
X103379938Y-64193067D01*
X103521983Y-64536843D01*
X103543739Y-64558637D01*
X103095501Y-64110399D01*
X103078179Y-64098825D01*
X103189629Y-63987570D01*
X103402757Y-63474300D01*
X103403242Y-62918539D01*
X103191010Y-62404897D01*
X102798370Y-62011571D01*
X102285100Y-61798443D01*
X101729339Y-61797958D01*
X101672500Y-61821443D01*
X101672500Y-61182963D01*
X101704692Y-61150827D01*
X101847338Y-60807299D01*
X101847662Y-60435333D01*
X101705617Y-60091557D01*
X101442827Y-59828308D01*
X101099299Y-59685662D01*
X100727333Y-59685338D01*
X100383557Y-59827383D01*
X100120308Y-60090173D01*
X99977662Y-60433701D01*
X99977338Y-60805667D01*
X100119383Y-61149443D01*
X100152500Y-61182618D01*
X100152500Y-63690000D01*
X100210352Y-63980839D01*
X100375099Y-64227401D01*
X100956567Y-64808869D01*
X100822371Y-64942830D01*
X100609243Y-65456100D01*
X100609027Y-65703817D01*
X95262322Y-71050522D01*
X95043382Y-71378190D01*
X94966500Y-71764700D01*
X94966500Y-82264480D01*
X94778259Y-82385610D01*
X94633269Y-82597810D01*
X94582260Y-82849700D01*
X94582260Y-82854216D01*
X94431913Y-82811092D01*
X93631305Y-83611700D01*
X94431913Y-84412308D01*
X94582260Y-84369184D01*
X94582260Y-84373700D01*
X94626538Y-84609017D01*
X94765610Y-84825141D01*
X94977810Y-84970131D01*
X95229700Y-85021140D01*
X96753700Y-85021140D01*
X96989017Y-84976862D01*
X97205141Y-84837790D01*
X97350131Y-84625590D01*
X97401140Y-84373700D01*
X97401140Y-82849700D01*
X97356862Y-82614383D01*
X97217790Y-82398259D01*
X97005590Y-82253269D01*
X96986500Y-82249403D01*
X96986500Y-72183056D01*
X99259230Y-69910326D01*
X99259158Y-69992661D01*
X99471390Y-70506303D01*
X99864030Y-70899629D01*
X100023628Y-70965900D01*
X99866097Y-71030990D01*
X99472771Y-71423630D01*
X99259643Y-71936900D01*
X99259158Y-72492661D01*
X99471390Y-73006303D01*
X99864030Y-73399629D01*
X100023628Y-73465900D01*
X99866097Y-73530990D01*
X99472771Y-73923630D01*
X99259643Y-74436900D01*
X99259158Y-74992661D01*
X99471390Y-75506303D01*
X99864030Y-75899629D01*
X100023628Y-75965900D01*
X99866097Y-76030990D01*
X99472771Y-76423630D01*
X99259643Y-76936900D01*
X99259158Y-77492661D01*
X99272426Y-77524772D01*
X99000499Y-77796699D01*
X98835752Y-78043261D01*
X98777900Y-78334100D01*
X98777900Y-89080008D01*
X98348800Y-88994655D01*
X97988669Y-89066290D01*
X93881357Y-84958977D01*
X94182843Y-84834097D01*
X94252308Y-84591913D01*
X93451700Y-83791305D01*
X93437558Y-83805448D01*
X93257953Y-83625843D01*
X93272095Y-83611700D01*
X93257953Y-83597558D01*
X93437558Y-83417953D01*
X93451700Y-83432095D01*
X94252308Y-82631487D01*
X94182843Y-82389303D01*
X93659398Y-82202556D01*
X93104332Y-82230338D01*
X92796400Y-82357888D01*
X92796400Y-78551005D01*
X92796401Y-78551000D01*
X92729034Y-78212326D01*
X92643579Y-78084433D01*
X92537190Y-77925210D01*
X92537187Y-77925208D01*
X89433274Y-74821294D01*
X89433642Y-74399339D01*
X89221410Y-73885697D01*
X88828770Y-73492371D01*
X88620888Y-73406051D01*
X88826703Y-73321010D01*
X89220029Y-72928370D01*
X89433157Y-72415100D01*
X89433642Y-71859339D01*
X89221410Y-71345697D01*
X88828770Y-70952371D01*
X88636673Y-70872605D01*
X88767543Y-70818397D01*
X88837008Y-70576213D01*
X88036400Y-69775605D01*
X87235792Y-70576213D01*
X87305257Y-70818397D01*
X87445718Y-70868509D01*
X87246097Y-70950990D01*
X86852771Y-71343630D01*
X86639643Y-71856900D01*
X86639158Y-72412661D01*
X86851390Y-72926303D01*
X87244030Y-73319629D01*
X87451912Y-73405949D01*
X87246097Y-73490990D01*
X86852771Y-73883630D01*
X86639643Y-74396900D01*
X86639158Y-74952661D01*
X86851390Y-75466303D01*
X87244030Y-75859629D01*
X87451912Y-75945949D01*
X87246097Y-76030990D01*
X86852771Y-76423630D01*
X86639643Y-76936900D01*
X86639158Y-77492661D01*
X86851390Y-78006303D01*
X87244030Y-78399629D01*
X87451912Y-78485949D01*
X87246097Y-78570990D01*
X86852771Y-78963630D01*
X86639643Y-79476900D01*
X86639158Y-80032661D01*
X86851390Y-80546303D01*
X87244030Y-80939629D01*
X87451912Y-81025949D01*
X87246097Y-81110990D01*
X86852771Y-81503630D01*
X86639643Y-82016900D01*
X86639158Y-82572661D01*
X86851390Y-83086303D01*
X87244030Y-83479629D01*
X87436127Y-83559395D01*
X87305257Y-83613603D01*
X87235792Y-83855787D01*
X88036400Y-84656395D01*
X88050543Y-84642253D01*
X88230148Y-84821858D01*
X88216005Y-84836000D01*
X88975383Y-85595378D01*
X88992867Y-85683275D01*
X89137429Y-85899629D01*
X89184710Y-85970390D01*
X89843800Y-86629479D01*
X89843800Y-89018587D01*
X89629883Y-89058838D01*
X89413759Y-89197910D01*
X89268769Y-89410110D01*
X89217760Y-89662000D01*
X89217760Y-91694000D01*
X89262038Y-91929317D01*
X89401110Y-92145441D01*
X89613310Y-92290431D01*
X89865200Y-92341440D01*
X91592400Y-92341440D01*
X91827717Y-92297162D01*
X92043841Y-92158090D01*
X92188831Y-91945890D01*
X92197200Y-91904561D01*
X92209130Y-91922415D01*
X92695311Y-92247271D01*
X93268800Y-92361345D01*
X93842289Y-92247271D01*
X94328470Y-91922415D01*
X94538800Y-91607634D01*
X94749130Y-91922415D01*
X95157648Y-92195378D01*
X95091914Y-92208454D01*
X95043660Y-92218052D01*
X94797099Y-92382799D01*
X94206223Y-92973675D01*
X94170836Y-92934068D01*
X93643591Y-92680091D01*
X93627826Y-92677442D01*
X93395800Y-92798583D01*
X93395800Y-94157800D01*
X93415800Y-94157800D01*
X93415800Y-94411800D01*
X93395800Y-94411800D01*
X93395800Y-94431800D01*
X93141800Y-94431800D01*
X93141800Y-94411800D01*
X93121800Y-94411800D01*
X93121800Y-94157800D01*
X93141800Y-94157800D01*
X93141800Y-92798583D01*
X92909774Y-92677442D01*
X92894009Y-92680091D01*
X92366764Y-92934068D01*
X92209893Y-93109645D01*
X92195562Y-93033483D01*
X92056490Y-92817359D01*
X91844290Y-92672369D01*
X91592400Y-92621360D01*
X89865200Y-92621360D01*
X89629883Y-92665638D01*
X89413759Y-92804710D01*
X89268769Y-93016910D01*
X89217760Y-93268800D01*
X89217760Y-95300800D01*
X89262038Y-95536117D01*
X89401110Y-95752241D01*
X89613310Y-95897231D01*
X89865200Y-95948240D01*
X91592400Y-95948240D01*
X91827717Y-95903962D01*
X91897230Y-95859232D01*
X92237299Y-96199301D01*
X92443626Y-96337164D01*
X92390511Y-96347729D01*
X91904330Y-96672585D01*
X91694000Y-96987366D01*
X91483670Y-96672585D01*
X90997489Y-96347729D01*
X90424000Y-96233655D01*
X89850511Y-96347729D01*
X89364330Y-96672585D01*
X89154000Y-96987366D01*
X88943670Y-96672585D01*
X88457489Y-96347729D01*
X87884000Y-96233655D01*
X87310511Y-96347729D01*
X86824330Y-96672585D01*
X86814757Y-96686913D01*
X86810762Y-96665683D01*
X86671690Y-96449559D01*
X86459490Y-96304569D01*
X86207600Y-96253560D01*
X86025234Y-96253560D01*
X85881401Y-96038299D01*
X84122200Y-94279098D01*
X84122200Y-87652661D01*
X86639158Y-87652661D01*
X86851390Y-88166303D01*
X87244030Y-88559629D01*
X87757300Y-88772757D01*
X88313061Y-88773242D01*
X88826703Y-88561010D01*
X89220029Y-88168370D01*
X89433157Y-87655100D01*
X89433642Y-87099339D01*
X89221410Y-86585697D01*
X88828770Y-86192371D01*
X88636673Y-86112605D01*
X88767543Y-86058397D01*
X88837008Y-85816213D01*
X88036400Y-85015605D01*
X87235792Y-85816213D01*
X87305257Y-86058397D01*
X87445718Y-86108509D01*
X87246097Y-86190990D01*
X86852771Y-86583630D01*
X86639643Y-87096900D01*
X86639158Y-87652661D01*
X84122200Y-87652661D01*
X84122200Y-86403712D01*
X84247302Y-86448344D01*
X84802368Y-86420562D01*
X85186143Y-86261597D01*
X85255608Y-86019413D01*
X84455000Y-85218805D01*
X84440858Y-85232948D01*
X84261253Y-85053343D01*
X84275395Y-85039200D01*
X84634605Y-85039200D01*
X85435213Y-85839808D01*
X85677397Y-85770343D01*
X85864144Y-85246898D01*
X85836362Y-84691832D01*
X85810047Y-84628302D01*
X86627256Y-84628302D01*
X86655038Y-85183368D01*
X86814003Y-85567143D01*
X87056187Y-85636608D01*
X87856795Y-84836000D01*
X87056187Y-84035392D01*
X86814003Y-84104857D01*
X86627256Y-84628302D01*
X85810047Y-84628302D01*
X85677397Y-84308057D01*
X85435213Y-84238592D01*
X84634605Y-85039200D01*
X84275395Y-85039200D01*
X84261253Y-85025058D01*
X84440858Y-84845453D01*
X84455000Y-84859595D01*
X85255608Y-84058987D01*
X85186143Y-83816803D01*
X84662698Y-83630056D01*
X84122200Y-83657109D01*
X84122200Y-83371478D01*
X84395201Y-83484838D01*
X84767167Y-83485162D01*
X85110943Y-83343117D01*
X85374192Y-83080327D01*
X85516838Y-82736799D01*
X85517162Y-82364833D01*
X85375117Y-82021057D01*
X85342000Y-81987882D01*
X85342000Y-70926802D01*
X86639327Y-69629475D01*
X86655038Y-69943368D01*
X86814003Y-70327143D01*
X87056187Y-70396608D01*
X87856795Y-69596000D01*
X88216005Y-69596000D01*
X89016613Y-70396608D01*
X89258797Y-70327143D01*
X89445544Y-69803698D01*
X89417762Y-69248632D01*
X89258797Y-68864857D01*
X89016613Y-68795392D01*
X88216005Y-69596000D01*
X87856795Y-69596000D01*
X87842653Y-69581858D01*
X88022258Y-69402253D01*
X88036400Y-69416395D01*
X88837008Y-68615787D01*
X88767543Y-68373603D01*
X88244098Y-68186856D01*
X88073402Y-68195400D01*
X88895306Y-67373496D01*
X89164086Y-67373731D01*
X89449725Y-67255708D01*
X89467852Y-67346839D01*
X89632599Y-67593401D01*
X90945463Y-68906265D01*
X91003383Y-69046443D01*
X91266173Y-69309692D01*
X91609701Y-69452338D01*
X91981667Y-69452662D01*
X92325443Y-69310617D01*
X92588692Y-69047827D01*
X92731338Y-68704299D01*
X92731662Y-68332333D01*
X92589617Y-67988557D01*
X92326827Y-67725308D01*
X91983299Y-67582662D01*
X91771279Y-67582477D01*
X91562409Y-67373607D01*
X91704086Y-67373731D01*
X92194380Y-67171146D01*
X92569827Y-66796353D01*
X92773268Y-66306413D01*
X92773731Y-65775914D01*
X92571146Y-65285620D01*
X92200000Y-64913826D01*
X92200000Y-64278000D01*
X94122560Y-64278000D01*
X94122560Y-66278000D01*
X94166838Y-66513317D01*
X94305910Y-66729441D01*
X94518110Y-66874431D01*
X94770000Y-66925440D01*
X98270000Y-66925440D01*
X98505317Y-66881162D01*
X98721441Y-66742090D01*
X98866431Y-66529890D01*
X98917440Y-66278000D01*
X98917440Y-64278000D01*
X98873162Y-64042683D01*
X98734090Y-63826559D01*
X98521890Y-63681569D01*
X98270000Y-63630560D01*
X94770000Y-63630560D01*
X94534683Y-63674838D01*
X94318559Y-63813910D01*
X94173569Y-64026110D01*
X94122560Y-64278000D01*
X92200000Y-64278000D01*
X92200000Y-62506661D01*
X95122758Y-62506661D01*
X95334990Y-63020303D01*
X95727630Y-63413629D01*
X96240900Y-63626757D01*
X96796661Y-63627242D01*
X97310303Y-63415010D01*
X97703629Y-63022370D01*
X97916757Y-62509100D01*
X97917242Y-61953339D01*
X97705010Y-61439697D01*
X97312370Y-61046371D01*
X96799100Y-60833243D01*
X96243339Y-60832758D01*
X95729697Y-61044990D01*
X95336371Y-61437630D01*
X95123243Y-61950900D01*
X95122758Y-62506661D01*
X92200000Y-62506661D01*
X92200000Y-60706000D01*
X92181302Y-60612000D01*
X92142148Y-60415160D01*
X91977401Y-60168599D01*
X91267463Y-59458661D01*
X95122758Y-59458661D01*
X95334990Y-59972303D01*
X95727630Y-60365629D01*
X96240900Y-60578757D01*
X96796661Y-60579242D01*
X97310303Y-60367010D01*
X97703629Y-59974370D01*
X97916757Y-59461100D01*
X97917242Y-58905339D01*
X97705010Y-58391697D01*
X97312370Y-57998371D01*
X96799100Y-57785243D01*
X96243339Y-57784758D01*
X95729697Y-57996990D01*
X95336371Y-58389630D01*
X95123243Y-58902900D01*
X95122758Y-59458661D01*
X91267463Y-59458661D01*
X91254702Y-59445900D01*
X92278200Y-59445900D01*
X92513517Y-59401622D01*
X92729641Y-59262550D01*
X92874631Y-59050350D01*
X92925640Y-58798460D01*
X92925640Y-56410661D01*
X95122758Y-56410661D01*
X95334990Y-56924303D01*
X95727630Y-57317629D01*
X96240900Y-57530757D01*
X96796661Y-57531242D01*
X97310303Y-57319010D01*
X97703629Y-56926370D01*
X97916757Y-56413100D01*
X97917076Y-56047413D01*
X101205392Y-56047413D01*
X101274857Y-56289597D01*
X101798302Y-56476344D01*
X102353368Y-56448562D01*
X102737143Y-56289597D01*
X102806608Y-56047413D01*
X102006000Y-55246805D01*
X101205392Y-56047413D01*
X97917076Y-56047413D01*
X97917242Y-55857339D01*
X97705010Y-55343697D01*
X97312370Y-54950371D01*
X97093533Y-54859502D01*
X100596856Y-54859502D01*
X100624638Y-55414568D01*
X100783603Y-55798343D01*
X101025787Y-55867808D01*
X101826395Y-55067200D01*
X102185605Y-55067200D01*
X102986213Y-55867808D01*
X103228397Y-55798343D01*
X103415144Y-55274898D01*
X103387362Y-54719832D01*
X103228397Y-54336057D01*
X102986213Y-54266592D01*
X102185605Y-55067200D01*
X101826395Y-55067200D01*
X101025787Y-54266592D01*
X100783603Y-54336057D01*
X100596856Y-54859502D01*
X97093533Y-54859502D01*
X96799100Y-54737243D01*
X96243339Y-54736758D01*
X95729697Y-54948990D01*
X95336371Y-55341630D01*
X95123243Y-55854900D01*
X95122758Y-56410661D01*
X92925640Y-56410661D01*
X92925640Y-55298340D01*
X92881362Y-55063023D01*
X92742290Y-54846899D01*
X92530090Y-54701909D01*
X92278200Y-54650900D01*
X88898000Y-54650900D01*
X88898000Y-54162802D01*
X90055680Y-53005122D01*
X90101167Y-53005162D01*
X90444943Y-52863117D01*
X90708192Y-52600327D01*
X90850838Y-52256799D01*
X90851103Y-51952200D01*
X94149655Y-51952200D01*
X94122560Y-52086000D01*
X94122560Y-52086000D01*
G37*
X94122560Y-52086000D02*
X94122560Y-54086000D01*
X94166838Y-54321317D01*
X94305910Y-54537441D01*
X94518110Y-54682431D01*
X94770000Y-54733440D01*
X98270000Y-54733440D01*
X98505317Y-54689162D01*
X98721441Y-54550090D01*
X98866431Y-54337890D01*
X98917440Y-54086000D01*
X98917440Y-53507413D01*
X101205392Y-53507413D01*
X101274857Y-53749597D01*
X101398344Y-53793653D01*
X101274857Y-53844803D01*
X101205392Y-54086987D01*
X102006000Y-54887595D01*
X102806608Y-54086987D01*
X102737143Y-53844803D01*
X102613656Y-53800747D01*
X102737143Y-53749597D01*
X102806608Y-53507413D01*
X102006000Y-52706805D01*
X101205392Y-53507413D01*
X98917440Y-53507413D01*
X98917440Y-52086000D01*
X98892264Y-51952200D01*
X100727897Y-51952200D01*
X100596856Y-52319502D01*
X100624638Y-52874568D01*
X100783603Y-53258343D01*
X101025787Y-53327808D01*
X101826395Y-52527200D01*
X101812253Y-52513058D01*
X101991858Y-52333453D01*
X102006000Y-52347595D01*
X102020143Y-52333453D01*
X102199748Y-52513058D01*
X102185605Y-52527200D01*
X102986213Y-53327808D01*
X103228397Y-53258343D01*
X103415144Y-52734898D01*
X103387362Y-52179832D01*
X103293074Y-51952200D01*
X104140644Y-51952200D01*
X106511822Y-54323378D01*
X106708269Y-54454639D01*
X106496182Y-54772050D01*
X106419300Y-55158560D01*
X106419300Y-65509140D01*
X106496182Y-65895650D01*
X106715122Y-66223318D01*
X115385500Y-74893696D01*
X115385500Y-82410021D01*
X107076490Y-74101010D01*
X106897764Y-73981590D01*
X106789375Y-73909167D01*
X106733184Y-73897990D01*
X106450700Y-73841799D01*
X106450695Y-73841800D01*
X106398478Y-73841800D01*
X106100370Y-73543171D01*
X105892488Y-73456851D01*
X106098303Y-73371810D01*
X106491629Y-72979170D01*
X106704757Y-72465900D01*
X106705242Y-71910139D01*
X106493010Y-71396497D01*
X106100370Y-71003171D01*
X105908273Y-70923405D01*
X106039143Y-70869197D01*
X106108608Y-70627013D01*
X105308000Y-69826405D01*
X105293858Y-69840548D01*
X105114253Y-69660943D01*
X105128395Y-69646800D01*
X105487605Y-69646800D01*
X106288213Y-70447408D01*
X106530397Y-70377943D01*
X106717144Y-69854498D01*
X106689362Y-69299432D01*
X106530397Y-68915657D01*
X106288213Y-68846192D01*
X105487605Y-69646800D01*
X105128395Y-69646800D01*
X105114253Y-69632658D01*
X105293858Y-69453053D01*
X105308000Y-69467195D01*
X106108608Y-68666587D01*
X106039143Y-68424403D01*
X105515698Y-68237656D01*
X105171300Y-68254894D01*
X105171300Y-64384079D01*
X105249938Y-64194699D01*
X105250262Y-63822733D01*
X105108217Y-63478957D01*
X104845427Y-63215708D01*
X104501899Y-63073062D01*
X104129933Y-63072738D01*
X103786157Y-63214783D01*
X103522908Y-63477573D01*
X103380262Y-63821101D01*
X103379938Y-64193067D01*
X103521983Y-64536843D01*
X103543739Y-64558637D01*
X103095501Y-64110399D01*
X103078179Y-64098825D01*
X103189629Y-63987570D01*
X103402757Y-63474300D01*
X103403242Y-62918539D01*
X103191010Y-62404897D01*
X102798370Y-62011571D01*
X102285100Y-61798443D01*
X101729339Y-61797958D01*
X101672500Y-61821443D01*
X101672500Y-61182963D01*
X101704692Y-61150827D01*
X101847338Y-60807299D01*
X101847662Y-60435333D01*
X101705617Y-60091557D01*
X101442827Y-59828308D01*
X101099299Y-59685662D01*
X100727333Y-59685338D01*
X100383557Y-59827383D01*
X100120308Y-60090173D01*
X99977662Y-60433701D01*
X99977338Y-60805667D01*
X100119383Y-61149443D01*
X100152500Y-61182618D01*
X100152500Y-63690000D01*
X100210352Y-63980839D01*
X100375099Y-64227401D01*
X100956567Y-64808869D01*
X100822371Y-64942830D01*
X100609243Y-65456100D01*
X100609027Y-65703817D01*
X95262322Y-71050522D01*
X95043382Y-71378190D01*
X94966500Y-71764700D01*
X94966500Y-82264480D01*
X94778259Y-82385610D01*
X94633269Y-82597810D01*
X94582260Y-82849700D01*
X94582260Y-82854216D01*
X94431913Y-82811092D01*
X93631305Y-83611700D01*
X94431913Y-84412308D01*
X94582260Y-84369184D01*
X94582260Y-84373700D01*
X94626538Y-84609017D01*
X94765610Y-84825141D01*
X94977810Y-84970131D01*
X95229700Y-85021140D01*
X96753700Y-85021140D01*
X96989017Y-84976862D01*
X97205141Y-84837790D01*
X97350131Y-84625590D01*
X97401140Y-84373700D01*
X97401140Y-82849700D01*
X97356862Y-82614383D01*
X97217790Y-82398259D01*
X97005590Y-82253269D01*
X96986500Y-82249403D01*
X96986500Y-72183056D01*
X99259230Y-69910326D01*
X99259158Y-69992661D01*
X99471390Y-70506303D01*
X99864030Y-70899629D01*
X100023628Y-70965900D01*
X99866097Y-71030990D01*
X99472771Y-71423630D01*
X99259643Y-71936900D01*
X99259158Y-72492661D01*
X99471390Y-73006303D01*
X99864030Y-73399629D01*
X100023628Y-73465900D01*
X99866097Y-73530990D01*
X99472771Y-73923630D01*
X99259643Y-74436900D01*
X99259158Y-74992661D01*
X99471390Y-75506303D01*
X99864030Y-75899629D01*
X100023628Y-75965900D01*
X99866097Y-76030990D01*
X99472771Y-76423630D01*
X99259643Y-76936900D01*
X99259158Y-77492661D01*
X99272426Y-77524772D01*
X99000499Y-77796699D01*
X98835752Y-78043261D01*
X98777900Y-78334100D01*
X98777900Y-89080008D01*
X98348800Y-88994655D01*
X97988669Y-89066290D01*
X93881357Y-84958977D01*
X94182843Y-84834097D01*
X94252308Y-84591913D01*
X93451700Y-83791305D01*
X93437558Y-83805448D01*
X93257953Y-83625843D01*
X93272095Y-83611700D01*
X93257953Y-83597558D01*
X93437558Y-83417953D01*
X93451700Y-83432095D01*
X94252308Y-82631487D01*
X94182843Y-82389303D01*
X93659398Y-82202556D01*
X93104332Y-82230338D01*
X92796400Y-82357888D01*
X92796400Y-78551005D01*
X92796401Y-78551000D01*
X92729034Y-78212326D01*
X92643579Y-78084433D01*
X92537190Y-77925210D01*
X92537187Y-77925208D01*
X89433274Y-74821294D01*
X89433642Y-74399339D01*
X89221410Y-73885697D01*
X88828770Y-73492371D01*
X88620888Y-73406051D01*
X88826703Y-73321010D01*
X89220029Y-72928370D01*
X89433157Y-72415100D01*
X89433642Y-71859339D01*
X89221410Y-71345697D01*
X88828770Y-70952371D01*
X88636673Y-70872605D01*
X88767543Y-70818397D01*
X88837008Y-70576213D01*
X88036400Y-69775605D01*
X87235792Y-70576213D01*
X87305257Y-70818397D01*
X87445718Y-70868509D01*
X87246097Y-70950990D01*
X86852771Y-71343630D01*
X86639643Y-71856900D01*
X86639158Y-72412661D01*
X86851390Y-72926303D01*
X87244030Y-73319629D01*
X87451912Y-73405949D01*
X87246097Y-73490990D01*
X86852771Y-73883630D01*
X86639643Y-74396900D01*
X86639158Y-74952661D01*
X86851390Y-75466303D01*
X87244030Y-75859629D01*
X87451912Y-75945949D01*
X87246097Y-76030990D01*
X86852771Y-76423630D01*
X86639643Y-76936900D01*
X86639158Y-77492661D01*
X86851390Y-78006303D01*
X87244030Y-78399629D01*
X87451912Y-78485949D01*
X87246097Y-78570990D01*
X86852771Y-78963630D01*
X86639643Y-79476900D01*
X86639158Y-80032661D01*
X86851390Y-80546303D01*
X87244030Y-80939629D01*
X87451912Y-81025949D01*
X87246097Y-81110990D01*
X86852771Y-81503630D01*
X86639643Y-82016900D01*
X86639158Y-82572661D01*
X86851390Y-83086303D01*
X87244030Y-83479629D01*
X87436127Y-83559395D01*
X87305257Y-83613603D01*
X87235792Y-83855787D01*
X88036400Y-84656395D01*
X88050543Y-84642253D01*
X88230148Y-84821858D01*
X88216005Y-84836000D01*
X88975383Y-85595378D01*
X88992867Y-85683275D01*
X89137429Y-85899629D01*
X89184710Y-85970390D01*
X89843800Y-86629479D01*
X89843800Y-89018587D01*
X89629883Y-89058838D01*
X89413759Y-89197910D01*
X89268769Y-89410110D01*
X89217760Y-89662000D01*
X89217760Y-91694000D01*
X89262038Y-91929317D01*
X89401110Y-92145441D01*
X89613310Y-92290431D01*
X89865200Y-92341440D01*
X91592400Y-92341440D01*
X91827717Y-92297162D01*
X92043841Y-92158090D01*
X92188831Y-91945890D01*
X92197200Y-91904561D01*
X92209130Y-91922415D01*
X92695311Y-92247271D01*
X93268800Y-92361345D01*
X93842289Y-92247271D01*
X94328470Y-91922415D01*
X94538800Y-91607634D01*
X94749130Y-91922415D01*
X95157648Y-92195378D01*
X95091914Y-92208454D01*
X95043660Y-92218052D01*
X94797099Y-92382799D01*
X94206223Y-92973675D01*
X94170836Y-92934068D01*
X93643591Y-92680091D01*
X93627826Y-92677442D01*
X93395800Y-92798583D01*
X93395800Y-94157800D01*
X93415800Y-94157800D01*
X93415800Y-94411800D01*
X93395800Y-94411800D01*
X93395800Y-94431800D01*
X93141800Y-94431800D01*
X93141800Y-94411800D01*
X93121800Y-94411800D01*
X93121800Y-94157800D01*
X93141800Y-94157800D01*
X93141800Y-92798583D01*
X92909774Y-92677442D01*
X92894009Y-92680091D01*
X92366764Y-92934068D01*
X92209893Y-93109645D01*
X92195562Y-93033483D01*
X92056490Y-92817359D01*
X91844290Y-92672369D01*
X91592400Y-92621360D01*
X89865200Y-92621360D01*
X89629883Y-92665638D01*
X89413759Y-92804710D01*
X89268769Y-93016910D01*
X89217760Y-93268800D01*
X89217760Y-95300800D01*
X89262038Y-95536117D01*
X89401110Y-95752241D01*
X89613310Y-95897231D01*
X89865200Y-95948240D01*
X91592400Y-95948240D01*
X91827717Y-95903962D01*
X91897230Y-95859232D01*
X92237299Y-96199301D01*
X92443626Y-96337164D01*
X92390511Y-96347729D01*
X91904330Y-96672585D01*
X91694000Y-96987366D01*
X91483670Y-96672585D01*
X90997489Y-96347729D01*
X90424000Y-96233655D01*
X89850511Y-96347729D01*
X89364330Y-96672585D01*
X89154000Y-96987366D01*
X88943670Y-96672585D01*
X88457489Y-96347729D01*
X87884000Y-96233655D01*
X87310511Y-96347729D01*
X86824330Y-96672585D01*
X86814757Y-96686913D01*
X86810762Y-96665683D01*
X86671690Y-96449559D01*
X86459490Y-96304569D01*
X86207600Y-96253560D01*
X86025234Y-96253560D01*
X85881401Y-96038299D01*
X84122200Y-94279098D01*
X84122200Y-87652661D01*
X86639158Y-87652661D01*
X86851390Y-88166303D01*
X87244030Y-88559629D01*
X87757300Y-88772757D01*
X88313061Y-88773242D01*
X88826703Y-88561010D01*
X89220029Y-88168370D01*
X89433157Y-87655100D01*
X89433642Y-87099339D01*
X89221410Y-86585697D01*
X88828770Y-86192371D01*
X88636673Y-86112605D01*
X88767543Y-86058397D01*
X88837008Y-85816213D01*
X88036400Y-85015605D01*
X87235792Y-85816213D01*
X87305257Y-86058397D01*
X87445718Y-86108509D01*
X87246097Y-86190990D01*
X86852771Y-86583630D01*
X86639643Y-87096900D01*
X86639158Y-87652661D01*
X84122200Y-87652661D01*
X84122200Y-86403712D01*
X84247302Y-86448344D01*
X84802368Y-86420562D01*
X85186143Y-86261597D01*
X85255608Y-86019413D01*
X84455000Y-85218805D01*
X84440858Y-85232948D01*
X84261253Y-85053343D01*
X84275395Y-85039200D01*
X84634605Y-85039200D01*
X85435213Y-85839808D01*
X85677397Y-85770343D01*
X85864144Y-85246898D01*
X85836362Y-84691832D01*
X85810047Y-84628302D01*
X86627256Y-84628302D01*
X86655038Y-85183368D01*
X86814003Y-85567143D01*
X87056187Y-85636608D01*
X87856795Y-84836000D01*
X87056187Y-84035392D01*
X86814003Y-84104857D01*
X86627256Y-84628302D01*
X85810047Y-84628302D01*
X85677397Y-84308057D01*
X85435213Y-84238592D01*
X84634605Y-85039200D01*
X84275395Y-85039200D01*
X84261253Y-85025058D01*
X84440858Y-84845453D01*
X84455000Y-84859595D01*
X85255608Y-84058987D01*
X85186143Y-83816803D01*
X84662698Y-83630056D01*
X84122200Y-83657109D01*
X84122200Y-83371478D01*
X84395201Y-83484838D01*
X84767167Y-83485162D01*
X85110943Y-83343117D01*
X85374192Y-83080327D01*
X85516838Y-82736799D01*
X85517162Y-82364833D01*
X85375117Y-82021057D01*
X85342000Y-81987882D01*
X85342000Y-70926802D01*
X86639327Y-69629475D01*
X86655038Y-69943368D01*
X86814003Y-70327143D01*
X87056187Y-70396608D01*
X87856795Y-69596000D01*
X88216005Y-69596000D01*
X89016613Y-70396608D01*
X89258797Y-70327143D01*
X89445544Y-69803698D01*
X89417762Y-69248632D01*
X89258797Y-68864857D01*
X89016613Y-68795392D01*
X88216005Y-69596000D01*
X87856795Y-69596000D01*
X87842653Y-69581858D01*
X88022258Y-69402253D01*
X88036400Y-69416395D01*
X88837008Y-68615787D01*
X88767543Y-68373603D01*
X88244098Y-68186856D01*
X88073402Y-68195400D01*
X88895306Y-67373496D01*
X89164086Y-67373731D01*
X89449725Y-67255708D01*
X89467852Y-67346839D01*
X89632599Y-67593401D01*
X90945463Y-68906265D01*
X91003383Y-69046443D01*
X91266173Y-69309692D01*
X91609701Y-69452338D01*
X91981667Y-69452662D01*
X92325443Y-69310617D01*
X92588692Y-69047827D01*
X92731338Y-68704299D01*
X92731662Y-68332333D01*
X92589617Y-67988557D01*
X92326827Y-67725308D01*
X91983299Y-67582662D01*
X91771279Y-67582477D01*
X91562409Y-67373607D01*
X91704086Y-67373731D01*
X92194380Y-67171146D01*
X92569827Y-66796353D01*
X92773268Y-66306413D01*
X92773731Y-65775914D01*
X92571146Y-65285620D01*
X92200000Y-64913826D01*
X92200000Y-64278000D01*
X94122560Y-64278000D01*
X94122560Y-66278000D01*
X94166838Y-66513317D01*
X94305910Y-66729441D01*
X94518110Y-66874431D01*
X94770000Y-66925440D01*
X98270000Y-66925440D01*
X98505317Y-66881162D01*
X98721441Y-66742090D01*
X98866431Y-66529890D01*
X98917440Y-66278000D01*
X98917440Y-64278000D01*
X98873162Y-64042683D01*
X98734090Y-63826559D01*
X98521890Y-63681569D01*
X98270000Y-63630560D01*
X94770000Y-63630560D01*
X94534683Y-63674838D01*
X94318559Y-63813910D01*
X94173569Y-64026110D01*
X94122560Y-64278000D01*
X92200000Y-64278000D01*
X92200000Y-62506661D01*
X95122758Y-62506661D01*
X95334990Y-63020303D01*
X95727630Y-63413629D01*
X96240900Y-63626757D01*
X96796661Y-63627242D01*
X97310303Y-63415010D01*
X97703629Y-63022370D01*
X97916757Y-62509100D01*
X97917242Y-61953339D01*
X97705010Y-61439697D01*
X97312370Y-61046371D01*
X96799100Y-60833243D01*
X96243339Y-60832758D01*
X95729697Y-61044990D01*
X95336371Y-61437630D01*
X95123243Y-61950900D01*
X95122758Y-62506661D01*
X92200000Y-62506661D01*
X92200000Y-60706000D01*
X92181302Y-60612000D01*
X92142148Y-60415160D01*
X91977401Y-60168599D01*
X91267463Y-59458661D01*
X95122758Y-59458661D01*
X95334990Y-59972303D01*
X95727630Y-60365629D01*
X96240900Y-60578757D01*
X96796661Y-60579242D01*
X97310303Y-60367010D01*
X97703629Y-59974370D01*
X97916757Y-59461100D01*
X97917242Y-58905339D01*
X97705010Y-58391697D01*
X97312370Y-57998371D01*
X96799100Y-57785243D01*
X96243339Y-57784758D01*
X95729697Y-57996990D01*
X95336371Y-58389630D01*
X95123243Y-58902900D01*
X95122758Y-59458661D01*
X91267463Y-59458661D01*
X91254702Y-59445900D01*
X92278200Y-59445900D01*
X92513517Y-59401622D01*
X92729641Y-59262550D01*
X92874631Y-59050350D01*
X92925640Y-58798460D01*
X92925640Y-56410661D01*
X95122758Y-56410661D01*
X95334990Y-56924303D01*
X95727630Y-57317629D01*
X96240900Y-57530757D01*
X96796661Y-57531242D01*
X97310303Y-57319010D01*
X97703629Y-56926370D01*
X97916757Y-56413100D01*
X97917076Y-56047413D01*
X101205392Y-56047413D01*
X101274857Y-56289597D01*
X101798302Y-56476344D01*
X102353368Y-56448562D01*
X102737143Y-56289597D01*
X102806608Y-56047413D01*
X102006000Y-55246805D01*
X101205392Y-56047413D01*
X97917076Y-56047413D01*
X97917242Y-55857339D01*
X97705010Y-55343697D01*
X97312370Y-54950371D01*
X97093533Y-54859502D01*
X100596856Y-54859502D01*
X100624638Y-55414568D01*
X100783603Y-55798343D01*
X101025787Y-55867808D01*
X101826395Y-55067200D01*
X102185605Y-55067200D01*
X102986213Y-55867808D01*
X103228397Y-55798343D01*
X103415144Y-55274898D01*
X103387362Y-54719832D01*
X103228397Y-54336057D01*
X102986213Y-54266592D01*
X102185605Y-55067200D01*
X101826395Y-55067200D01*
X101025787Y-54266592D01*
X100783603Y-54336057D01*
X100596856Y-54859502D01*
X97093533Y-54859502D01*
X96799100Y-54737243D01*
X96243339Y-54736758D01*
X95729697Y-54948990D01*
X95336371Y-55341630D01*
X95123243Y-55854900D01*
X95122758Y-56410661D01*
X92925640Y-56410661D01*
X92925640Y-55298340D01*
X92881362Y-55063023D01*
X92742290Y-54846899D01*
X92530090Y-54701909D01*
X92278200Y-54650900D01*
X88898000Y-54650900D01*
X88898000Y-54162802D01*
X90055680Y-53005122D01*
X90101167Y-53005162D01*
X90444943Y-52863117D01*
X90708192Y-52600327D01*
X90850838Y-52256799D01*
X90851103Y-51952200D01*
X94149655Y-51952200D01*
X94122560Y-52086000D01*
G36*
X97289130Y-95529215D02*
X97775311Y-95854071D01*
X98348800Y-95968145D01*
X98922289Y-95854071D01*
X99408470Y-95529215D01*
X99528170Y-95350072D01*
X100456998Y-96278900D01*
X100456998Y-96430782D01*
X100224974Y-96309642D01*
X100209209Y-96312291D01*
X99681964Y-96566268D01*
X99310461Y-96982069D01*
X99103670Y-96672585D01*
X98617489Y-96347729D01*
X98044000Y-96233655D01*
X97470511Y-96347729D01*
X97094604Y-96598902D01*
X96319664Y-95823962D01*
X96710836Y-95635532D01*
X97082339Y-95219731D01*
X97289130Y-95529215D01*
X97289130Y-95529215D01*
G37*
X97289130Y-95529215D02*
X97775311Y-95854071D01*
X98348800Y-95968145D01*
X98922289Y-95854071D01*
X99408470Y-95529215D01*
X99528170Y-95350072D01*
X100456998Y-96278900D01*
X100456998Y-96430782D01*
X100224974Y-96309642D01*
X100209209Y-96312291D01*
X99681964Y-96566268D01*
X99310461Y-96982069D01*
X99103670Y-96672585D01*
X98617489Y-96347729D01*
X98044000Y-96233655D01*
X97470511Y-96347729D01*
X97094604Y-96598902D01*
X96319664Y-95823962D01*
X96710836Y-95635532D01*
X97082339Y-95219731D01*
X97289130Y-95529215D01*
G36*
X95935800Y-94157800D02*
X95955800Y-94157800D01*
X95955800Y-94411800D01*
X95935800Y-94411800D01*
X95935800Y-94431800D01*
X95681800Y-94431800D01*
X95681800Y-94411800D01*
X95661800Y-94411800D01*
X95661800Y-94157800D01*
X95681800Y-94157800D01*
X95681800Y-94137800D01*
X95935800Y-94137800D01*
X95935800Y-94157800D01*
X95935800Y-94157800D01*
G37*
X95935800Y-94157800D02*
X95955800Y-94157800D01*
X95955800Y-94411800D01*
X95935800Y-94411800D01*
X95935800Y-94431800D01*
X95681800Y-94431800D01*
X95681800Y-94411800D01*
X95661800Y-94411800D01*
X95661800Y-94157800D01*
X95681800Y-94157800D01*
X95681800Y-94137800D01*
X95935800Y-94137800D01*
X95935800Y-94157800D01*
G36*
X81608800Y-82416398D02*
X80243489Y-83781709D01*
X79908100Y-83642443D01*
X79352339Y-83641958D01*
X78838697Y-83854190D01*
X78445371Y-84246830D01*
X78232243Y-84760100D01*
X78231758Y-85315861D01*
X78443990Y-85829503D01*
X78836630Y-86222829D01*
X79349900Y-86435957D01*
X79905661Y-86436442D01*
X80419303Y-86224210D01*
X80812629Y-85831570D01*
X81025757Y-85318300D01*
X81025905Y-85148897D01*
X82602200Y-83572602D01*
X82602200Y-89767804D01*
X82432532Y-89705073D01*
X81459605Y-90678000D01*
X82432532Y-91650927D01*
X82602200Y-91588196D01*
X82602200Y-93702191D01*
X82319470Y-93418967D01*
X80947197Y-92849150D01*
X79461322Y-92847853D01*
X78088056Y-93415275D01*
X77468800Y-94033451D01*
X77468800Y-92261237D01*
X77488110Y-92274431D01*
X77740000Y-92325440D01*
X79740000Y-92325440D01*
X79975317Y-92281162D01*
X80191441Y-92142090D01*
X80336431Y-91929890D01*
X80339042Y-91916998D01*
X80405736Y-92097387D01*
X81015461Y-92323908D01*
X81665460Y-92299856D01*
X82154264Y-92097387D01*
X82252927Y-91830532D01*
X81280000Y-90857605D01*
X81265858Y-90871748D01*
X81086253Y-90692143D01*
X81100395Y-90678000D01*
X81086253Y-90663858D01*
X81265858Y-90484253D01*
X81280000Y-90498395D01*
X82252927Y-89525468D01*
X82154264Y-89258613D01*
X81544539Y-89032092D01*
X80894540Y-89056144D01*
X80405736Y-89258613D01*
X80339681Y-89437273D01*
X80204090Y-89226559D01*
X79991890Y-89081569D01*
X79740000Y-89030560D01*
X77740000Y-89030560D01*
X77504683Y-89074838D01*
X77468800Y-89097928D01*
X77468800Y-81534324D01*
X77495272Y-81351462D01*
X77543658Y-81270092D01*
X77619498Y-81213433D01*
X77762031Y-81177200D01*
X80822800Y-81177200D01*
X80873204Y-81167174D01*
X80924523Y-81169875D01*
X81297756Y-81115844D01*
X81523402Y-81035995D01*
X81558916Y-81023428D01*
X81608800Y-80993765D01*
X81608800Y-82416398D01*
X81608800Y-82416398D01*
G37*
X81608800Y-82416398D02*
X80243489Y-83781709D01*
X79908100Y-83642443D01*
X79352339Y-83641958D01*
X78838697Y-83854190D01*
X78445371Y-84246830D01*
X78232243Y-84760100D01*
X78231758Y-85315861D01*
X78443990Y-85829503D01*
X78836630Y-86222829D01*
X79349900Y-86435957D01*
X79905661Y-86436442D01*
X80419303Y-86224210D01*
X80812629Y-85831570D01*
X81025757Y-85318300D01*
X81025905Y-85148897D01*
X82602200Y-83572602D01*
X82602200Y-89767804D01*
X82432532Y-89705073D01*
X81459605Y-90678000D01*
X82432532Y-91650927D01*
X82602200Y-91588196D01*
X82602200Y-93702191D01*
X82319470Y-93418967D01*
X80947197Y-92849150D01*
X79461322Y-92847853D01*
X78088056Y-93415275D01*
X77468800Y-94033451D01*
X77468800Y-92261237D01*
X77488110Y-92274431D01*
X77740000Y-92325440D01*
X79740000Y-92325440D01*
X79975317Y-92281162D01*
X80191441Y-92142090D01*
X80336431Y-91929890D01*
X80339042Y-91916998D01*
X80405736Y-92097387D01*
X81015461Y-92323908D01*
X81665460Y-92299856D01*
X82154264Y-92097387D01*
X82252927Y-91830532D01*
X81280000Y-90857605D01*
X81265858Y-90871748D01*
X81086253Y-90692143D01*
X81100395Y-90678000D01*
X81086253Y-90663858D01*
X81265858Y-90484253D01*
X81280000Y-90498395D01*
X82252927Y-89525468D01*
X82154264Y-89258613D01*
X81544539Y-89032092D01*
X80894540Y-89056144D01*
X80405736Y-89258613D01*
X80339681Y-89437273D01*
X80204090Y-89226559D01*
X79991890Y-89081569D01*
X79740000Y-89030560D01*
X77740000Y-89030560D01*
X77504683Y-89074838D01*
X77468800Y-89097928D01*
X77468800Y-81534324D01*
X77495272Y-81351462D01*
X77543658Y-81270092D01*
X77619498Y-81213433D01*
X77762031Y-81177200D01*
X80822800Y-81177200D01*
X80873204Y-81167174D01*
X80924523Y-81169875D01*
X81297756Y-81115844D01*
X81523402Y-81035995D01*
X81558916Y-81023428D01*
X81608800Y-80993765D01*
X81608800Y-82416398D01*
G36*
X110907748Y-83699158D02*
X110893605Y-83713300D01*
X110907748Y-83727443D01*
X110728143Y-83907048D01*
X110714000Y-83892905D01*
X110699858Y-83907048D01*
X110520253Y-83727443D01*
X110534395Y-83713300D01*
X110520253Y-83699158D01*
X110699858Y-83519553D01*
X110714000Y-83533695D01*
X110728143Y-83519553D01*
X110907748Y-83699158D01*
X110907748Y-83699158D01*
G37*
X110907748Y-83699158D02*
X110893605Y-83713300D01*
X110907748Y-83727443D01*
X110728143Y-83907048D01*
X110714000Y-83892905D01*
X110699858Y-83907048D01*
X110520253Y-83727443D01*
X110534395Y-83713300D01*
X110520253Y-83699158D01*
X110699858Y-83519553D01*
X110714000Y-83533695D01*
X110728143Y-83519553D01*
X110907748Y-83699158D01*
G36*
X84874900Y-50228257D02*
X85430661Y-50228742D01*
X85812139Y-50071119D01*
X86358202Y-50617181D01*
X86306662Y-50741301D01*
X86306338Y-51113267D01*
X86448383Y-51457043D01*
X86481500Y-51490218D01*
X86481500Y-54695015D01*
X86405029Y-54663340D01*
X84814410Y-54663340D01*
X84655660Y-54822090D01*
X84655660Y-56921400D01*
X84675660Y-56921400D01*
X84675660Y-57175400D01*
X84655660Y-57175400D01*
X84655660Y-59274710D01*
X84814410Y-59433460D01*
X84833306Y-59433460D01*
X84750852Y-59556861D01*
X84693000Y-59847700D01*
X84693000Y-68175998D01*
X83128800Y-69740198D01*
X83128800Y-59433460D01*
X84242910Y-59433460D01*
X84401660Y-59274710D01*
X84401660Y-57175400D01*
X84381660Y-57175400D01*
X84381660Y-56921400D01*
X84401660Y-56921400D01*
X84401660Y-54822090D01*
X84242910Y-54663340D01*
X83128800Y-54663340D01*
X83128800Y-52638302D01*
X84233201Y-51533901D01*
X84397948Y-51287340D01*
X84455800Y-50996500D01*
X84455800Y-50054232D01*
X84874900Y-50228257D01*
X84874900Y-50228257D01*
G37*
X84874900Y-50228257D02*
X85430661Y-50228742D01*
X85812139Y-50071119D01*
X86358202Y-50617181D01*
X86306662Y-50741301D01*
X86306338Y-51113267D01*
X86448383Y-51457043D01*
X86481500Y-51490218D01*
X86481500Y-54695015D01*
X86405029Y-54663340D01*
X84814410Y-54663340D01*
X84655660Y-54822090D01*
X84655660Y-56921400D01*
X84675660Y-56921400D01*
X84675660Y-57175400D01*
X84655660Y-57175400D01*
X84655660Y-59274710D01*
X84814410Y-59433460D01*
X84833306Y-59433460D01*
X84750852Y-59556861D01*
X84693000Y-59847700D01*
X84693000Y-68175998D01*
X83128800Y-69740198D01*
X83128800Y-59433460D01*
X84242910Y-59433460D01*
X84401660Y-59274710D01*
X84401660Y-57175400D01*
X84381660Y-57175400D01*
X84381660Y-56921400D01*
X84401660Y-56921400D01*
X84401660Y-54822090D01*
X84242910Y-54663340D01*
X83128800Y-54663340D01*
X83128800Y-52638302D01*
X84233201Y-51533901D01*
X84397948Y-51287340D01*
X84455800Y-50996500D01*
X84455800Y-50054232D01*
X84874900Y-50228257D01*
G36*
X128950999Y-56899101D02*
X129197560Y-57063848D01*
X129488400Y-57121700D01*
X131056329Y-57121700D01*
X131145183Y-57336743D01*
X131375700Y-57567663D01*
X131375700Y-59634100D01*
X131433552Y-59924939D01*
X131598299Y-60171501D01*
X131844861Y-60336248D01*
X131871812Y-60341609D01*
X131864569Y-60352210D01*
X131813560Y-60604100D01*
X131813560Y-61204100D01*
X131857838Y-61439417D01*
X131921678Y-61538628D01*
X131864569Y-61622210D01*
X131813560Y-61874100D01*
X131813560Y-62246738D01*
X131308599Y-62751699D01*
X131143852Y-62998261D01*
X131086000Y-63289100D01*
X131086000Y-63359621D01*
X130894559Y-63482810D01*
X130848031Y-63550906D01*
X130705698Y-63408573D01*
X130472309Y-63311900D01*
X130131750Y-63311900D01*
X129973000Y-63470650D01*
X129973000Y-64444900D01*
X129993000Y-64444900D01*
X129993000Y-64698900D01*
X129973000Y-64698900D01*
X129973000Y-64718900D01*
X129719000Y-64718900D01*
X129719000Y-64698900D01*
X128869750Y-64698900D01*
X128711000Y-64857650D01*
X128711000Y-65323210D01*
X128807673Y-65556599D01*
X128986302Y-65735227D01*
X129133995Y-65796403D01*
X126099862Y-68830536D01*
X126095362Y-68740632D01*
X125936397Y-68356857D01*
X125694213Y-68287392D01*
X124893605Y-69088000D01*
X124907748Y-69102143D01*
X124728143Y-69281748D01*
X124714000Y-69267605D01*
X124699858Y-69281748D01*
X124520253Y-69102143D01*
X124534395Y-69088000D01*
X123733787Y-68287392D01*
X123491603Y-68356857D01*
X123481810Y-68384308D01*
X122890700Y-67793198D01*
X122890700Y-63183422D01*
X123043899Y-63412701D01*
X123329817Y-63698619D01*
X123317243Y-63728900D01*
X123316758Y-64284661D01*
X123528990Y-64798303D01*
X123921630Y-65191629D01*
X124129512Y-65277949D01*
X123923697Y-65362990D01*
X123530371Y-65755630D01*
X123317243Y-66268900D01*
X123316758Y-66824661D01*
X123528990Y-67338303D01*
X123921630Y-67731629D01*
X124113727Y-67811395D01*
X123982857Y-67865603D01*
X123913392Y-68107787D01*
X124714000Y-68908395D01*
X125514608Y-68107787D01*
X125445143Y-67865603D01*
X125304682Y-67815491D01*
X125504303Y-67733010D01*
X125897629Y-67340370D01*
X126110757Y-66827100D01*
X126111242Y-66271339D01*
X125899010Y-65757697D01*
X125506370Y-65364371D01*
X125298488Y-65278051D01*
X125504303Y-65193010D01*
X125897629Y-64800370D01*
X126110757Y-64287100D01*
X126111164Y-63820590D01*
X128711000Y-63820590D01*
X128711000Y-64286150D01*
X128869750Y-64444900D01*
X129719000Y-64444900D01*
X129719000Y-63470650D01*
X129560250Y-63311900D01*
X129219691Y-63311900D01*
X128986302Y-63408573D01*
X128807673Y-63587201D01*
X128711000Y-63820590D01*
X126111164Y-63820590D01*
X126111242Y-63731339D01*
X125899010Y-63217697D01*
X125506370Y-62824371D01*
X125298488Y-62738051D01*
X125504303Y-62653010D01*
X125697800Y-62459850D01*
X126426000Y-62459850D01*
X126426000Y-62600410D01*
X126522673Y-62833799D01*
X126701302Y-63012427D01*
X126934691Y-63109100D01*
X127550250Y-63109100D01*
X127709000Y-62950350D01*
X127709000Y-62301100D01*
X127963000Y-62301100D01*
X127963000Y-62950350D01*
X128121750Y-63109100D01*
X128737309Y-63109100D01*
X128970698Y-63012427D01*
X129149327Y-62833799D01*
X129246000Y-62600410D01*
X129246000Y-62459850D01*
X129087250Y-62301100D01*
X127963000Y-62301100D01*
X127709000Y-62301100D01*
X126584750Y-62301100D01*
X126426000Y-62459850D01*
X125697800Y-62459850D01*
X125897629Y-62260370D01*
X126110757Y-61747100D01*
X126111242Y-61191339D01*
X126110627Y-61189850D01*
X126426000Y-61189850D01*
X126426000Y-61330410D01*
X126512442Y-61539100D01*
X126426000Y-61747790D01*
X126426000Y-61888350D01*
X126584750Y-62047100D01*
X127709000Y-62047100D01*
X127709000Y-61031100D01*
X127963000Y-61031100D01*
X127963000Y-62047100D01*
X129087250Y-62047100D01*
X129246000Y-61888350D01*
X129246000Y-61747790D01*
X129159558Y-61539100D01*
X129246000Y-61330410D01*
X129246000Y-61189850D01*
X129087250Y-61031100D01*
X127963000Y-61031100D01*
X127709000Y-61031100D01*
X126584750Y-61031100D01*
X126426000Y-61189850D01*
X126110627Y-61189850D01*
X126097857Y-61158945D01*
X126532226Y-60724576D01*
X126584750Y-60777100D01*
X127709000Y-60777100D01*
X127709000Y-59761100D01*
X127963000Y-59761100D01*
X127963000Y-60777100D01*
X129087250Y-60777100D01*
X129246000Y-60618350D01*
X129246000Y-60477790D01*
X129159558Y-60269100D01*
X129246000Y-60060410D01*
X129246000Y-59919850D01*
X129087250Y-59761100D01*
X127963000Y-59761100D01*
X127709000Y-59761100D01*
X127689000Y-59761100D01*
X127689000Y-59507100D01*
X127709000Y-59507100D01*
X127709000Y-58491100D01*
X127963000Y-58491100D01*
X127963000Y-59507100D01*
X129087250Y-59507100D01*
X129246000Y-59348350D01*
X129246000Y-59207790D01*
X129159558Y-58999100D01*
X129246000Y-58790410D01*
X129246000Y-58649850D01*
X129087250Y-58491100D01*
X127963000Y-58491100D01*
X127709000Y-58491100D01*
X127689000Y-58491100D01*
X127689000Y-58237100D01*
X127709000Y-58237100D01*
X127709000Y-57587850D01*
X127963000Y-57587850D01*
X127963000Y-58237100D01*
X129087250Y-58237100D01*
X129246000Y-58078350D01*
X129246000Y-57937790D01*
X129149327Y-57704401D01*
X128970698Y-57525773D01*
X128737309Y-57429100D01*
X128121750Y-57429100D01*
X127963000Y-57587850D01*
X127709000Y-57587850D01*
X127550250Y-57429100D01*
X126934691Y-57429100D01*
X126917000Y-57436428D01*
X126917000Y-56570985D01*
X126934511Y-56582685D01*
X127508000Y-56696759D01*
X128081489Y-56582685D01*
X128413045Y-56361147D01*
X128950999Y-56899101D01*
X128950999Y-56899101D01*
G37*
X128950999Y-56899101D02*
X129197560Y-57063848D01*
X129488400Y-57121700D01*
X131056329Y-57121700D01*
X131145183Y-57336743D01*
X131375700Y-57567663D01*
X131375700Y-59634100D01*
X131433552Y-59924939D01*
X131598299Y-60171501D01*
X131844861Y-60336248D01*
X131871812Y-60341609D01*
X131864569Y-60352210D01*
X131813560Y-60604100D01*
X131813560Y-61204100D01*
X131857838Y-61439417D01*
X131921678Y-61538628D01*
X131864569Y-61622210D01*
X131813560Y-61874100D01*
X131813560Y-62246738D01*
X131308599Y-62751699D01*
X131143852Y-62998261D01*
X131086000Y-63289100D01*
X131086000Y-63359621D01*
X130894559Y-63482810D01*
X130848031Y-63550906D01*
X130705698Y-63408573D01*
X130472309Y-63311900D01*
X130131750Y-63311900D01*
X129973000Y-63470650D01*
X129973000Y-64444900D01*
X129993000Y-64444900D01*
X129993000Y-64698900D01*
X129973000Y-64698900D01*
X129973000Y-64718900D01*
X129719000Y-64718900D01*
X129719000Y-64698900D01*
X128869750Y-64698900D01*
X128711000Y-64857650D01*
X128711000Y-65323210D01*
X128807673Y-65556599D01*
X128986302Y-65735227D01*
X129133995Y-65796403D01*
X126099862Y-68830536D01*
X126095362Y-68740632D01*
X125936397Y-68356857D01*
X125694213Y-68287392D01*
X124893605Y-69088000D01*
X124907748Y-69102143D01*
X124728143Y-69281748D01*
X124714000Y-69267605D01*
X124699858Y-69281748D01*
X124520253Y-69102143D01*
X124534395Y-69088000D01*
X123733787Y-68287392D01*
X123491603Y-68356857D01*
X123481810Y-68384308D01*
X122890700Y-67793198D01*
X122890700Y-63183422D01*
X123043899Y-63412701D01*
X123329817Y-63698619D01*
X123317243Y-63728900D01*
X123316758Y-64284661D01*
X123528990Y-64798303D01*
X123921630Y-65191629D01*
X124129512Y-65277949D01*
X123923697Y-65362990D01*
X123530371Y-65755630D01*
X123317243Y-66268900D01*
X123316758Y-66824661D01*
X123528990Y-67338303D01*
X123921630Y-67731629D01*
X124113727Y-67811395D01*
X123982857Y-67865603D01*
X123913392Y-68107787D01*
X124714000Y-68908395D01*
X125514608Y-68107787D01*
X125445143Y-67865603D01*
X125304682Y-67815491D01*
X125504303Y-67733010D01*
X125897629Y-67340370D01*
X126110757Y-66827100D01*
X126111242Y-66271339D01*
X125899010Y-65757697D01*
X125506370Y-65364371D01*
X125298488Y-65278051D01*
X125504303Y-65193010D01*
X125897629Y-64800370D01*
X126110757Y-64287100D01*
X126111164Y-63820590D01*
X128711000Y-63820590D01*
X128711000Y-64286150D01*
X128869750Y-64444900D01*
X129719000Y-64444900D01*
X129719000Y-63470650D01*
X129560250Y-63311900D01*
X129219691Y-63311900D01*
X128986302Y-63408573D01*
X128807673Y-63587201D01*
X128711000Y-63820590D01*
X126111164Y-63820590D01*
X126111242Y-63731339D01*
X125899010Y-63217697D01*
X125506370Y-62824371D01*
X125298488Y-62738051D01*
X125504303Y-62653010D01*
X125697800Y-62459850D01*
X126426000Y-62459850D01*
X126426000Y-62600410D01*
X126522673Y-62833799D01*
X126701302Y-63012427D01*
X126934691Y-63109100D01*
X127550250Y-63109100D01*
X127709000Y-62950350D01*
X127709000Y-62301100D01*
X127963000Y-62301100D01*
X127963000Y-62950350D01*
X128121750Y-63109100D01*
X128737309Y-63109100D01*
X128970698Y-63012427D01*
X129149327Y-62833799D01*
X129246000Y-62600410D01*
X129246000Y-62459850D01*
X129087250Y-62301100D01*
X127963000Y-62301100D01*
X127709000Y-62301100D01*
X126584750Y-62301100D01*
X126426000Y-62459850D01*
X125697800Y-62459850D01*
X125897629Y-62260370D01*
X126110757Y-61747100D01*
X126111242Y-61191339D01*
X126110627Y-61189850D01*
X126426000Y-61189850D01*
X126426000Y-61330410D01*
X126512442Y-61539100D01*
X126426000Y-61747790D01*
X126426000Y-61888350D01*
X126584750Y-62047100D01*
X127709000Y-62047100D01*
X127709000Y-61031100D01*
X127963000Y-61031100D01*
X127963000Y-62047100D01*
X129087250Y-62047100D01*
X129246000Y-61888350D01*
X129246000Y-61747790D01*
X129159558Y-61539100D01*
X129246000Y-61330410D01*
X129246000Y-61189850D01*
X129087250Y-61031100D01*
X127963000Y-61031100D01*
X127709000Y-61031100D01*
X126584750Y-61031100D01*
X126426000Y-61189850D01*
X126110627Y-61189850D01*
X126097857Y-61158945D01*
X126532226Y-60724576D01*
X126584750Y-60777100D01*
X127709000Y-60777100D01*
X127709000Y-59761100D01*
X127963000Y-59761100D01*
X127963000Y-60777100D01*
X129087250Y-60777100D01*
X129246000Y-60618350D01*
X129246000Y-60477790D01*
X129159558Y-60269100D01*
X129246000Y-60060410D01*
X129246000Y-59919850D01*
X129087250Y-59761100D01*
X127963000Y-59761100D01*
X127709000Y-59761100D01*
X127689000Y-59761100D01*
X127689000Y-59507100D01*
X127709000Y-59507100D01*
X127709000Y-58491100D01*
X127963000Y-58491100D01*
X127963000Y-59507100D01*
X129087250Y-59507100D01*
X129246000Y-59348350D01*
X129246000Y-59207790D01*
X129159558Y-58999100D01*
X129246000Y-58790410D01*
X129246000Y-58649850D01*
X129087250Y-58491100D01*
X127963000Y-58491100D01*
X127709000Y-58491100D01*
X127689000Y-58491100D01*
X127689000Y-58237100D01*
X127709000Y-58237100D01*
X127709000Y-57587850D01*
X127963000Y-57587850D01*
X127963000Y-58237100D01*
X129087250Y-58237100D01*
X129246000Y-58078350D01*
X129246000Y-57937790D01*
X129149327Y-57704401D01*
X128970698Y-57525773D01*
X128737309Y-57429100D01*
X128121750Y-57429100D01*
X127963000Y-57587850D01*
X127709000Y-57587850D01*
X127550250Y-57429100D01*
X126934691Y-57429100D01*
X126917000Y-57436428D01*
X126917000Y-56570985D01*
X126934511Y-56582685D01*
X127508000Y-56696759D01*
X128081489Y-56582685D01*
X128413045Y-56361147D01*
X128950999Y-56899101D01*
G36*
X141072800Y-63247143D02*
X140934213Y-63207392D01*
X140133605Y-64008000D01*
X140934213Y-64808608D01*
X141072800Y-64768857D01*
X141072800Y-65691371D01*
X140746370Y-65364371D01*
X140554273Y-65284605D01*
X140685143Y-65230397D01*
X140754608Y-64988213D01*
X139954000Y-64187605D01*
X139153392Y-64988213D01*
X139222857Y-65230397D01*
X139363318Y-65280509D01*
X139163697Y-65362990D01*
X138770371Y-65755630D01*
X138557243Y-66268900D01*
X138556758Y-66824661D01*
X138768990Y-67338303D01*
X139161630Y-67731629D01*
X139369512Y-67817949D01*
X139163697Y-67902990D01*
X138770371Y-68295630D01*
X138756930Y-68328000D01*
X134676356Y-68328000D01*
X138595000Y-64409356D01*
X138731603Y-64739143D01*
X138973787Y-64808608D01*
X139774395Y-64008000D01*
X139760253Y-63993858D01*
X139939858Y-63814253D01*
X139954000Y-63828395D01*
X140754608Y-63027787D01*
X140685143Y-62785603D01*
X140544682Y-62735491D01*
X140744303Y-62653010D01*
X141072800Y-62325086D01*
X141072800Y-63247143D01*
X141072800Y-63247143D01*
G37*
X141072800Y-63247143D02*
X140934213Y-63207392D01*
X140133605Y-64008000D01*
X140934213Y-64808608D01*
X141072800Y-64768857D01*
X141072800Y-65691371D01*
X140746370Y-65364371D01*
X140554273Y-65284605D01*
X140685143Y-65230397D01*
X140754608Y-64988213D01*
X139954000Y-64187605D01*
X139153392Y-64988213D01*
X139222857Y-65230397D01*
X139363318Y-65280509D01*
X139163697Y-65362990D01*
X138770371Y-65755630D01*
X138557243Y-66268900D01*
X138556758Y-66824661D01*
X138768990Y-67338303D01*
X139161630Y-67731629D01*
X139369512Y-67817949D01*
X139163697Y-67902990D01*
X138770371Y-68295630D01*
X138756930Y-68328000D01*
X134676356Y-68328000D01*
X138595000Y-64409356D01*
X138731603Y-64739143D01*
X138973787Y-64808608D01*
X139774395Y-64008000D01*
X139760253Y-63993858D01*
X139939858Y-63814253D01*
X139954000Y-63828395D01*
X140754608Y-63027787D01*
X140685143Y-62785603D01*
X140544682Y-62735491D01*
X140744303Y-62653010D01*
X141072800Y-62325086D01*
X141072800Y-63247143D01*
G36*
X132228990Y-47081803D02*
X132621630Y-47475129D01*
X132813727Y-47554895D01*
X132682857Y-47609103D01*
X132613392Y-47851287D01*
X133414000Y-48651895D01*
X134214608Y-47851287D01*
X134145143Y-47609103D01*
X134004682Y-47558991D01*
X134204303Y-47476510D01*
X134505335Y-47176003D01*
X134504561Y-48062543D01*
X134394213Y-48030892D01*
X133593605Y-48831500D01*
X134394213Y-49632108D01*
X134636397Y-49562643D01*
X134816728Y-49057183D01*
X135071775Y-49674444D01*
X136121530Y-50726033D01*
X137493803Y-51295850D01*
X138979678Y-51297147D01*
X140352944Y-50729725D01*
X141072800Y-50011124D01*
X141072800Y-60611371D01*
X140746370Y-60284371D01*
X140233100Y-60071243D01*
X139677339Y-60070758D01*
X139163697Y-60282990D01*
X138770371Y-60675630D01*
X138557243Y-61188900D01*
X138556892Y-61590752D01*
X138284440Y-61863204D01*
X138284440Y-61823800D01*
X138240162Y-61588483D01*
X138115379Y-61394565D01*
X138233431Y-61221790D01*
X138284440Y-60969900D01*
X138284440Y-59669900D01*
X138240162Y-59434583D01*
X138117069Y-59243291D01*
X138233431Y-59072990D01*
X138284440Y-58821100D01*
X138284440Y-57521100D01*
X138240162Y-57285783D01*
X138101090Y-57069659D01*
X137888890Y-56924669D01*
X137637000Y-56873660D01*
X136937000Y-56873660D01*
X136701683Y-56917938D01*
X136674114Y-56935678D01*
X136603301Y-56829699D01*
X136392892Y-56619290D01*
X136452840Y-56531552D01*
X136549182Y-56620885D01*
X137031056Y-56820475D01*
X137287000Y-56701336D01*
X137287000Y-55341500D01*
X137541000Y-55341500D01*
X137541000Y-56701336D01*
X137796944Y-56820475D01*
X138278818Y-56620885D01*
X138751188Y-56182879D01*
X139019983Y-55597446D01*
X138901367Y-55341500D01*
X137541000Y-55341500D01*
X137287000Y-55341500D01*
X137267000Y-55341500D01*
X137267000Y-55087500D01*
X137287000Y-55087500D01*
X137287000Y-53727664D01*
X137541000Y-53727664D01*
X137541000Y-55087500D01*
X138901367Y-55087500D01*
X139019983Y-54831554D01*
X138751188Y-54246121D01*
X138278818Y-53808115D01*
X137796944Y-53608525D01*
X137541000Y-53727664D01*
X137287000Y-53727664D01*
X137031056Y-53608525D01*
X137021814Y-53612353D01*
X137426544Y-53409988D01*
X137588441Y-53294990D01*
X137733431Y-53082790D01*
X137784440Y-52830900D01*
X137784440Y-52572900D01*
X136764000Y-52572900D01*
X136764000Y-53719138D01*
X136549182Y-53808115D01*
X136510000Y-53844447D01*
X136510000Y-53352825D01*
X136514440Y-53330900D01*
X136514440Y-52318900D01*
X136764000Y-52318900D01*
X137784440Y-52318900D01*
X137784440Y-52060900D01*
X137753985Y-51864666D01*
X137629030Y-51640085D01*
X137426544Y-51481812D01*
X136764000Y-51150540D01*
X136764000Y-52318900D01*
X136514440Y-52318900D01*
X136514440Y-51560900D01*
X136510000Y-51540858D01*
X136510000Y-51023540D01*
X136426544Y-50981812D01*
X136154887Y-50913707D01*
X136006525Y-50939506D01*
X135825566Y-50914787D01*
X135577456Y-50981812D01*
X134577456Y-51481812D01*
X134415559Y-51596810D01*
X134270569Y-51809010D01*
X134219560Y-52060900D01*
X134219560Y-52830900D01*
X134250015Y-53027134D01*
X134374970Y-53251715D01*
X134400628Y-53271770D01*
X134336599Y-53335799D01*
X134192767Y-53551060D01*
X133858000Y-53551060D01*
X133622683Y-53595338D01*
X133406559Y-53734410D01*
X133261569Y-53946610D01*
X133210560Y-54198500D01*
X133210560Y-56052758D01*
X132760101Y-55602299D01*
X132513539Y-55437552D01*
X132222700Y-55379700D01*
X131531000Y-55379700D01*
X131435868Y-55398623D01*
X131382469Y-55295800D01*
X130175000Y-55295800D01*
X130175000Y-55315800D01*
X129921000Y-55315800D01*
X129921000Y-55295800D01*
X129901000Y-55295800D01*
X129901000Y-55041800D01*
X129921000Y-55041800D01*
X129921000Y-52755800D01*
X130175000Y-52755800D01*
X130175000Y-55041800D01*
X131382469Y-55041800D01*
X131502968Y-54809773D01*
X131254821Y-54280310D01*
X130836848Y-53898800D01*
X131254821Y-53517290D01*
X131502968Y-52987827D01*
X131382469Y-52755800D01*
X130175000Y-52755800D01*
X129921000Y-52755800D01*
X129901000Y-52755800D01*
X129901000Y-52501800D01*
X129921000Y-52501800D01*
X129921000Y-51294983D01*
X130175000Y-51294983D01*
X130175000Y-52501800D01*
X131382469Y-52501800D01*
X131502968Y-52269773D01*
X131254821Y-51740310D01*
X130822947Y-51346112D01*
X130407026Y-51173842D01*
X130175000Y-51294983D01*
X129921000Y-51294983D01*
X129688974Y-51173842D01*
X129273053Y-51346112D01*
X129125131Y-51481129D01*
X128546401Y-50902399D01*
X128299839Y-50737652D01*
X128009000Y-50679800D01*
X124451200Y-50679800D01*
X124160361Y-50737652D01*
X123913799Y-50902399D01*
X121888282Y-52927916D01*
X121957144Y-52734898D01*
X121929362Y-52179832D01*
X121770397Y-51796057D01*
X121528213Y-51726592D01*
X120727605Y-52527200D01*
X120741748Y-52541343D01*
X120562143Y-52720948D01*
X120548000Y-52706805D01*
X119747392Y-53507413D01*
X119816857Y-53749597D01*
X119940344Y-53793653D01*
X119816857Y-53844803D01*
X119747392Y-54086987D01*
X120548000Y-54887595D01*
X120562143Y-54873453D01*
X120741748Y-55053058D01*
X120727605Y-55067200D01*
X120741748Y-55081343D01*
X120562143Y-55260948D01*
X120548000Y-55246805D01*
X120533858Y-55260948D01*
X120354253Y-55081343D01*
X120368395Y-55067200D01*
X119567787Y-54266592D01*
X119325603Y-54336057D01*
X119322489Y-54344787D01*
X118934000Y-53956298D01*
X118934000Y-52319502D01*
X119138856Y-52319502D01*
X119166638Y-52874568D01*
X119325603Y-53258343D01*
X119567787Y-53327808D01*
X120368395Y-52527200D01*
X119567787Y-51726592D01*
X119325603Y-51796057D01*
X119138856Y-52319502D01*
X118934000Y-52319502D01*
X118934000Y-51546987D01*
X119747392Y-51546987D01*
X120548000Y-52347595D01*
X121348608Y-51546987D01*
X121279143Y-51304803D01*
X120755698Y-51118056D01*
X120200632Y-51145838D01*
X119816857Y-51304803D01*
X119747392Y-51546987D01*
X118934000Y-51546987D01*
X118934000Y-50029031D01*
X118964303Y-50016510D01*
X119357629Y-49623870D01*
X119443949Y-49415988D01*
X119528990Y-49621803D01*
X119921630Y-50015129D01*
X120434900Y-50228257D01*
X120990661Y-50228742D01*
X121504303Y-50016510D01*
X121897629Y-49623870D01*
X121983949Y-49415988D01*
X122068990Y-49621803D01*
X122461630Y-50015129D01*
X122974900Y-50228257D01*
X123530661Y-50228742D01*
X124044303Y-50016510D01*
X124437629Y-49623870D01*
X124523949Y-49415988D01*
X124608990Y-49621803D01*
X125001630Y-50015129D01*
X125514900Y-50228257D01*
X126070661Y-50228742D01*
X126584303Y-50016510D01*
X126977629Y-49623870D01*
X127063949Y-49415988D01*
X127148990Y-49621803D01*
X127541630Y-50015129D01*
X128054900Y-50228257D01*
X128610661Y-50228742D01*
X129124303Y-50016510D01*
X129517629Y-49623870D01*
X129603949Y-49415988D01*
X129688990Y-49621803D01*
X130081630Y-50015129D01*
X130594900Y-50228257D01*
X131150661Y-50228742D01*
X131664303Y-50016510D01*
X131869457Y-49811713D01*
X132613392Y-49811713D01*
X132682857Y-50053897D01*
X133206302Y-50240644D01*
X133761368Y-50212862D01*
X134145143Y-50053897D01*
X134214608Y-49811713D01*
X133414000Y-49011105D01*
X132613392Y-49811713D01*
X131869457Y-49811713D01*
X132057629Y-49623870D01*
X132137395Y-49431773D01*
X132191603Y-49562643D01*
X132433787Y-49632108D01*
X133234395Y-48831500D01*
X132433787Y-48030892D01*
X132191603Y-48100357D01*
X132141491Y-48240818D01*
X132059010Y-48041197D01*
X131666370Y-47647871D01*
X131458488Y-47561551D01*
X131664303Y-47476510D01*
X132057629Y-47083870D01*
X132143949Y-46875988D01*
X132228990Y-47081803D01*
X132228990Y-47081803D01*
G37*
X132228990Y-47081803D02*
X132621630Y-47475129D01*
X132813727Y-47554895D01*
X132682857Y-47609103D01*
X132613392Y-47851287D01*
X133414000Y-48651895D01*
X134214608Y-47851287D01*
X134145143Y-47609103D01*
X134004682Y-47558991D01*
X134204303Y-47476510D01*
X134505335Y-47176003D01*
X134504561Y-48062543D01*
X134394213Y-48030892D01*
X133593605Y-48831500D01*
X134394213Y-49632108D01*
X134636397Y-49562643D01*
X134816728Y-49057183D01*
X135071775Y-49674444D01*
X136121530Y-50726033D01*
X137493803Y-51295850D01*
X138979678Y-51297147D01*
X140352944Y-50729725D01*
X141072800Y-50011124D01*
X141072800Y-60611371D01*
X140746370Y-60284371D01*
X140233100Y-60071243D01*
X139677339Y-60070758D01*
X139163697Y-60282990D01*
X138770371Y-60675630D01*
X138557243Y-61188900D01*
X138556892Y-61590752D01*
X138284440Y-61863204D01*
X138284440Y-61823800D01*
X138240162Y-61588483D01*
X138115379Y-61394565D01*
X138233431Y-61221790D01*
X138284440Y-60969900D01*
X138284440Y-59669900D01*
X138240162Y-59434583D01*
X138117069Y-59243291D01*
X138233431Y-59072990D01*
X138284440Y-58821100D01*
X138284440Y-57521100D01*
X138240162Y-57285783D01*
X138101090Y-57069659D01*
X137888890Y-56924669D01*
X137637000Y-56873660D01*
X136937000Y-56873660D01*
X136701683Y-56917938D01*
X136674114Y-56935678D01*
X136603301Y-56829699D01*
X136392892Y-56619290D01*
X136452840Y-56531552D01*
X136549182Y-56620885D01*
X137031056Y-56820475D01*
X137287000Y-56701336D01*
X137287000Y-55341500D01*
X137541000Y-55341500D01*
X137541000Y-56701336D01*
X137796944Y-56820475D01*
X138278818Y-56620885D01*
X138751188Y-56182879D01*
X139019983Y-55597446D01*
X138901367Y-55341500D01*
X137541000Y-55341500D01*
X137287000Y-55341500D01*
X137267000Y-55341500D01*
X137267000Y-55087500D01*
X137287000Y-55087500D01*
X137287000Y-53727664D01*
X137541000Y-53727664D01*
X137541000Y-55087500D01*
X138901367Y-55087500D01*
X139019983Y-54831554D01*
X138751188Y-54246121D01*
X138278818Y-53808115D01*
X137796944Y-53608525D01*
X137541000Y-53727664D01*
X137287000Y-53727664D01*
X137031056Y-53608525D01*
X137021814Y-53612353D01*
X137426544Y-53409988D01*
X137588441Y-53294990D01*
X137733431Y-53082790D01*
X137784440Y-52830900D01*
X137784440Y-52572900D01*
X136764000Y-52572900D01*
X136764000Y-53719138D01*
X136549182Y-53808115D01*
X136510000Y-53844447D01*
X136510000Y-53352825D01*
X136514440Y-53330900D01*
X136514440Y-52318900D01*
X136764000Y-52318900D01*
X137784440Y-52318900D01*
X137784440Y-52060900D01*
X137753985Y-51864666D01*
X137629030Y-51640085D01*
X137426544Y-51481812D01*
X136764000Y-51150540D01*
X136764000Y-52318900D01*
X136514440Y-52318900D01*
X136514440Y-51560900D01*
X136510000Y-51540858D01*
X136510000Y-51023540D01*
X136426544Y-50981812D01*
X136154887Y-50913707D01*
X136006525Y-50939506D01*
X135825566Y-50914787D01*
X135577456Y-50981812D01*
X134577456Y-51481812D01*
X134415559Y-51596810D01*
X134270569Y-51809010D01*
X134219560Y-52060900D01*
X134219560Y-52830900D01*
X134250015Y-53027134D01*
X134374970Y-53251715D01*
X134400628Y-53271770D01*
X134336599Y-53335799D01*
X134192767Y-53551060D01*
X133858000Y-53551060D01*
X133622683Y-53595338D01*
X133406559Y-53734410D01*
X133261569Y-53946610D01*
X133210560Y-54198500D01*
X133210560Y-56052758D01*
X132760101Y-55602299D01*
X132513539Y-55437552D01*
X132222700Y-55379700D01*
X131531000Y-55379700D01*
X131435868Y-55398623D01*
X131382469Y-55295800D01*
X130175000Y-55295800D01*
X130175000Y-55315800D01*
X129921000Y-55315800D01*
X129921000Y-55295800D01*
X129901000Y-55295800D01*
X129901000Y-55041800D01*
X129921000Y-55041800D01*
X129921000Y-52755800D01*
X130175000Y-52755800D01*
X130175000Y-55041800D01*
X131382469Y-55041800D01*
X131502968Y-54809773D01*
X131254821Y-54280310D01*
X130836848Y-53898800D01*
X131254821Y-53517290D01*
X131502968Y-52987827D01*
X131382469Y-52755800D01*
X130175000Y-52755800D01*
X129921000Y-52755800D01*
X129901000Y-52755800D01*
X129901000Y-52501800D01*
X129921000Y-52501800D01*
X129921000Y-51294983D01*
X130175000Y-51294983D01*
X130175000Y-52501800D01*
X131382469Y-52501800D01*
X131502968Y-52269773D01*
X131254821Y-51740310D01*
X130822947Y-51346112D01*
X130407026Y-51173842D01*
X130175000Y-51294983D01*
X129921000Y-51294983D01*
X129688974Y-51173842D01*
X129273053Y-51346112D01*
X129125131Y-51481129D01*
X128546401Y-50902399D01*
X128299839Y-50737652D01*
X128009000Y-50679800D01*
X124451200Y-50679800D01*
X124160361Y-50737652D01*
X123913799Y-50902399D01*
X121888282Y-52927916D01*
X121957144Y-52734898D01*
X121929362Y-52179832D01*
X121770397Y-51796057D01*
X121528213Y-51726592D01*
X120727605Y-52527200D01*
X120741748Y-52541343D01*
X120562143Y-52720948D01*
X120548000Y-52706805D01*
X119747392Y-53507413D01*
X119816857Y-53749597D01*
X119940344Y-53793653D01*
X119816857Y-53844803D01*
X119747392Y-54086987D01*
X120548000Y-54887595D01*
X120562143Y-54873453D01*
X120741748Y-55053058D01*
X120727605Y-55067200D01*
X120741748Y-55081343D01*
X120562143Y-55260948D01*
X120548000Y-55246805D01*
X120533858Y-55260948D01*
X120354253Y-55081343D01*
X120368395Y-55067200D01*
X119567787Y-54266592D01*
X119325603Y-54336057D01*
X119322489Y-54344787D01*
X118934000Y-53956298D01*
X118934000Y-52319502D01*
X119138856Y-52319502D01*
X119166638Y-52874568D01*
X119325603Y-53258343D01*
X119567787Y-53327808D01*
X120368395Y-52527200D01*
X119567787Y-51726592D01*
X119325603Y-51796057D01*
X119138856Y-52319502D01*
X118934000Y-52319502D01*
X118934000Y-51546987D01*
X119747392Y-51546987D01*
X120548000Y-52347595D01*
X121348608Y-51546987D01*
X121279143Y-51304803D01*
X120755698Y-51118056D01*
X120200632Y-51145838D01*
X119816857Y-51304803D01*
X119747392Y-51546987D01*
X118934000Y-51546987D01*
X118934000Y-50029031D01*
X118964303Y-50016510D01*
X119357629Y-49623870D01*
X119443949Y-49415988D01*
X119528990Y-49621803D01*
X119921630Y-50015129D01*
X120434900Y-50228257D01*
X120990661Y-50228742D01*
X121504303Y-50016510D01*
X121897629Y-49623870D01*
X121983949Y-49415988D01*
X122068990Y-49621803D01*
X122461630Y-50015129D01*
X122974900Y-50228257D01*
X123530661Y-50228742D01*
X124044303Y-50016510D01*
X124437629Y-49623870D01*
X124523949Y-49415988D01*
X124608990Y-49621803D01*
X125001630Y-50015129D01*
X125514900Y-50228257D01*
X126070661Y-50228742D01*
X126584303Y-50016510D01*
X126977629Y-49623870D01*
X127063949Y-49415988D01*
X127148990Y-49621803D01*
X127541630Y-50015129D01*
X128054900Y-50228257D01*
X128610661Y-50228742D01*
X129124303Y-50016510D01*
X129517629Y-49623870D01*
X129603949Y-49415988D01*
X129688990Y-49621803D01*
X130081630Y-50015129D01*
X130594900Y-50228257D01*
X131150661Y-50228742D01*
X131664303Y-50016510D01*
X131869457Y-49811713D01*
X132613392Y-49811713D01*
X132682857Y-50053897D01*
X133206302Y-50240644D01*
X133761368Y-50212862D01*
X134145143Y-50053897D01*
X134214608Y-49811713D01*
X133414000Y-49011105D01*
X132613392Y-49811713D01*
X131869457Y-49811713D01*
X132057629Y-49623870D01*
X132137395Y-49431773D01*
X132191603Y-49562643D01*
X132433787Y-49632108D01*
X133234395Y-48831500D01*
X132433787Y-48030892D01*
X132191603Y-48100357D01*
X132141491Y-48240818D01*
X132059010Y-48041197D01*
X131666370Y-47647871D01*
X131458488Y-47561551D01*
X131664303Y-47476510D01*
X132057629Y-47083870D01*
X132143949Y-46875988D01*
X132228990Y-47081803D01*
G36*
X106346899Y-50779201D02*
X106593460Y-50943948D01*
X106884300Y-51001800D01*
X112306498Y-51001800D01*
X113251728Y-51947030D01*
X111823460Y-51947030D01*
X111588143Y-51991308D01*
X111372019Y-52130380D01*
X111227029Y-52342580D01*
X111176020Y-52594470D01*
X111176020Y-54623930D01*
X111220298Y-54859247D01*
X111359370Y-55075371D01*
X111571570Y-55220361D01*
X111823460Y-55271370D01*
X111848890Y-55271370D01*
X111794700Y-55543800D01*
X111794700Y-57723700D01*
X111623000Y-57723700D01*
X111623000Y-57703700D01*
X110923750Y-57703700D01*
X110765000Y-57862450D01*
X110765000Y-58353010D01*
X110861673Y-58586399D01*
X110882196Y-58606921D01*
X110709559Y-58718010D01*
X110666716Y-58780713D01*
X110556368Y-58802663D01*
X110566000Y-58779409D01*
X110566000Y-58588850D01*
X110407250Y-58430100D01*
X109408000Y-58430100D01*
X109408000Y-58450100D01*
X109154000Y-58450100D01*
X109154000Y-58430100D01*
X109134000Y-58430100D01*
X109134000Y-58176100D01*
X109154000Y-58176100D01*
X109154000Y-57476850D01*
X109408000Y-57476850D01*
X109408000Y-58176100D01*
X110407250Y-58176100D01*
X110566000Y-58017350D01*
X110566000Y-57826791D01*
X110469327Y-57593402D01*
X110290699Y-57414773D01*
X110057310Y-57318100D01*
X109566750Y-57318100D01*
X109408000Y-57476850D01*
X109154000Y-57476850D01*
X108995250Y-57318100D01*
X108504690Y-57318100D01*
X108439300Y-57345185D01*
X108439300Y-56800390D01*
X110765000Y-56800390D01*
X110765000Y-57290950D01*
X110923750Y-57449700D01*
X111623000Y-57449700D01*
X111623000Y-56450450D01*
X111464250Y-56291700D01*
X111273691Y-56291700D01*
X111040302Y-56388373D01*
X110861673Y-56567001D01*
X110765000Y-56800390D01*
X108439300Y-56800390D01*
X108439300Y-55576916D01*
X108744846Y-55271370D01*
X110304540Y-55271370D01*
X110539857Y-55227092D01*
X110755981Y-55088020D01*
X110900971Y-54875820D01*
X110951980Y-54623930D01*
X110951980Y-52594470D01*
X110907702Y-52359153D01*
X110768630Y-52143029D01*
X110556430Y-51998039D01*
X110304540Y-51947030D01*
X107652780Y-51947030D01*
X107417463Y-51991308D01*
X107201339Y-52130380D01*
X107190865Y-52145709D01*
X105273482Y-50228326D01*
X105750661Y-50228742D01*
X105783055Y-50215357D01*
X106346899Y-50779201D01*
X106346899Y-50779201D01*
G37*
X106346899Y-50779201D02*
X106593460Y-50943948D01*
X106884300Y-51001800D01*
X112306498Y-51001800D01*
X113251728Y-51947030D01*
X111823460Y-51947030D01*
X111588143Y-51991308D01*
X111372019Y-52130380D01*
X111227029Y-52342580D01*
X111176020Y-52594470D01*
X111176020Y-54623930D01*
X111220298Y-54859247D01*
X111359370Y-55075371D01*
X111571570Y-55220361D01*
X111823460Y-55271370D01*
X111848890Y-55271370D01*
X111794700Y-55543800D01*
X111794700Y-57723700D01*
X111623000Y-57723700D01*
X111623000Y-57703700D01*
X110923750Y-57703700D01*
X110765000Y-57862450D01*
X110765000Y-58353010D01*
X110861673Y-58586399D01*
X110882196Y-58606921D01*
X110709559Y-58718010D01*
X110666716Y-58780713D01*
X110556368Y-58802663D01*
X110566000Y-58779409D01*
X110566000Y-58588850D01*
X110407250Y-58430100D01*
X109408000Y-58430100D01*
X109408000Y-58450100D01*
X109154000Y-58450100D01*
X109154000Y-58430100D01*
X109134000Y-58430100D01*
X109134000Y-58176100D01*
X109154000Y-58176100D01*
X109154000Y-57476850D01*
X109408000Y-57476850D01*
X109408000Y-58176100D01*
X110407250Y-58176100D01*
X110566000Y-58017350D01*
X110566000Y-57826791D01*
X110469327Y-57593402D01*
X110290699Y-57414773D01*
X110057310Y-57318100D01*
X109566750Y-57318100D01*
X109408000Y-57476850D01*
X109154000Y-57476850D01*
X108995250Y-57318100D01*
X108504690Y-57318100D01*
X108439300Y-57345185D01*
X108439300Y-56800390D01*
X110765000Y-56800390D01*
X110765000Y-57290950D01*
X110923750Y-57449700D01*
X111623000Y-57449700D01*
X111623000Y-56450450D01*
X111464250Y-56291700D01*
X111273691Y-56291700D01*
X111040302Y-56388373D01*
X110861673Y-56567001D01*
X110765000Y-56800390D01*
X108439300Y-56800390D01*
X108439300Y-55576916D01*
X108744846Y-55271370D01*
X110304540Y-55271370D01*
X110539857Y-55227092D01*
X110755981Y-55088020D01*
X110900971Y-54875820D01*
X110951980Y-54623930D01*
X110951980Y-52594470D01*
X110907702Y-52359153D01*
X110768630Y-52143029D01*
X110556430Y-51998039D01*
X110304540Y-51947030D01*
X107652780Y-51947030D01*
X107417463Y-51991308D01*
X107201339Y-52130380D01*
X107190865Y-52145709D01*
X105273482Y-50228326D01*
X105750661Y-50228742D01*
X105783055Y-50215357D01*
X106346899Y-50779201D01*
G36*
X116988990Y-47081803D02*
X117381630Y-47475129D01*
X117589512Y-47561449D01*
X117383697Y-47646490D01*
X116990371Y-48039130D01*
X116910605Y-48231227D01*
X116856397Y-48100357D01*
X116614213Y-48030892D01*
X115813605Y-48831500D01*
X116614213Y-49632108D01*
X116856397Y-49562643D01*
X116906509Y-49422182D01*
X116988990Y-49621803D01*
X117381630Y-50015129D01*
X117414000Y-50028570D01*
X117414000Y-53959698D01*
X113591709Y-50137407D01*
X113884303Y-50016510D01*
X114089457Y-49811713D01*
X114833392Y-49811713D01*
X114902857Y-50053897D01*
X115426302Y-50240644D01*
X115981368Y-50212862D01*
X116365143Y-50053897D01*
X116434608Y-49811713D01*
X115634000Y-49011105D01*
X114833392Y-49811713D01*
X114089457Y-49811713D01*
X114277629Y-49623870D01*
X114357395Y-49431773D01*
X114411603Y-49562643D01*
X114653787Y-49632108D01*
X115454395Y-48831500D01*
X114653787Y-48030892D01*
X114411603Y-48100357D01*
X114361491Y-48240818D01*
X114279010Y-48041197D01*
X113886370Y-47647871D01*
X113678488Y-47561551D01*
X113884303Y-47476510D01*
X114277629Y-47083870D01*
X114363949Y-46875988D01*
X114448990Y-47081803D01*
X114841630Y-47475129D01*
X115033727Y-47554895D01*
X114902857Y-47609103D01*
X114833392Y-47851287D01*
X115634000Y-48651895D01*
X116434608Y-47851287D01*
X116365143Y-47609103D01*
X116224682Y-47558991D01*
X116424303Y-47476510D01*
X116817629Y-47083870D01*
X116903949Y-46875988D01*
X116988990Y-47081803D01*
X116988990Y-47081803D01*
G37*
X116988990Y-47081803D02*
X117381630Y-47475129D01*
X117589512Y-47561449D01*
X117383697Y-47646490D01*
X116990371Y-48039130D01*
X116910605Y-48231227D01*
X116856397Y-48100357D01*
X116614213Y-48030892D01*
X115813605Y-48831500D01*
X116614213Y-49632108D01*
X116856397Y-49562643D01*
X116906509Y-49422182D01*
X116988990Y-49621803D01*
X117381630Y-50015129D01*
X117414000Y-50028570D01*
X117414000Y-53959698D01*
X113591709Y-50137407D01*
X113884303Y-50016510D01*
X114089457Y-49811713D01*
X114833392Y-49811713D01*
X114902857Y-50053897D01*
X115426302Y-50240644D01*
X115981368Y-50212862D01*
X116365143Y-50053897D01*
X116434608Y-49811713D01*
X115634000Y-49011105D01*
X114833392Y-49811713D01*
X114089457Y-49811713D01*
X114277629Y-49623870D01*
X114357395Y-49431773D01*
X114411603Y-49562643D01*
X114653787Y-49632108D01*
X115454395Y-48831500D01*
X114653787Y-48030892D01*
X114411603Y-48100357D01*
X114361491Y-48240818D01*
X114279010Y-48041197D01*
X113886370Y-47647871D01*
X113678488Y-47561551D01*
X113884303Y-47476510D01*
X114277629Y-47083870D01*
X114363949Y-46875988D01*
X114448990Y-47081803D01*
X114841630Y-47475129D01*
X115033727Y-47554895D01*
X114902857Y-47609103D01*
X114833392Y-47851287D01*
X115634000Y-48651895D01*
X116434608Y-47851287D01*
X116365143Y-47609103D01*
X116224682Y-47558991D01*
X116424303Y-47476510D01*
X116817629Y-47083870D01*
X116903949Y-46875988D01*
X116988990Y-47081803D01*
G36*
X96668990Y-47081803D02*
X97061630Y-47475129D01*
X97269512Y-47561449D01*
X97063697Y-47646490D01*
X96670371Y-48039130D01*
X96590605Y-48231227D01*
X96536397Y-48100357D01*
X96294213Y-48030892D01*
X95493605Y-48831500D01*
X96294213Y-49632108D01*
X96536397Y-49562643D01*
X96586509Y-49422182D01*
X96668990Y-49621803D01*
X96978846Y-49932200D01*
X96080049Y-49932200D01*
X96114608Y-49811713D01*
X95314000Y-49011105D01*
X94513392Y-49811713D01*
X94547951Y-49932200D01*
X93648760Y-49932200D01*
X93957629Y-49623870D01*
X94037395Y-49431773D01*
X94091603Y-49562643D01*
X94333787Y-49632108D01*
X95134395Y-48831500D01*
X94333787Y-48030892D01*
X94091603Y-48100357D01*
X94041491Y-48240818D01*
X93959010Y-48041197D01*
X93566370Y-47647871D01*
X93358488Y-47561551D01*
X93564303Y-47476510D01*
X93957629Y-47083870D01*
X94043949Y-46875988D01*
X94128990Y-47081803D01*
X94521630Y-47475129D01*
X94713727Y-47554895D01*
X94582857Y-47609103D01*
X94513392Y-47851287D01*
X95314000Y-48651895D01*
X96114608Y-47851287D01*
X96045143Y-47609103D01*
X95904682Y-47558991D01*
X96104303Y-47476510D01*
X96497629Y-47083870D01*
X96583949Y-46875988D01*
X96668990Y-47081803D01*
X96668990Y-47081803D01*
G37*
X96668990Y-47081803D02*
X97061630Y-47475129D01*
X97269512Y-47561449D01*
X97063697Y-47646490D01*
X96670371Y-48039130D01*
X96590605Y-48231227D01*
X96536397Y-48100357D01*
X96294213Y-48030892D01*
X95493605Y-48831500D01*
X96294213Y-49632108D01*
X96536397Y-49562643D01*
X96586509Y-49422182D01*
X96668990Y-49621803D01*
X96978846Y-49932200D01*
X96080049Y-49932200D01*
X96114608Y-49811713D01*
X95314000Y-49011105D01*
X94513392Y-49811713D01*
X94547951Y-49932200D01*
X93648760Y-49932200D01*
X93957629Y-49623870D01*
X94037395Y-49431773D01*
X94091603Y-49562643D01*
X94333787Y-49632108D01*
X95134395Y-48831500D01*
X94333787Y-48030892D01*
X94091603Y-48100357D01*
X94041491Y-48240818D01*
X93959010Y-48041197D01*
X93566370Y-47647871D01*
X93358488Y-47561551D01*
X93564303Y-47476510D01*
X93957629Y-47083870D01*
X94043949Y-46875988D01*
X94128990Y-47081803D01*
X94521630Y-47475129D01*
X94713727Y-47554895D01*
X94582857Y-47609103D01*
X94513392Y-47851287D01*
X95314000Y-48651895D01*
X96114608Y-47851287D01*
X96045143Y-47609103D01*
X95904682Y-47558991D01*
X96104303Y-47476510D01*
X96497629Y-47083870D01*
X96583949Y-46875988D01*
X96668990Y-47081803D01*
G36*
X125987748Y-46277358D02*
X125973605Y-46291500D01*
X126774213Y-47092108D01*
X127016397Y-47022643D01*
X127066509Y-46882182D01*
X127148990Y-47081803D01*
X127541630Y-47475129D01*
X127749512Y-47561449D01*
X127543697Y-47646490D01*
X127150371Y-48039130D01*
X127064051Y-48247012D01*
X126979010Y-48041197D01*
X126586370Y-47647871D01*
X126394273Y-47568105D01*
X126525143Y-47513897D01*
X126594608Y-47271713D01*
X125794000Y-46471105D01*
X124993392Y-47271713D01*
X125062857Y-47513897D01*
X125203318Y-47564009D01*
X125003697Y-47646490D01*
X124610371Y-48039130D01*
X124524051Y-48247012D01*
X124439010Y-48041197D01*
X124046370Y-47647871D01*
X123838488Y-47561551D01*
X124044303Y-47476510D01*
X124437629Y-47083870D01*
X124517395Y-46891773D01*
X124571603Y-47022643D01*
X124813787Y-47092108D01*
X125614395Y-46291500D01*
X125600253Y-46277358D01*
X125779858Y-46097753D01*
X125794000Y-46111895D01*
X125808143Y-46097753D01*
X125987748Y-46277358D01*
X125987748Y-46277358D01*
G37*
X125987748Y-46277358D02*
X125973605Y-46291500D01*
X126774213Y-47092108D01*
X127016397Y-47022643D01*
X127066509Y-46882182D01*
X127148990Y-47081803D01*
X127541630Y-47475129D01*
X127749512Y-47561449D01*
X127543697Y-47646490D01*
X127150371Y-48039130D01*
X127064051Y-48247012D01*
X126979010Y-48041197D01*
X126586370Y-47647871D01*
X126394273Y-47568105D01*
X126525143Y-47513897D01*
X126594608Y-47271713D01*
X125794000Y-46471105D01*
X124993392Y-47271713D01*
X125062857Y-47513897D01*
X125203318Y-47564009D01*
X125003697Y-47646490D01*
X124610371Y-48039130D01*
X124524051Y-48247012D01*
X124439010Y-48041197D01*
X124046370Y-47647871D01*
X123838488Y-47561551D01*
X124044303Y-47476510D01*
X124437629Y-47083870D01*
X124517395Y-46891773D01*
X124571603Y-47022643D01*
X124813787Y-47092108D01*
X125614395Y-46291500D01*
X125600253Y-46277358D01*
X125779858Y-46097753D01*
X125794000Y-46111895D01*
X125808143Y-46097753D01*
X125987748Y-46277358D01*
G36*
X100587748Y-46277358D02*
X100573605Y-46291500D01*
X101374213Y-47092108D01*
X101616397Y-47022643D01*
X101666509Y-46882182D01*
X101748990Y-47081803D01*
X102141630Y-47475129D01*
X102349512Y-47561449D01*
X102143697Y-47646490D01*
X101750371Y-48039130D01*
X101664051Y-48247012D01*
X101579010Y-48041197D01*
X101186370Y-47647871D01*
X100994273Y-47568105D01*
X101125143Y-47513897D01*
X101194608Y-47271713D01*
X100394000Y-46471105D01*
X99593392Y-47271713D01*
X99662857Y-47513897D01*
X99803318Y-47564009D01*
X99603697Y-47646490D01*
X99210371Y-48039130D01*
X99124051Y-48247012D01*
X99039010Y-48041197D01*
X98646370Y-47647871D01*
X98438488Y-47561551D01*
X98644303Y-47476510D01*
X99037629Y-47083870D01*
X99117395Y-46891773D01*
X99171603Y-47022643D01*
X99413787Y-47092108D01*
X100214395Y-46291500D01*
X100200253Y-46277358D01*
X100379858Y-46097753D01*
X100394000Y-46111895D01*
X100408143Y-46097753D01*
X100587748Y-46277358D01*
X100587748Y-46277358D01*
G37*
X100587748Y-46277358D02*
X100573605Y-46291500D01*
X101374213Y-47092108D01*
X101616397Y-47022643D01*
X101666509Y-46882182D01*
X101748990Y-47081803D01*
X102141630Y-47475129D01*
X102349512Y-47561449D01*
X102143697Y-47646490D01*
X101750371Y-48039130D01*
X101664051Y-48247012D01*
X101579010Y-48041197D01*
X101186370Y-47647871D01*
X100994273Y-47568105D01*
X101125143Y-47513897D01*
X101194608Y-47271713D01*
X100394000Y-46471105D01*
X99593392Y-47271713D01*
X99662857Y-47513897D01*
X99803318Y-47564009D01*
X99603697Y-47646490D01*
X99210371Y-48039130D01*
X99124051Y-48247012D01*
X99039010Y-48041197D01*
X98646370Y-47647871D01*
X98438488Y-47561551D01*
X98644303Y-47476510D01*
X99037629Y-47083870D01*
X99117395Y-46891773D01*
X99171603Y-47022643D01*
X99413787Y-47092108D01*
X100214395Y-46291500D01*
X100200253Y-46277358D01*
X100379858Y-46097753D01*
X100394000Y-46111895D01*
X100408143Y-46097753D01*
X100587748Y-46277358D01*
G36*
X120907748Y-46277358D02*
X120893605Y-46291500D01*
X121694213Y-47092108D01*
X121936397Y-47022643D01*
X121986509Y-46882182D01*
X122068990Y-47081803D01*
X122461630Y-47475129D01*
X122669512Y-47561449D01*
X122463697Y-47646490D01*
X122070371Y-48039130D01*
X121984051Y-48247012D01*
X121899010Y-48041197D01*
X121506370Y-47647871D01*
X121314273Y-47568105D01*
X121445143Y-47513897D01*
X121514608Y-47271713D01*
X120714000Y-46471105D01*
X119913392Y-47271713D01*
X119982857Y-47513897D01*
X120123318Y-47564009D01*
X119923697Y-47646490D01*
X119530371Y-48039130D01*
X119444051Y-48247012D01*
X119359010Y-48041197D01*
X118966370Y-47647871D01*
X118758488Y-47561551D01*
X118964303Y-47476510D01*
X119357629Y-47083870D01*
X119437395Y-46891773D01*
X119491603Y-47022643D01*
X119733787Y-47092108D01*
X120534395Y-46291500D01*
X120520253Y-46277358D01*
X120699858Y-46097753D01*
X120714000Y-46111895D01*
X120728143Y-46097753D01*
X120907748Y-46277358D01*
X120907748Y-46277358D01*
G37*
X120907748Y-46277358D02*
X120893605Y-46291500D01*
X121694213Y-47092108D01*
X121936397Y-47022643D01*
X121986509Y-46882182D01*
X122068990Y-47081803D01*
X122461630Y-47475129D01*
X122669512Y-47561449D01*
X122463697Y-47646490D01*
X122070371Y-48039130D01*
X121984051Y-48247012D01*
X121899010Y-48041197D01*
X121506370Y-47647871D01*
X121314273Y-47568105D01*
X121445143Y-47513897D01*
X121514608Y-47271713D01*
X120714000Y-46471105D01*
X119913392Y-47271713D01*
X119982857Y-47513897D01*
X120123318Y-47564009D01*
X119923697Y-47646490D01*
X119530371Y-48039130D01*
X119444051Y-48247012D01*
X119359010Y-48041197D01*
X118966370Y-47647871D01*
X118758488Y-47561551D01*
X118964303Y-47476510D01*
X119357629Y-47083870D01*
X119437395Y-46891773D01*
X119491603Y-47022643D01*
X119733787Y-47092108D01*
X120534395Y-46291500D01*
X120520253Y-46277358D01*
X120699858Y-46097753D01*
X120714000Y-46111895D01*
X120728143Y-46097753D01*
X120907748Y-46277358D01*
G36*
X90427748Y-46277358D02*
X90413605Y-46291500D01*
X91214213Y-47092108D01*
X91456397Y-47022643D01*
X91506509Y-46882182D01*
X91588990Y-47081803D01*
X91981630Y-47475129D01*
X92189512Y-47561449D01*
X91983697Y-47646490D01*
X91590371Y-48039130D01*
X91504051Y-48247012D01*
X91419010Y-48041197D01*
X91026370Y-47647871D01*
X90834273Y-47568105D01*
X90965143Y-47513897D01*
X91034608Y-47271713D01*
X90234000Y-46471105D01*
X90219858Y-46485248D01*
X90040253Y-46305643D01*
X90054395Y-46291500D01*
X90040253Y-46277358D01*
X90219858Y-46097753D01*
X90234000Y-46111895D01*
X90248143Y-46097753D01*
X90427748Y-46277358D01*
X90427748Y-46277358D01*
G37*
X90427748Y-46277358D02*
X90413605Y-46291500D01*
X91214213Y-47092108D01*
X91456397Y-47022643D01*
X91506509Y-46882182D01*
X91588990Y-47081803D01*
X91981630Y-47475129D01*
X92189512Y-47561449D01*
X91983697Y-47646490D01*
X91590371Y-48039130D01*
X91504051Y-48247012D01*
X91419010Y-48041197D01*
X91026370Y-47647871D01*
X90834273Y-47568105D01*
X90965143Y-47513897D01*
X91034608Y-47271713D01*
X90234000Y-46471105D01*
X90219858Y-46485248D01*
X90040253Y-46305643D01*
X90054395Y-46291500D01*
X90040253Y-46277358D01*
X90219858Y-46097753D01*
X90234000Y-46111895D01*
X90248143Y-46097753D01*
X90427748Y-46277358D01*
G36*
X108207748Y-46277358D02*
X108193605Y-46291500D01*
X108994213Y-47092108D01*
X109236397Y-47022643D01*
X109286509Y-46882182D01*
X109368990Y-47081803D01*
X109761630Y-47475129D01*
X109969512Y-47561449D01*
X109763697Y-47646490D01*
X109370371Y-48039130D01*
X109284051Y-48247012D01*
X109199010Y-48041197D01*
X108806370Y-47647871D01*
X108614273Y-47568105D01*
X108745143Y-47513897D01*
X108814608Y-47271713D01*
X108014000Y-46471105D01*
X107213392Y-47271713D01*
X107282857Y-47513897D01*
X107423318Y-47564009D01*
X107223697Y-47646490D01*
X106830371Y-48039130D01*
X106744051Y-48247012D01*
X106659010Y-48041197D01*
X106266370Y-47647871D01*
X106058488Y-47561551D01*
X106264303Y-47476510D01*
X106657629Y-47083870D01*
X106737395Y-46891773D01*
X106791603Y-47022643D01*
X107033787Y-47092108D01*
X107834395Y-46291500D01*
X107820253Y-46277358D01*
X107999858Y-46097753D01*
X108014000Y-46111895D01*
X108028143Y-46097753D01*
X108207748Y-46277358D01*
X108207748Y-46277358D01*
G37*
X108207748Y-46277358D02*
X108193605Y-46291500D01*
X108994213Y-47092108D01*
X109236397Y-47022643D01*
X109286509Y-46882182D01*
X109368990Y-47081803D01*
X109761630Y-47475129D01*
X109969512Y-47561449D01*
X109763697Y-47646490D01*
X109370371Y-48039130D01*
X109284051Y-48247012D01*
X109199010Y-48041197D01*
X108806370Y-47647871D01*
X108614273Y-47568105D01*
X108745143Y-47513897D01*
X108814608Y-47271713D01*
X108014000Y-46471105D01*
X107213392Y-47271713D01*
X107282857Y-47513897D01*
X107423318Y-47564009D01*
X107223697Y-47646490D01*
X106830371Y-48039130D01*
X106744051Y-48247012D01*
X106659010Y-48041197D01*
X106266370Y-47647871D01*
X106058488Y-47561551D01*
X106264303Y-47476510D01*
X106657629Y-47083870D01*
X106737395Y-46891773D01*
X106791603Y-47022643D01*
X107033787Y-47092108D01*
X107834395Y-46291500D01*
X107820253Y-46277358D01*
X107999858Y-46097753D01*
X108014000Y-46111895D01*
X108028143Y-46097753D01*
X108207748Y-46277358D01*
G36*
X129688990Y-47081803D02*
X130081630Y-47475129D01*
X130289512Y-47561449D01*
X130083697Y-47646490D01*
X129690371Y-48039130D01*
X129604051Y-48247012D01*
X129519010Y-48041197D01*
X129126370Y-47647871D01*
X128918488Y-47561551D01*
X129124303Y-47476510D01*
X129517629Y-47083870D01*
X129603949Y-46875988D01*
X129688990Y-47081803D01*
X129688990Y-47081803D01*
G37*
X129688990Y-47081803D02*
X130081630Y-47475129D01*
X130289512Y-47561449D01*
X130083697Y-47646490D01*
X129690371Y-48039130D01*
X129604051Y-48247012D01*
X129519010Y-48041197D01*
X129126370Y-47647871D01*
X128918488Y-47561551D01*
X129124303Y-47476510D01*
X129517629Y-47083870D01*
X129603949Y-46875988D01*
X129688990Y-47081803D01*
M02*
