G04 #@! TF.FileFunction,Legend,Bot*
%FSLAX46Y46*%
G04 Gerber Fmt 4.6, Leading zero omitted, Abs format (unit mm)*
G04 Created by KiCad (PCBNEW 4.0.2-stable) date 05/04/2016 23:50:18*
%MOMM*%
G01*
G04 APERTURE LIST*
%ADD10C,0.100000*%
%ADD11C,0.150000*%
G04 APERTURE END LIST*
D10*
D11*
X126277714Y-64573429D02*
X127087238Y-64573429D01*
X127182476Y-64525810D01*
X127230095Y-64478191D01*
X127277714Y-64382952D01*
X127277714Y-64240095D01*
X127230095Y-64144857D01*
X126896762Y-64573429D02*
X126944381Y-64478191D01*
X126944381Y-64287714D01*
X126896762Y-64192476D01*
X126849143Y-64144857D01*
X126753905Y-64097238D01*
X126468190Y-64097238D01*
X126372952Y-64144857D01*
X126325333Y-64192476D01*
X126277714Y-64287714D01*
X126277714Y-64478191D01*
X126325333Y-64573429D01*
X126944381Y-65049619D02*
X126277714Y-65049619D01*
X125944381Y-65049619D02*
X125992000Y-65002000D01*
X126039619Y-65049619D01*
X125992000Y-65097238D01*
X125944381Y-65049619D01*
X126039619Y-65049619D01*
X126277714Y-65382952D02*
X126277714Y-65763904D01*
X125944381Y-65525809D02*
X126801524Y-65525809D01*
X126896762Y-65573428D01*
X126944381Y-65668666D01*
X126944381Y-65763904D01*
X126944381Y-66097238D02*
X125944381Y-66097238D01*
X126944381Y-66525810D02*
X126420571Y-66525810D01*
X126325333Y-66478191D01*
X126277714Y-66382953D01*
X126277714Y-66240095D01*
X126325333Y-66144857D01*
X126372952Y-66097238D01*
X126277714Y-67430572D02*
X126944381Y-67430572D01*
X126277714Y-67002000D02*
X126801524Y-67002000D01*
X126896762Y-67049619D01*
X126944381Y-67144857D01*
X126944381Y-67287715D01*
X126896762Y-67382953D01*
X126849143Y-67430572D01*
X126944381Y-67906762D02*
X125944381Y-67906762D01*
X126325333Y-67906762D02*
X126277714Y-68002000D01*
X126277714Y-68192477D01*
X126325333Y-68287715D01*
X126372952Y-68335334D01*
X126468190Y-68382953D01*
X126753905Y-68382953D01*
X126849143Y-68335334D01*
X126896762Y-68287715D01*
X126944381Y-68192477D01*
X126944381Y-68002000D01*
X126896762Y-67906762D01*
X126849143Y-68811524D02*
X126896762Y-68859143D01*
X126944381Y-68811524D01*
X126896762Y-68763905D01*
X126849143Y-68811524D01*
X126944381Y-68811524D01*
X126896762Y-69716286D02*
X126944381Y-69621048D01*
X126944381Y-69430571D01*
X126896762Y-69335333D01*
X126849143Y-69287714D01*
X126753905Y-69240095D01*
X126468190Y-69240095D01*
X126372952Y-69287714D01*
X126325333Y-69335333D01*
X126277714Y-69430571D01*
X126277714Y-69621048D01*
X126325333Y-69716286D01*
X126944381Y-70287714D02*
X126896762Y-70192476D01*
X126849143Y-70144857D01*
X126753905Y-70097238D01*
X126468190Y-70097238D01*
X126372952Y-70144857D01*
X126325333Y-70192476D01*
X126277714Y-70287714D01*
X126277714Y-70430572D01*
X126325333Y-70525810D01*
X126372952Y-70573429D01*
X126468190Y-70621048D01*
X126753905Y-70621048D01*
X126849143Y-70573429D01*
X126896762Y-70525810D01*
X126944381Y-70430572D01*
X126944381Y-70287714D01*
X126944381Y-71049619D02*
X126277714Y-71049619D01*
X126372952Y-71049619D02*
X126325333Y-71097238D01*
X126277714Y-71192476D01*
X126277714Y-71335334D01*
X126325333Y-71430572D01*
X126420571Y-71478191D01*
X126944381Y-71478191D01*
X126420571Y-71478191D02*
X126325333Y-71525810D01*
X126277714Y-71621048D01*
X126277714Y-71763905D01*
X126325333Y-71859143D01*
X126420571Y-71906762D01*
X126944381Y-71906762D01*
X125896762Y-73097238D02*
X127182476Y-72240095D01*
X126944381Y-73430571D02*
X126277714Y-73430571D01*
X126372952Y-73430571D02*
X126325333Y-73478190D01*
X126277714Y-73573428D01*
X126277714Y-73716286D01*
X126325333Y-73811524D01*
X126420571Y-73859143D01*
X126944381Y-73859143D01*
X126420571Y-73859143D02*
X126325333Y-73906762D01*
X126277714Y-74002000D01*
X126277714Y-74144857D01*
X126325333Y-74240095D01*
X126420571Y-74287714D01*
X126944381Y-74287714D01*
X126944381Y-75192476D02*
X126420571Y-75192476D01*
X126325333Y-75144857D01*
X126277714Y-75049619D01*
X126277714Y-74859142D01*
X126325333Y-74763904D01*
X126896762Y-75192476D02*
X126944381Y-75097238D01*
X126944381Y-74859142D01*
X126896762Y-74763904D01*
X126801524Y-74716285D01*
X126706286Y-74716285D01*
X126611048Y-74763904D01*
X126563429Y-74859142D01*
X126563429Y-75097238D01*
X126515810Y-75192476D01*
X126944381Y-75668666D02*
X126277714Y-75668666D01*
X126468190Y-75668666D02*
X126372952Y-75716285D01*
X126325333Y-75763904D01*
X126277714Y-75859142D01*
X126277714Y-75954381D01*
X126944381Y-76287714D02*
X125944381Y-76287714D01*
X126563429Y-76382952D02*
X126944381Y-76668667D01*
X126277714Y-76668667D02*
X126658667Y-76287714D01*
X126277714Y-77097238D02*
X127134857Y-77097238D01*
X127230095Y-77049619D01*
X127277714Y-76954381D01*
X127277714Y-76906762D01*
X125944381Y-77097238D02*
X125992000Y-77049619D01*
X126039619Y-77097238D01*
X125992000Y-77144857D01*
X125944381Y-77097238D01*
X126039619Y-77097238D01*
X126944381Y-77573428D02*
X125944381Y-77573428D01*
X126325333Y-77573428D02*
X126277714Y-77668666D01*
X126277714Y-77859143D01*
X126325333Y-77954381D01*
X126372952Y-78002000D01*
X126468190Y-78049619D01*
X126753905Y-78049619D01*
X126849143Y-78002000D01*
X126896762Y-77954381D01*
X126944381Y-77859143D01*
X126944381Y-77668666D01*
X126896762Y-77573428D01*
X125896762Y-79192476D02*
X127182476Y-78335333D01*
X126277714Y-79525809D02*
X127277714Y-79525809D01*
X126325333Y-79525809D02*
X126277714Y-79621047D01*
X126277714Y-79811524D01*
X126325333Y-79906762D01*
X126372952Y-79954381D01*
X126468190Y-80002000D01*
X126753905Y-80002000D01*
X126849143Y-79954381D01*
X126896762Y-79906762D01*
X126944381Y-79811524D01*
X126944381Y-79621047D01*
X126896762Y-79525809D01*
X126944381Y-80430571D02*
X126277714Y-80430571D01*
X125944381Y-80430571D02*
X125992000Y-80382952D01*
X126039619Y-80430571D01*
X125992000Y-80478190D01*
X125944381Y-80430571D01*
X126039619Y-80430571D01*
X126563429Y-80906761D02*
X126563429Y-81668666D01*
X126039619Y-82097237D02*
X125992000Y-82144856D01*
X125944381Y-82240094D01*
X125944381Y-82478190D01*
X125992000Y-82573428D01*
X126039619Y-82621047D01*
X126134857Y-82668666D01*
X126230095Y-82668666D01*
X126372952Y-82621047D01*
X126944381Y-82049618D01*
X126944381Y-82668666D01*
X126563429Y-83097237D02*
X126563429Y-83859142D01*
X126896762Y-84287713D02*
X126944381Y-84382951D01*
X126944381Y-84573427D01*
X126896762Y-84668666D01*
X126801524Y-84716285D01*
X126753905Y-84716285D01*
X126658667Y-84668666D01*
X126611048Y-84573427D01*
X126611048Y-84430570D01*
X126563429Y-84335332D01*
X126468190Y-84287713D01*
X126420571Y-84287713D01*
X126325333Y-84335332D01*
X126277714Y-84430570D01*
X126277714Y-84573427D01*
X126325333Y-84668666D01*
X126277714Y-85001999D02*
X126277714Y-85382951D01*
X125944381Y-85144856D02*
X126801524Y-85144856D01*
X126896762Y-85192475D01*
X126944381Y-85287713D01*
X126944381Y-85382951D01*
X126896762Y-86097238D02*
X126944381Y-86002000D01*
X126944381Y-85811523D01*
X126896762Y-85716285D01*
X126801524Y-85668666D01*
X126420571Y-85668666D01*
X126325333Y-85716285D01*
X126277714Y-85811523D01*
X126277714Y-86002000D01*
X126325333Y-86097238D01*
X126420571Y-86144857D01*
X126515810Y-86144857D01*
X126611048Y-85668666D01*
X126277714Y-86573428D02*
X127277714Y-86573428D01*
X126325333Y-86573428D02*
X126277714Y-86668666D01*
X126277714Y-86859143D01*
X126325333Y-86954381D01*
X126372952Y-87002000D01*
X126468190Y-87049619D01*
X126753905Y-87049619D01*
X126849143Y-87002000D01*
X126896762Y-86954381D01*
X126944381Y-86859143D01*
X126944381Y-86668666D01*
X126896762Y-86573428D01*
X126277714Y-87478190D02*
X127277714Y-87478190D01*
X126325333Y-87478190D02*
X126277714Y-87573428D01*
X126277714Y-87763905D01*
X126325333Y-87859143D01*
X126372952Y-87906762D01*
X126468190Y-87954381D01*
X126753905Y-87954381D01*
X126849143Y-87906762D01*
X126896762Y-87859143D01*
X126944381Y-87763905D01*
X126944381Y-87573428D01*
X126896762Y-87478190D01*
X126896762Y-88763905D02*
X126944381Y-88668667D01*
X126944381Y-88478190D01*
X126896762Y-88382952D01*
X126801524Y-88335333D01*
X126420571Y-88335333D01*
X126325333Y-88382952D01*
X126277714Y-88478190D01*
X126277714Y-88668667D01*
X126325333Y-88763905D01*
X126420571Y-88811524D01*
X126515810Y-88811524D01*
X126611048Y-88335333D01*
X126944381Y-89240095D02*
X126277714Y-89240095D01*
X126468190Y-89240095D02*
X126372952Y-89287714D01*
X126325333Y-89335333D01*
X126277714Y-89430571D01*
X126277714Y-89525810D01*
X126563429Y-89859143D02*
X126563429Y-90621048D01*
X126944381Y-91097238D02*
X125944381Y-91097238D01*
X126325333Y-91097238D02*
X126277714Y-91192476D01*
X126277714Y-91382953D01*
X126325333Y-91478191D01*
X126372952Y-91525810D01*
X126468190Y-91573429D01*
X126753905Y-91573429D01*
X126849143Y-91525810D01*
X126896762Y-91478191D01*
X126944381Y-91382953D01*
X126944381Y-91192476D01*
X126896762Y-91097238D01*
X126944381Y-92144857D02*
X126896762Y-92049619D01*
X126849143Y-92002000D01*
X126753905Y-91954381D01*
X126468190Y-91954381D01*
X126372952Y-92002000D01*
X126325333Y-92049619D01*
X126277714Y-92144857D01*
X126277714Y-92287715D01*
X126325333Y-92382953D01*
X126372952Y-92430572D01*
X126468190Y-92478191D01*
X126753905Y-92478191D01*
X126849143Y-92430572D01*
X126896762Y-92382953D01*
X126944381Y-92287715D01*
X126944381Y-92144857D01*
X126944381Y-93335334D02*
X126420571Y-93335334D01*
X126325333Y-93287715D01*
X126277714Y-93192477D01*
X126277714Y-93002000D01*
X126325333Y-92906762D01*
X126896762Y-93335334D02*
X126944381Y-93240096D01*
X126944381Y-93002000D01*
X126896762Y-92906762D01*
X126801524Y-92859143D01*
X126706286Y-92859143D01*
X126611048Y-92906762D01*
X126563429Y-93002000D01*
X126563429Y-93240096D01*
X126515810Y-93335334D01*
X126944381Y-93811524D02*
X126277714Y-93811524D01*
X126468190Y-93811524D02*
X126372952Y-93859143D01*
X126325333Y-93906762D01*
X126277714Y-94002000D01*
X126277714Y-94097239D01*
X126944381Y-94859144D02*
X125944381Y-94859144D01*
X126896762Y-94859144D02*
X126944381Y-94763906D01*
X126944381Y-94573429D01*
X126896762Y-94478191D01*
X126849143Y-94430572D01*
X126753905Y-94382953D01*
X126468190Y-94382953D01*
X126372952Y-94430572D01*
X126325333Y-94478191D01*
X126277714Y-94573429D01*
X126277714Y-94763906D01*
X126325333Y-94859144D01*
X104084381Y-53755380D02*
X103084381Y-53755380D01*
X103084381Y-53993475D01*
X103132000Y-54136333D01*
X103227238Y-54231571D01*
X103322476Y-54279190D01*
X103512952Y-54326809D01*
X103655810Y-54326809D01*
X103846286Y-54279190D01*
X103941524Y-54231571D01*
X104036762Y-54136333D01*
X104084381Y-53993475D01*
X104084381Y-53755380D01*
X104036762Y-55136333D02*
X104084381Y-55041095D01*
X104084381Y-54850618D01*
X104036762Y-54755380D01*
X103941524Y-54707761D01*
X103560571Y-54707761D01*
X103465333Y-54755380D01*
X103417714Y-54850618D01*
X103417714Y-55041095D01*
X103465333Y-55136333D01*
X103560571Y-55183952D01*
X103655810Y-55183952D01*
X103751048Y-54707761D01*
X104036762Y-55564904D02*
X104084381Y-55660142D01*
X104084381Y-55850618D01*
X104036762Y-55945857D01*
X103941524Y-55993476D01*
X103893905Y-55993476D01*
X103798667Y-55945857D01*
X103751048Y-55850618D01*
X103751048Y-55707761D01*
X103703429Y-55612523D01*
X103608190Y-55564904D01*
X103560571Y-55564904D01*
X103465333Y-55612523D01*
X103417714Y-55707761D01*
X103417714Y-55850618D01*
X103465333Y-55945857D01*
X104084381Y-56422047D02*
X103417714Y-56422047D01*
X103084381Y-56422047D02*
X103132000Y-56374428D01*
X103179619Y-56422047D01*
X103132000Y-56469666D01*
X103084381Y-56422047D01*
X103179619Y-56422047D01*
X103417714Y-57326809D02*
X104227238Y-57326809D01*
X104322476Y-57279190D01*
X104370095Y-57231571D01*
X104417714Y-57136332D01*
X104417714Y-56993475D01*
X104370095Y-56898237D01*
X104036762Y-57326809D02*
X104084381Y-57231571D01*
X104084381Y-57041094D01*
X104036762Y-56945856D01*
X103989143Y-56898237D01*
X103893905Y-56850618D01*
X103608190Y-56850618D01*
X103512952Y-56898237D01*
X103465333Y-56945856D01*
X103417714Y-57041094D01*
X103417714Y-57231571D01*
X103465333Y-57326809D01*
X103417714Y-57802999D02*
X104084381Y-57802999D01*
X103512952Y-57802999D02*
X103465333Y-57850618D01*
X103417714Y-57945856D01*
X103417714Y-58088714D01*
X103465333Y-58183952D01*
X103560571Y-58231571D01*
X104084381Y-58231571D01*
X104036762Y-59088714D02*
X104084381Y-58993476D01*
X104084381Y-58802999D01*
X104036762Y-58707761D01*
X103941524Y-58660142D01*
X103560571Y-58660142D01*
X103465333Y-58707761D01*
X103417714Y-58802999D01*
X103417714Y-58993476D01*
X103465333Y-59088714D01*
X103560571Y-59136333D01*
X103655810Y-59136333D01*
X103751048Y-58660142D01*
X104084381Y-59993476D02*
X103084381Y-59993476D01*
X104036762Y-59993476D02*
X104084381Y-59898238D01*
X104084381Y-59707761D01*
X104036762Y-59612523D01*
X103989143Y-59564904D01*
X103893905Y-59517285D01*
X103608190Y-59517285D01*
X103512952Y-59564904D01*
X103465333Y-59612523D01*
X103417714Y-59707761D01*
X103417714Y-59898238D01*
X103465333Y-59993476D01*
X103417714Y-61088714D02*
X103417714Y-61469666D01*
X104084381Y-61231571D02*
X103227238Y-61231571D01*
X103132000Y-61279190D01*
X103084381Y-61374428D01*
X103084381Y-61469666D01*
X104084381Y-61945857D02*
X104036762Y-61850619D01*
X103989143Y-61803000D01*
X103893905Y-61755381D01*
X103608190Y-61755381D01*
X103512952Y-61803000D01*
X103465333Y-61850619D01*
X103417714Y-61945857D01*
X103417714Y-62088715D01*
X103465333Y-62183953D01*
X103512952Y-62231572D01*
X103608190Y-62279191D01*
X103893905Y-62279191D01*
X103989143Y-62231572D01*
X104036762Y-62183953D01*
X104084381Y-62088715D01*
X104084381Y-61945857D01*
X104084381Y-62707762D02*
X103417714Y-62707762D01*
X103608190Y-62707762D02*
X103512952Y-62755381D01*
X103465333Y-62803000D01*
X103417714Y-62898238D01*
X103417714Y-62993477D01*
X103417714Y-64517287D02*
X104084381Y-64517287D01*
X103417714Y-64088715D02*
X103941524Y-64088715D01*
X104036762Y-64136334D01*
X104084381Y-64231572D01*
X104084381Y-64374430D01*
X104036762Y-64469668D01*
X103989143Y-64517287D01*
X104036762Y-64945858D02*
X104084381Y-65041096D01*
X104084381Y-65231572D01*
X104036762Y-65326811D01*
X103941524Y-65374430D01*
X103893905Y-65374430D01*
X103798667Y-65326811D01*
X103751048Y-65231572D01*
X103751048Y-65088715D01*
X103703429Y-64993477D01*
X103608190Y-64945858D01*
X103560571Y-64945858D01*
X103465333Y-64993477D01*
X103417714Y-65088715D01*
X103417714Y-65231572D01*
X103465333Y-65326811D01*
X104036762Y-66183954D02*
X104084381Y-66088716D01*
X104084381Y-65898239D01*
X104036762Y-65803001D01*
X103941524Y-65755382D01*
X103560571Y-65755382D01*
X103465333Y-65803001D01*
X103417714Y-65898239D01*
X103417714Y-66088716D01*
X103465333Y-66183954D01*
X103560571Y-66231573D01*
X103655810Y-66231573D01*
X103751048Y-65755382D01*
X103417714Y-67326811D02*
X104084381Y-67517287D01*
X103608190Y-67707764D01*
X104084381Y-67898240D01*
X103417714Y-68088716D01*
X104084381Y-68469668D02*
X103417714Y-68469668D01*
X103084381Y-68469668D02*
X103132000Y-68422049D01*
X103179619Y-68469668D01*
X103132000Y-68517287D01*
X103084381Y-68469668D01*
X103179619Y-68469668D01*
X103417714Y-68803001D02*
X103417714Y-69183953D01*
X103084381Y-68945858D02*
X103941524Y-68945858D01*
X104036762Y-68993477D01*
X104084381Y-69088715D01*
X104084381Y-69183953D01*
X104084381Y-69517287D02*
X103084381Y-69517287D01*
X104084381Y-69945859D02*
X103560571Y-69945859D01*
X103465333Y-69898240D01*
X103417714Y-69803002D01*
X103417714Y-69660144D01*
X103465333Y-69564906D01*
X103512952Y-69517287D01*
X103417714Y-71088716D02*
X104084381Y-71326811D01*
X103417714Y-71564907D01*
X104084381Y-71945859D02*
X103084381Y-71945859D01*
X103084381Y-72326812D01*
X103132000Y-72422050D01*
X103179619Y-72469669D01*
X103274857Y-72517288D01*
X103417714Y-72517288D01*
X103512952Y-72469669D01*
X103560571Y-72422050D01*
X103608190Y-72326812D01*
X103608190Y-71945859D01*
X104084381Y-72945859D02*
X103417714Y-72945859D01*
X103084381Y-72945859D02*
X103132000Y-72898240D01*
X103179619Y-72945859D01*
X103132000Y-72993478D01*
X103084381Y-72945859D01*
X103179619Y-72945859D01*
X104084381Y-73422049D02*
X103084381Y-73422049D01*
X103084381Y-73803002D01*
X103132000Y-73898240D01*
X103179619Y-73945859D01*
X103274857Y-73993478D01*
X103417714Y-73993478D01*
X103512952Y-73945859D01*
X103560571Y-73898240D01*
X103608190Y-73803002D01*
X103608190Y-73422049D01*
X103417714Y-75612526D02*
X104227238Y-75612526D01*
X104322476Y-75564907D01*
X104370095Y-75517288D01*
X104417714Y-75422049D01*
X104417714Y-75279192D01*
X104370095Y-75183954D01*
X104036762Y-75612526D02*
X104084381Y-75517288D01*
X104084381Y-75326811D01*
X104036762Y-75231573D01*
X103989143Y-75183954D01*
X103893905Y-75136335D01*
X103608190Y-75136335D01*
X103512952Y-75183954D01*
X103465333Y-75231573D01*
X103417714Y-75326811D01*
X103417714Y-75517288D01*
X103465333Y-75612526D01*
X104084381Y-76088716D02*
X103417714Y-76088716D01*
X103084381Y-76088716D02*
X103132000Y-76041097D01*
X103179619Y-76088716D01*
X103132000Y-76136335D01*
X103084381Y-76088716D01*
X103179619Y-76088716D01*
X103417714Y-76422049D02*
X103417714Y-76803001D01*
X103084381Y-76564906D02*
X103941524Y-76564906D01*
X104036762Y-76612525D01*
X104084381Y-76707763D01*
X104084381Y-76803001D01*
X104084381Y-77136335D02*
X103084381Y-77136335D01*
X104084381Y-77564907D02*
X103560571Y-77564907D01*
X103465333Y-77517288D01*
X103417714Y-77422050D01*
X103417714Y-77279192D01*
X103465333Y-77183954D01*
X103512952Y-77136335D01*
X103417714Y-78469669D02*
X104084381Y-78469669D01*
X103417714Y-78041097D02*
X103941524Y-78041097D01*
X104036762Y-78088716D01*
X104084381Y-78183954D01*
X104084381Y-78326812D01*
X104036762Y-78422050D01*
X103989143Y-78469669D01*
X104084381Y-78945859D02*
X103084381Y-78945859D01*
X103465333Y-78945859D02*
X103417714Y-79041097D01*
X103417714Y-79231574D01*
X103465333Y-79326812D01*
X103512952Y-79374431D01*
X103608190Y-79422050D01*
X103893905Y-79422050D01*
X103989143Y-79374431D01*
X104036762Y-79326812D01*
X104084381Y-79231574D01*
X104084381Y-79041097D01*
X104036762Y-78945859D01*
X103989143Y-79850621D02*
X104036762Y-79898240D01*
X104084381Y-79850621D01*
X104036762Y-79803002D01*
X103989143Y-79850621D01*
X104084381Y-79850621D01*
X104036762Y-80755383D02*
X104084381Y-80660145D01*
X104084381Y-80469668D01*
X104036762Y-80374430D01*
X103989143Y-80326811D01*
X103893905Y-80279192D01*
X103608190Y-80279192D01*
X103512952Y-80326811D01*
X103465333Y-80374430D01*
X103417714Y-80469668D01*
X103417714Y-80660145D01*
X103465333Y-80755383D01*
X104084381Y-81326811D02*
X104036762Y-81231573D01*
X103989143Y-81183954D01*
X103893905Y-81136335D01*
X103608190Y-81136335D01*
X103512952Y-81183954D01*
X103465333Y-81231573D01*
X103417714Y-81326811D01*
X103417714Y-81469669D01*
X103465333Y-81564907D01*
X103512952Y-81612526D01*
X103608190Y-81660145D01*
X103893905Y-81660145D01*
X103989143Y-81612526D01*
X104036762Y-81564907D01*
X104084381Y-81469669D01*
X104084381Y-81326811D01*
X104084381Y-82088716D02*
X103417714Y-82088716D01*
X103512952Y-82088716D02*
X103465333Y-82136335D01*
X103417714Y-82231573D01*
X103417714Y-82374431D01*
X103465333Y-82469669D01*
X103560571Y-82517288D01*
X104084381Y-82517288D01*
X103560571Y-82517288D02*
X103465333Y-82564907D01*
X103417714Y-82660145D01*
X103417714Y-82803002D01*
X103465333Y-82898240D01*
X103560571Y-82945859D01*
X104084381Y-82945859D01*
X103036762Y-84136335D02*
X104322476Y-83279192D01*
X104084381Y-84469668D02*
X103084381Y-84469668D01*
X103465333Y-84469668D02*
X103417714Y-84564906D01*
X103417714Y-84755383D01*
X103465333Y-84850621D01*
X103512952Y-84898240D01*
X103608190Y-84945859D01*
X103893905Y-84945859D01*
X103989143Y-84898240D01*
X104036762Y-84850621D01*
X104084381Y-84755383D01*
X104084381Y-84564906D01*
X104036762Y-84469668D01*
X104084381Y-85374430D02*
X103417714Y-85374430D01*
X103608190Y-85374430D02*
X103512952Y-85422049D01*
X103465333Y-85469668D01*
X103417714Y-85564906D01*
X103417714Y-85660145D01*
X104084381Y-85993478D02*
X103417714Y-85993478D01*
X103084381Y-85993478D02*
X103132000Y-85945859D01*
X103179619Y-85993478D01*
X103132000Y-86041097D01*
X103084381Y-85993478D01*
X103179619Y-85993478D01*
X104084381Y-86898240D02*
X103560571Y-86898240D01*
X103465333Y-86850621D01*
X103417714Y-86755383D01*
X103417714Y-86564906D01*
X103465333Y-86469668D01*
X104036762Y-86898240D02*
X104084381Y-86803002D01*
X104084381Y-86564906D01*
X104036762Y-86469668D01*
X103941524Y-86422049D01*
X103846286Y-86422049D01*
X103751048Y-86469668D01*
X103703429Y-86564906D01*
X103703429Y-86803002D01*
X103655810Y-86898240D01*
X103417714Y-87374430D02*
X104084381Y-87374430D01*
X103512952Y-87374430D02*
X103465333Y-87422049D01*
X103417714Y-87517287D01*
X103417714Y-87660145D01*
X103465333Y-87755383D01*
X103560571Y-87803002D01*
X104084381Y-87803002D01*
X104084381Y-88279192D02*
X103417714Y-88279192D01*
X103084381Y-88279192D02*
X103132000Y-88231573D01*
X103179619Y-88279192D01*
X103132000Y-88326811D01*
X103084381Y-88279192D01*
X103179619Y-88279192D01*
X103417714Y-88755382D02*
X104084381Y-88755382D01*
X103512952Y-88755382D02*
X103465333Y-88803001D01*
X103417714Y-88898239D01*
X103417714Y-89041097D01*
X103465333Y-89136335D01*
X103560571Y-89183954D01*
X104084381Y-89183954D01*
X103417714Y-89660144D02*
X104084381Y-89660144D01*
X103512952Y-89660144D02*
X103465333Y-89707763D01*
X103417714Y-89803001D01*
X103417714Y-89945859D01*
X103465333Y-90041097D01*
X103560571Y-90088716D01*
X104084381Y-90088716D01*
X104036762Y-90945859D02*
X104084381Y-90850621D01*
X104084381Y-90660144D01*
X104036762Y-90564906D01*
X103941524Y-90517287D01*
X103560571Y-90517287D01*
X103465333Y-90564906D01*
X103417714Y-90660144D01*
X103417714Y-90850621D01*
X103465333Y-90945859D01*
X103560571Y-90993478D01*
X103655810Y-90993478D01*
X103751048Y-90517287D01*
X104036762Y-91374430D02*
X104084381Y-91469668D01*
X104084381Y-91660144D01*
X104036762Y-91755383D01*
X103941524Y-91803002D01*
X103893905Y-91803002D01*
X103798667Y-91755383D01*
X103751048Y-91660144D01*
X103751048Y-91517287D01*
X103703429Y-91422049D01*
X103608190Y-91374430D01*
X103560571Y-91374430D01*
X103465333Y-91422049D01*
X103417714Y-91517287D01*
X103417714Y-91660144D01*
X103465333Y-91755383D01*
X103036762Y-92945859D02*
X104322476Y-92088716D01*
X103417714Y-93183954D02*
X104084381Y-93422049D01*
X103417714Y-93660145D01*
X103417714Y-94041097D02*
X104417714Y-94041097D01*
X103465333Y-94041097D02*
X103417714Y-94136335D01*
X103417714Y-94326812D01*
X103465333Y-94422050D01*
X103512952Y-94469669D01*
X103608190Y-94517288D01*
X103893905Y-94517288D01*
X103989143Y-94469669D01*
X104036762Y-94422050D01*
X104084381Y-94326812D01*
X104084381Y-94136335D01*
X104036762Y-94041097D01*
X104084381Y-94945859D02*
X103417714Y-94945859D01*
X103084381Y-94945859D02*
X103132000Y-94898240D01*
X103179619Y-94945859D01*
X103132000Y-94993478D01*
X103084381Y-94945859D01*
X103179619Y-94945859D01*
X103417714Y-95422049D02*
X104417714Y-95422049D01*
X103465333Y-95422049D02*
X103417714Y-95517287D01*
X103417714Y-95707764D01*
X103465333Y-95803002D01*
X103512952Y-95850621D01*
X103608190Y-95898240D01*
X103893905Y-95898240D01*
X103989143Y-95850621D01*
X104036762Y-95803002D01*
X104084381Y-95707764D01*
X104084381Y-95517287D01*
X104036762Y-95422049D01*
X97075286Y-71298143D02*
X97122905Y-71345762D01*
X97265762Y-71393381D01*
X97361000Y-71393381D01*
X97503858Y-71345762D01*
X97599096Y-71250524D01*
X97646715Y-71155286D01*
X97694334Y-70964810D01*
X97694334Y-70821952D01*
X97646715Y-70631476D01*
X97599096Y-70536238D01*
X97503858Y-70441000D01*
X97361000Y-70393381D01*
X97265762Y-70393381D01*
X97122905Y-70441000D01*
X97075286Y-70488619D01*
X96503858Y-71393381D02*
X96599096Y-71345762D01*
X96646715Y-71298143D01*
X96694334Y-71202905D01*
X96694334Y-70917190D01*
X96646715Y-70821952D01*
X96599096Y-70774333D01*
X96503858Y-70726714D01*
X96361000Y-70726714D01*
X96265762Y-70774333D01*
X96218143Y-70821952D01*
X96170524Y-70917190D01*
X96170524Y-71202905D01*
X96218143Y-71298143D01*
X96265762Y-71345762D01*
X96361000Y-71393381D01*
X96503858Y-71393381D01*
X95741953Y-70726714D02*
X95741953Y-71726714D01*
X95741953Y-70774333D02*
X95646715Y-70726714D01*
X95456238Y-70726714D01*
X95361000Y-70774333D01*
X95313381Y-70821952D01*
X95265762Y-70917190D01*
X95265762Y-71202905D01*
X95313381Y-71298143D01*
X95361000Y-71345762D01*
X95456238Y-71393381D01*
X95646715Y-71393381D01*
X95741953Y-71345762D01*
X94932429Y-70726714D02*
X94694334Y-71393381D01*
X94456238Y-70726714D02*
X94694334Y-71393381D01*
X94789572Y-71631476D01*
X94837191Y-71679095D01*
X94932429Y-71726714D01*
X94075286Y-71393381D02*
X94075286Y-70726714D01*
X94075286Y-70917190D02*
X94027667Y-70821952D01*
X93980048Y-70774333D01*
X93884810Y-70726714D01*
X93789571Y-70726714D01*
X93456238Y-71393381D02*
X93456238Y-70726714D01*
X93456238Y-70393381D02*
X93503857Y-70441000D01*
X93456238Y-70488619D01*
X93408619Y-70441000D01*
X93456238Y-70393381D01*
X93456238Y-70488619D01*
X92551476Y-70726714D02*
X92551476Y-71536238D01*
X92599095Y-71631476D01*
X92646714Y-71679095D01*
X92741953Y-71726714D01*
X92884810Y-71726714D01*
X92980048Y-71679095D01*
X92551476Y-71345762D02*
X92646714Y-71393381D01*
X92837191Y-71393381D01*
X92932429Y-71345762D01*
X92980048Y-71298143D01*
X93027667Y-71202905D01*
X93027667Y-70917190D01*
X92980048Y-70821952D01*
X92932429Y-70774333D01*
X92837191Y-70726714D01*
X92646714Y-70726714D01*
X92551476Y-70774333D01*
X92075286Y-71393381D02*
X92075286Y-70393381D01*
X91646714Y-71393381D02*
X91646714Y-70869571D01*
X91694333Y-70774333D01*
X91789571Y-70726714D01*
X91932429Y-70726714D01*
X92027667Y-70774333D01*
X92075286Y-70821952D01*
X91313381Y-70726714D02*
X90932429Y-70726714D01*
X91170524Y-70393381D02*
X91170524Y-71250524D01*
X91122905Y-71345762D01*
X91027667Y-71393381D01*
X90932429Y-71393381D01*
X98932429Y-72943381D02*
X98932429Y-71943381D01*
X98599095Y-72657667D01*
X98265762Y-71943381D01*
X98265762Y-72943381D01*
X97361000Y-72943381D02*
X97361000Y-72419571D01*
X97408619Y-72324333D01*
X97503857Y-72276714D01*
X97694334Y-72276714D01*
X97789572Y-72324333D01*
X97361000Y-72895762D02*
X97456238Y-72943381D01*
X97694334Y-72943381D01*
X97789572Y-72895762D01*
X97837191Y-72800524D01*
X97837191Y-72705286D01*
X97789572Y-72610048D01*
X97694334Y-72562429D01*
X97456238Y-72562429D01*
X97361000Y-72514810D01*
X96884810Y-72943381D02*
X96884810Y-72276714D01*
X96884810Y-72467190D02*
X96837191Y-72371952D01*
X96789572Y-72324333D01*
X96694334Y-72276714D01*
X96599095Y-72276714D01*
X96265762Y-72943381D02*
X96265762Y-71943381D01*
X96170524Y-72562429D02*
X95884809Y-72943381D01*
X95884809Y-72276714D02*
X96265762Y-72657667D01*
X94360999Y-72419571D02*
X94218142Y-72467190D01*
X94170523Y-72514810D01*
X94122904Y-72610048D01*
X94122904Y-72752905D01*
X94170523Y-72848143D01*
X94218142Y-72895762D01*
X94313380Y-72943381D01*
X94694333Y-72943381D01*
X94694333Y-71943381D01*
X94360999Y-71943381D01*
X94265761Y-71991000D01*
X94218142Y-72038619D01*
X94170523Y-72133857D01*
X94170523Y-72229095D01*
X94218142Y-72324333D01*
X94265761Y-72371952D01*
X94360999Y-72419571D01*
X94694333Y-72419571D01*
X93313380Y-72895762D02*
X93408618Y-72943381D01*
X93599095Y-72943381D01*
X93694333Y-72895762D01*
X93741952Y-72800524D01*
X93741952Y-72419571D01*
X93694333Y-72324333D01*
X93599095Y-72276714D01*
X93408618Y-72276714D01*
X93313380Y-72324333D01*
X93265761Y-72419571D01*
X93265761Y-72514810D01*
X93741952Y-72610048D01*
X92837190Y-72276714D02*
X92837190Y-72943381D01*
X92837190Y-72371952D02*
X92789571Y-72324333D01*
X92694333Y-72276714D01*
X92551475Y-72276714D01*
X92456237Y-72324333D01*
X92408618Y-72419571D01*
X92408618Y-72943381D01*
X91980047Y-72895762D02*
X91884809Y-72943381D01*
X91694333Y-72943381D01*
X91599094Y-72895762D01*
X91551475Y-72800524D01*
X91551475Y-72752905D01*
X91599094Y-72657667D01*
X91694333Y-72610048D01*
X91837190Y-72610048D01*
X91932428Y-72562429D01*
X91980047Y-72467190D01*
X91980047Y-72419571D01*
X91932428Y-72324333D01*
X91837190Y-72276714D01*
X91694333Y-72276714D01*
X91599094Y-72324333D01*
X90980047Y-72943381D02*
X91075285Y-72895762D01*
X91122904Y-72848143D01*
X91170523Y-72752905D01*
X91170523Y-72467190D01*
X91122904Y-72371952D01*
X91075285Y-72324333D01*
X90980047Y-72276714D01*
X90837189Y-72276714D01*
X90741951Y-72324333D01*
X90694332Y-72371952D01*
X90646713Y-72467190D01*
X90646713Y-72752905D01*
X90694332Y-72848143D01*
X90741951Y-72895762D01*
X90837189Y-72943381D01*
X90980047Y-72943381D01*
X90218142Y-72276714D02*
X90218142Y-72943381D01*
X90218142Y-72371952D02*
X90170523Y-72324333D01*
X90075285Y-72276714D01*
X89932427Y-72276714D01*
X89837189Y-72324333D01*
X89789570Y-72419571D01*
X89789570Y-72943381D01*
X96075286Y-73588619D02*
X96027667Y-73541000D01*
X95932429Y-73493381D01*
X95694333Y-73493381D01*
X95599095Y-73541000D01*
X95551476Y-73588619D01*
X95503857Y-73683857D01*
X95503857Y-73779095D01*
X95551476Y-73921952D01*
X96122905Y-74493381D01*
X95503857Y-74493381D01*
X94884810Y-73493381D02*
X94789571Y-73493381D01*
X94694333Y-73541000D01*
X94646714Y-73588619D01*
X94599095Y-73683857D01*
X94551476Y-73874333D01*
X94551476Y-74112429D01*
X94599095Y-74302905D01*
X94646714Y-74398143D01*
X94694333Y-74445762D01*
X94789571Y-74493381D01*
X94884810Y-74493381D01*
X94980048Y-74445762D01*
X95027667Y-74398143D01*
X95075286Y-74302905D01*
X95122905Y-74112429D01*
X95122905Y-73874333D01*
X95075286Y-73683857D01*
X95027667Y-73588619D01*
X94980048Y-73541000D01*
X94884810Y-73493381D01*
X93599095Y-74493381D02*
X94170524Y-74493381D01*
X93884810Y-74493381D02*
X93884810Y-73493381D01*
X93980048Y-73636238D01*
X94075286Y-73731476D01*
X94170524Y-73779095D01*
X92741952Y-73493381D02*
X92932429Y-73493381D01*
X93027667Y-73541000D01*
X93075286Y-73588619D01*
X93170524Y-73731476D01*
X93218143Y-73921952D01*
X93218143Y-74302905D01*
X93170524Y-74398143D01*
X93122905Y-74445762D01*
X93027667Y-74493381D01*
X92837190Y-74493381D01*
X92741952Y-74445762D01*
X92694333Y-74398143D01*
X92646714Y-74302905D01*
X92646714Y-74064810D01*
X92694333Y-73969571D01*
X92741952Y-73921952D01*
X92837190Y-73874333D01*
X93027667Y-73874333D01*
X93122905Y-73921952D01*
X93170524Y-73969571D01*
X93218143Y-74064810D01*
X96670523Y-76043381D02*
X97146714Y-76043381D01*
X97146714Y-75043381D01*
X96337190Y-76043381D02*
X96337190Y-75376714D01*
X96337190Y-75043381D02*
X96384809Y-75091000D01*
X96337190Y-75138619D01*
X96289571Y-75091000D01*
X96337190Y-75043381D01*
X96337190Y-75138619D01*
X95432428Y-75995762D02*
X95527666Y-76043381D01*
X95718143Y-76043381D01*
X95813381Y-75995762D01*
X95861000Y-75948143D01*
X95908619Y-75852905D01*
X95908619Y-75567190D01*
X95861000Y-75471952D01*
X95813381Y-75424333D01*
X95718143Y-75376714D01*
X95527666Y-75376714D01*
X95432428Y-75424333D01*
X94622904Y-75995762D02*
X94718142Y-76043381D01*
X94908619Y-76043381D01*
X95003857Y-75995762D01*
X95051476Y-75900524D01*
X95051476Y-75519571D01*
X95003857Y-75424333D01*
X94908619Y-75376714D01*
X94718142Y-75376714D01*
X94622904Y-75424333D01*
X94575285Y-75519571D01*
X94575285Y-75614810D01*
X95051476Y-75710048D01*
X94146714Y-75376714D02*
X94146714Y-76043381D01*
X94146714Y-75471952D02*
X94099095Y-75424333D01*
X94003857Y-75376714D01*
X93860999Y-75376714D01*
X93765761Y-75424333D01*
X93718142Y-75519571D01*
X93718142Y-76043381D01*
X93289571Y-75995762D02*
X93194333Y-76043381D01*
X93003857Y-76043381D01*
X92908618Y-75995762D01*
X92860999Y-75900524D01*
X92860999Y-75852905D01*
X92908618Y-75757667D01*
X93003857Y-75710048D01*
X93146714Y-75710048D01*
X93241952Y-75662429D01*
X93289571Y-75567190D01*
X93289571Y-75519571D01*
X93241952Y-75424333D01*
X93146714Y-75376714D01*
X93003857Y-75376714D01*
X92908618Y-75424333D01*
X92051475Y-75995762D02*
X92146713Y-76043381D01*
X92337190Y-76043381D01*
X92432428Y-75995762D01*
X92480047Y-75900524D01*
X92480047Y-75519571D01*
X92432428Y-75424333D01*
X92337190Y-75376714D01*
X92146713Y-75376714D01*
X92051475Y-75424333D01*
X92003856Y-75519571D01*
X92003856Y-75614810D01*
X92480047Y-75710048D01*
X91575285Y-75948143D02*
X91527666Y-75995762D01*
X91575285Y-76043381D01*
X91622904Y-75995762D01*
X91575285Y-75948143D01*
X91575285Y-76043381D01*
X91575285Y-75424333D02*
X91527666Y-75471952D01*
X91575285Y-75519571D01*
X91622904Y-75471952D01*
X91575285Y-75424333D01*
X91575285Y-75519571D01*
X97670523Y-77498143D02*
X97718142Y-77545762D01*
X97860999Y-77593381D01*
X97956237Y-77593381D01*
X98099095Y-77545762D01*
X98194333Y-77450524D01*
X98241952Y-77355286D01*
X98289571Y-77164810D01*
X98289571Y-77021952D01*
X98241952Y-76831476D01*
X98194333Y-76736238D01*
X98099095Y-76641000D01*
X97956237Y-76593381D01*
X97860999Y-76593381D01*
X97718142Y-76641000D01*
X97670523Y-76688619D01*
X96670523Y-77498143D02*
X96718142Y-77545762D01*
X96860999Y-77593381D01*
X96956237Y-77593381D01*
X97099095Y-77545762D01*
X97194333Y-77450524D01*
X97241952Y-77355286D01*
X97289571Y-77164810D01*
X97289571Y-77021952D01*
X97241952Y-76831476D01*
X97194333Y-76736238D01*
X97099095Y-76641000D01*
X96956237Y-76593381D01*
X96860999Y-76593381D01*
X96718142Y-76641000D01*
X96670523Y-76688619D01*
X96241952Y-77212429D02*
X95480047Y-77212429D01*
X94670523Y-77069571D02*
X94527666Y-77117190D01*
X94480047Y-77164810D01*
X94432428Y-77260048D01*
X94432428Y-77402905D01*
X94480047Y-77498143D01*
X94527666Y-77545762D01*
X94622904Y-77593381D01*
X95003857Y-77593381D01*
X95003857Y-76593381D01*
X94670523Y-76593381D01*
X94575285Y-76641000D01*
X94527666Y-76688619D01*
X94480047Y-76783857D01*
X94480047Y-76879095D01*
X94527666Y-76974333D01*
X94575285Y-77021952D01*
X94670523Y-77069571D01*
X95003857Y-77069571D01*
X93813381Y-77117190D02*
X93813381Y-77593381D01*
X94146714Y-76593381D02*
X93813381Y-77117190D01*
X93480047Y-76593381D01*
X92480047Y-76593381D02*
X91860999Y-76593381D01*
X92194333Y-76974333D01*
X92051475Y-76974333D01*
X91956237Y-77021952D01*
X91908618Y-77069571D01*
X91860999Y-77164810D01*
X91860999Y-77402905D01*
X91908618Y-77498143D01*
X91956237Y-77545762D01*
X92051475Y-77593381D01*
X92337190Y-77593381D01*
X92432428Y-77545762D01*
X92480047Y-77498143D01*
X91432428Y-77498143D02*
X91384809Y-77545762D01*
X91432428Y-77593381D01*
X91480047Y-77545762D01*
X91432428Y-77498143D01*
X91432428Y-77593381D01*
X90765762Y-76593381D02*
X90670523Y-76593381D01*
X90575285Y-76641000D01*
X90527666Y-76688619D01*
X90480047Y-76783857D01*
X90432428Y-76974333D01*
X90432428Y-77212429D01*
X90480047Y-77402905D01*
X90527666Y-77498143D01*
X90575285Y-77545762D01*
X90670523Y-77593381D01*
X90765762Y-77593381D01*
X90861000Y-77545762D01*
X90908619Y-77498143D01*
X90956238Y-77402905D01*
X91003857Y-77212429D01*
X91003857Y-76974333D01*
X90956238Y-76783857D01*
X90908619Y-76688619D01*
X90861000Y-76641000D01*
X90765762Y-76593381D01*
X115633000Y-70224381D02*
X115966334Y-69748190D01*
X116204429Y-70224381D02*
X116204429Y-69224381D01*
X115823476Y-69224381D01*
X115728238Y-69272000D01*
X115680619Y-69319619D01*
X115633000Y-69414857D01*
X115633000Y-69557714D01*
X115680619Y-69652952D01*
X115728238Y-69700571D01*
X115823476Y-69748190D01*
X116204429Y-69748190D01*
X114775857Y-70224381D02*
X114775857Y-69700571D01*
X114823476Y-69605333D01*
X114918714Y-69557714D01*
X115109191Y-69557714D01*
X115204429Y-69605333D01*
X114775857Y-70176762D02*
X114871095Y-70224381D01*
X115109191Y-70224381D01*
X115204429Y-70176762D01*
X115252048Y-70081524D01*
X115252048Y-69986286D01*
X115204429Y-69891048D01*
X115109191Y-69843429D01*
X114871095Y-69843429D01*
X114775857Y-69795810D01*
X114347286Y-70176762D02*
X114252048Y-70224381D01*
X114061572Y-70224381D01*
X113966333Y-70176762D01*
X113918714Y-70081524D01*
X113918714Y-70033905D01*
X113966333Y-69938667D01*
X114061572Y-69891048D01*
X114204429Y-69891048D01*
X114299667Y-69843429D01*
X114347286Y-69748190D01*
X114347286Y-69700571D01*
X114299667Y-69605333D01*
X114204429Y-69557714D01*
X114061572Y-69557714D01*
X113966333Y-69605333D01*
X113490143Y-69557714D02*
X113490143Y-70557714D01*
X113490143Y-69605333D02*
X113394905Y-69557714D01*
X113204428Y-69557714D01*
X113109190Y-69605333D01*
X113061571Y-69652952D01*
X113013952Y-69748190D01*
X113013952Y-70033905D01*
X113061571Y-70129143D01*
X113109190Y-70176762D01*
X113204428Y-70224381D01*
X113394905Y-70224381D01*
X113490143Y-70176762D01*
X112585381Y-70224381D02*
X112585381Y-69224381D01*
X112585381Y-69605333D02*
X112490143Y-69557714D01*
X112299666Y-69557714D01*
X112204428Y-69605333D01*
X112156809Y-69652952D01*
X112109190Y-69748190D01*
X112109190Y-70033905D01*
X112156809Y-70129143D01*
X112204428Y-70176762D01*
X112299666Y-70224381D01*
X112490143Y-70224381D01*
X112585381Y-70176762D01*
X111299666Y-70176762D02*
X111394904Y-70224381D01*
X111585381Y-70224381D01*
X111680619Y-70176762D01*
X111728238Y-70081524D01*
X111728238Y-69700571D01*
X111680619Y-69605333D01*
X111585381Y-69557714D01*
X111394904Y-69557714D01*
X111299666Y-69605333D01*
X111252047Y-69700571D01*
X111252047Y-69795810D01*
X111728238Y-69891048D01*
X110823476Y-70224381D02*
X110823476Y-69557714D01*
X110823476Y-69748190D02*
X110775857Y-69652952D01*
X110728238Y-69605333D01*
X110633000Y-69557714D01*
X110537761Y-69557714D01*
X110204428Y-70224381D02*
X110204428Y-69557714D01*
X110204428Y-69748190D02*
X110156809Y-69652952D01*
X110109190Y-69605333D01*
X110013952Y-69557714D01*
X109918713Y-69557714D01*
X109680618Y-69557714D02*
X109442523Y-70224381D01*
X109204427Y-69557714D02*
X109442523Y-70224381D01*
X109537761Y-70462476D01*
X109585380Y-70510095D01*
X109680618Y-70557714D01*
X108061570Y-70224381D02*
X108061570Y-69224381D01*
X107680617Y-69224381D01*
X107585379Y-69272000D01*
X107537760Y-69319619D01*
X107490141Y-69414857D01*
X107490141Y-69557714D01*
X107537760Y-69652952D01*
X107585379Y-69700571D01*
X107680617Y-69748190D01*
X108061570Y-69748190D01*
X107061570Y-70224381D02*
X107061570Y-69557714D01*
X107061570Y-69224381D02*
X107109189Y-69272000D01*
X107061570Y-69319619D01*
X107013951Y-69272000D01*
X107061570Y-69224381D01*
X107061570Y-69319619D01*
X115466334Y-71107714D02*
X115228239Y-71774381D01*
X114990143Y-71107714D01*
X114228238Y-71726762D02*
X114323476Y-71774381D01*
X114513953Y-71774381D01*
X114609191Y-71726762D01*
X114656810Y-71631524D01*
X114656810Y-71250571D01*
X114609191Y-71155333D01*
X114513953Y-71107714D01*
X114323476Y-71107714D01*
X114228238Y-71155333D01*
X114180619Y-71250571D01*
X114180619Y-71345810D01*
X114656810Y-71441048D01*
X113752048Y-71774381D02*
X113752048Y-71107714D01*
X113752048Y-71298190D02*
X113704429Y-71202952D01*
X113656810Y-71155333D01*
X113561572Y-71107714D01*
X113466333Y-71107714D01*
X112418714Y-70869619D02*
X112371095Y-70822000D01*
X112275857Y-70774381D01*
X112037761Y-70774381D01*
X111942523Y-70822000D01*
X111894904Y-70869619D01*
X111847285Y-70964857D01*
X111847285Y-71060095D01*
X111894904Y-71202952D01*
X112466333Y-71774381D01*
X111847285Y-71774381D01*
X110513952Y-71774381D02*
X110609190Y-71726762D01*
X110656809Y-71679143D01*
X110704428Y-71583905D01*
X110704428Y-71298190D01*
X110656809Y-71202952D01*
X110609190Y-71155333D01*
X110513952Y-71107714D01*
X110371094Y-71107714D01*
X110275856Y-71155333D01*
X110228237Y-71202952D01*
X110180618Y-71298190D01*
X110180618Y-71583905D01*
X110228237Y-71679143D01*
X110275856Y-71726762D01*
X110371094Y-71774381D01*
X110513952Y-71774381D01*
X109752047Y-71774381D02*
X109752047Y-71107714D01*
X109752047Y-71298190D02*
X109704428Y-71202952D01*
X109656809Y-71155333D01*
X109561571Y-71107714D01*
X109466332Y-71107714D01*
X108466332Y-70774381D02*
X107847284Y-70774381D01*
X108180618Y-71155333D01*
X108037760Y-71155333D01*
X107942522Y-71202952D01*
X107894903Y-71250571D01*
X107847284Y-71345810D01*
X107847284Y-71583905D01*
X107894903Y-71679143D01*
X107942522Y-71726762D01*
X108037760Y-71774381D01*
X108323475Y-71774381D01*
X108418713Y-71726762D01*
X108466332Y-71679143D01*
X116252048Y-73038667D02*
X115775857Y-73038667D01*
X116347286Y-73324381D02*
X116013953Y-72324381D01*
X115680619Y-73324381D01*
X115347286Y-73324381D02*
X115347286Y-72657714D01*
X115347286Y-72848190D02*
X115299667Y-72752952D01*
X115252048Y-72705333D01*
X115156810Y-72657714D01*
X115061571Y-72657714D01*
X114299666Y-73324381D02*
X114299666Y-72324381D01*
X114299666Y-73276762D02*
X114394904Y-73324381D01*
X114585381Y-73324381D01*
X114680619Y-73276762D01*
X114728238Y-73229143D01*
X114775857Y-73133905D01*
X114775857Y-72848190D01*
X114728238Y-72752952D01*
X114680619Y-72705333D01*
X114585381Y-72657714D01*
X114394904Y-72657714D01*
X114299666Y-72705333D01*
X113394904Y-72657714D02*
X113394904Y-73324381D01*
X113823476Y-72657714D02*
X113823476Y-73181524D01*
X113775857Y-73276762D01*
X113680619Y-73324381D01*
X113537761Y-73324381D01*
X113442523Y-73276762D01*
X113394904Y-73229143D01*
X112918714Y-73324381D02*
X112918714Y-72657714D01*
X112918714Y-72324381D02*
X112966333Y-72372000D01*
X112918714Y-72419619D01*
X112871095Y-72372000D01*
X112918714Y-72324381D01*
X112918714Y-72419619D01*
X112442524Y-72657714D02*
X112442524Y-73324381D01*
X112442524Y-72752952D02*
X112394905Y-72705333D01*
X112299667Y-72657714D01*
X112156809Y-72657714D01*
X112061571Y-72705333D01*
X112013952Y-72800571D01*
X112013952Y-73324381D01*
X111394905Y-73324381D02*
X111490143Y-73276762D01*
X111537762Y-73229143D01*
X111585381Y-73133905D01*
X111585381Y-72848190D01*
X111537762Y-72752952D01*
X111490143Y-72705333D01*
X111394905Y-72657714D01*
X111252047Y-72657714D01*
X111156809Y-72705333D01*
X111109190Y-72752952D01*
X111061571Y-72848190D01*
X111061571Y-73133905D01*
X111109190Y-73229143D01*
X111156809Y-73276762D01*
X111252047Y-73324381D01*
X111394905Y-73324381D01*
X109871095Y-73324381D02*
X109871095Y-72324381D01*
X109490142Y-72324381D01*
X109394904Y-72372000D01*
X109347285Y-72419619D01*
X109299666Y-72514857D01*
X109299666Y-72657714D01*
X109347285Y-72752952D01*
X109394904Y-72800571D01*
X109490142Y-72848190D01*
X109871095Y-72848190D01*
X108871095Y-73324381D02*
X108871095Y-72657714D01*
X108871095Y-72848190D02*
X108823476Y-72752952D01*
X108775857Y-72705333D01*
X108680619Y-72657714D01*
X108585380Y-72657714D01*
X108109190Y-73324381D02*
X108204428Y-73276762D01*
X108252047Y-73229143D01*
X108299666Y-73133905D01*
X108299666Y-72848190D01*
X108252047Y-72752952D01*
X108204428Y-72705333D01*
X108109190Y-72657714D01*
X107966332Y-72657714D01*
X107871094Y-72705333D01*
X107823475Y-72752952D01*
X107775856Y-72848190D01*
X107775856Y-73133905D01*
X107823475Y-73229143D01*
X107871094Y-73276762D01*
X107966332Y-73324381D01*
X108109190Y-73324381D01*
X112894904Y-74874381D02*
X112894904Y-73874381D01*
X112561570Y-74588667D01*
X112228237Y-73874381D01*
X112228237Y-74874381D01*
X111752047Y-74874381D02*
X111752047Y-74207714D01*
X111752047Y-73874381D02*
X111799666Y-73922000D01*
X111752047Y-73969619D01*
X111704428Y-73922000D01*
X111752047Y-73874381D01*
X111752047Y-73969619D01*
X111275857Y-74207714D02*
X111275857Y-74874381D01*
X111275857Y-74302952D02*
X111228238Y-74255333D01*
X111133000Y-74207714D01*
X110990142Y-74207714D01*
X110894904Y-74255333D01*
X110847285Y-74350571D01*
X110847285Y-74874381D01*
X110371095Y-74874381D02*
X110371095Y-74207714D01*
X110371095Y-73874381D02*
X110418714Y-73922000D01*
X110371095Y-73969619D01*
X110323476Y-73922000D01*
X110371095Y-73874381D01*
X110371095Y-73969619D01*
X116728238Y-76805333D02*
X116775858Y-76757714D01*
X116871096Y-76614857D01*
X116918715Y-76519619D01*
X116966334Y-76376762D01*
X117013953Y-76138667D01*
X117013953Y-75948190D01*
X116966334Y-75710095D01*
X116918715Y-75567238D01*
X116871096Y-75472000D01*
X116775858Y-75329143D01*
X116728238Y-75281524D01*
X116442524Y-75424381D02*
X115823476Y-75424381D01*
X116156810Y-75805333D01*
X116013952Y-75805333D01*
X115918714Y-75852952D01*
X115871095Y-75900571D01*
X115823476Y-75995810D01*
X115823476Y-76233905D01*
X115871095Y-76329143D01*
X115918714Y-76376762D01*
X116013952Y-76424381D01*
X116299667Y-76424381D01*
X116394905Y-76376762D01*
X116442524Y-76329143D01*
X115394905Y-76329143D02*
X115347286Y-76376762D01*
X115394905Y-76424381D01*
X115442524Y-76376762D01*
X115394905Y-76329143D01*
X115394905Y-76424381D01*
X115013953Y-75424381D02*
X114394905Y-75424381D01*
X114728239Y-75805333D01*
X114585381Y-75805333D01*
X114490143Y-75852952D01*
X114442524Y-75900571D01*
X114394905Y-75995810D01*
X114394905Y-76233905D01*
X114442524Y-76329143D01*
X114490143Y-76376762D01*
X114585381Y-76424381D01*
X114871096Y-76424381D01*
X114966334Y-76376762D01*
X115013953Y-76329143D01*
X114061572Y-75757714D02*
X113823477Y-76424381D01*
X113585381Y-75757714D01*
X111823476Y-75948190D02*
X111871095Y-75900571D01*
X111966333Y-75852952D01*
X112061571Y-75852952D01*
X112156809Y-75900571D01*
X112204429Y-75948190D01*
X112252048Y-76043429D01*
X112252048Y-76138667D01*
X112204429Y-76233905D01*
X112156809Y-76281524D01*
X112061571Y-76329143D01*
X111966333Y-76329143D01*
X111871095Y-76281524D01*
X111823476Y-76233905D01*
X111823476Y-75852952D02*
X111823476Y-76233905D01*
X111775857Y-76281524D01*
X111728238Y-76281524D01*
X111633000Y-76233905D01*
X111585381Y-76138667D01*
X111585381Y-75900571D01*
X111680619Y-75757714D01*
X111823476Y-75662476D01*
X112013952Y-75614857D01*
X112204429Y-75662476D01*
X112347286Y-75757714D01*
X112442524Y-75900571D01*
X112490143Y-76091048D01*
X112442524Y-76281524D01*
X112347286Y-76424381D01*
X112204429Y-76519619D01*
X112013952Y-76567238D01*
X111823476Y-76519619D01*
X111680619Y-76424381D01*
X110252048Y-75852952D02*
X110347286Y-75805333D01*
X110394905Y-75757714D01*
X110442524Y-75662476D01*
X110442524Y-75614857D01*
X110394905Y-75519619D01*
X110347286Y-75472000D01*
X110252048Y-75424381D01*
X110061571Y-75424381D01*
X109966333Y-75472000D01*
X109918714Y-75519619D01*
X109871095Y-75614857D01*
X109871095Y-75662476D01*
X109918714Y-75757714D01*
X109966333Y-75805333D01*
X110061571Y-75852952D01*
X110252048Y-75852952D01*
X110347286Y-75900571D01*
X110394905Y-75948190D01*
X110442524Y-76043429D01*
X110442524Y-76233905D01*
X110394905Y-76329143D01*
X110347286Y-76376762D01*
X110252048Y-76424381D01*
X110061571Y-76424381D01*
X109966333Y-76376762D01*
X109918714Y-76329143D01*
X109871095Y-76233905D01*
X109871095Y-76043429D01*
X109918714Y-75948190D01*
X109966333Y-75900571D01*
X110061571Y-75852952D01*
X109442524Y-76424381D02*
X109442524Y-75424381D01*
X109109190Y-76138667D01*
X108775857Y-75424381D01*
X108775857Y-76424381D01*
X108299667Y-76424381D02*
X108299667Y-75424381D01*
X108299667Y-75900571D02*
X107728238Y-75900571D01*
X107728238Y-76424381D02*
X107728238Y-75424381D01*
X107347286Y-75757714D02*
X106823476Y-75757714D01*
X107347286Y-76424381D01*
X106823476Y-76424381D01*
X106537762Y-76805333D02*
X106490143Y-76757714D01*
X106394905Y-76614857D01*
X106347286Y-76519619D01*
X106299667Y-76376762D01*
X106252048Y-76138667D01*
X106252048Y-75948190D01*
X106299667Y-75710095D01*
X106347286Y-75567238D01*
X106394905Y-75472000D01*
X106490143Y-75329143D01*
X106537762Y-75281524D01*
X116275858Y-77974381D02*
X116275858Y-76974381D01*
X116037763Y-76974381D01*
X115894905Y-77022000D01*
X115799667Y-77117238D01*
X115752048Y-77212476D01*
X115704429Y-77402952D01*
X115704429Y-77545810D01*
X115752048Y-77736286D01*
X115799667Y-77831524D01*
X115894905Y-77926762D01*
X116037763Y-77974381D01*
X116275858Y-77974381D01*
X114847286Y-77307714D02*
X114847286Y-77974381D01*
X115275858Y-77307714D02*
X115275858Y-77831524D01*
X115228239Y-77926762D01*
X115133001Y-77974381D01*
X114990143Y-77974381D01*
X114894905Y-77926762D01*
X114847286Y-77879143D01*
X113942524Y-77974381D02*
X113942524Y-77450571D01*
X113990143Y-77355333D01*
X114085381Y-77307714D01*
X114275858Y-77307714D01*
X114371096Y-77355333D01*
X113942524Y-77926762D02*
X114037762Y-77974381D01*
X114275858Y-77974381D01*
X114371096Y-77926762D01*
X114418715Y-77831524D01*
X114418715Y-77736286D01*
X114371096Y-77641048D01*
X114275858Y-77593429D01*
X114037762Y-77593429D01*
X113942524Y-77545810D01*
X113323477Y-77974381D02*
X113418715Y-77926762D01*
X113466334Y-77831524D01*
X113466334Y-76974381D01*
X112228238Y-77926762D02*
X112085381Y-77974381D01*
X111847285Y-77974381D01*
X111752047Y-77926762D01*
X111704428Y-77879143D01*
X111656809Y-77783905D01*
X111656809Y-77688667D01*
X111704428Y-77593429D01*
X111752047Y-77545810D01*
X111847285Y-77498190D01*
X112037762Y-77450571D01*
X112133000Y-77402952D01*
X112180619Y-77355333D01*
X112228238Y-77260095D01*
X112228238Y-77164857D01*
X112180619Y-77069619D01*
X112133000Y-77022000D01*
X112037762Y-76974381D01*
X111799666Y-76974381D01*
X111656809Y-77022000D01*
X111371095Y-77307714D02*
X110990143Y-77307714D01*
X111228238Y-76974381D02*
X111228238Y-77831524D01*
X111180619Y-77926762D01*
X111085381Y-77974381D01*
X110990143Y-77974381D01*
X110275856Y-77926762D02*
X110371094Y-77974381D01*
X110561571Y-77974381D01*
X110656809Y-77926762D01*
X110704428Y-77831524D01*
X110704428Y-77450571D01*
X110656809Y-77355333D01*
X110561571Y-77307714D01*
X110371094Y-77307714D01*
X110275856Y-77355333D01*
X110228237Y-77450571D01*
X110228237Y-77545810D01*
X110704428Y-77641048D01*
X109799666Y-77307714D02*
X109799666Y-78307714D01*
X109799666Y-77355333D02*
X109704428Y-77307714D01*
X109513951Y-77307714D01*
X109418713Y-77355333D01*
X109371094Y-77402952D01*
X109323475Y-77498190D01*
X109323475Y-77783905D01*
X109371094Y-77879143D01*
X109418713Y-77926762D01*
X109513951Y-77974381D01*
X109704428Y-77974381D01*
X109799666Y-77926762D01*
X108894904Y-77307714D02*
X108894904Y-78307714D01*
X108894904Y-77355333D02*
X108799666Y-77307714D01*
X108609189Y-77307714D01*
X108513951Y-77355333D01*
X108466332Y-77402952D01*
X108418713Y-77498190D01*
X108418713Y-77783905D01*
X108466332Y-77879143D01*
X108513951Y-77926762D01*
X108609189Y-77974381D01*
X108799666Y-77974381D01*
X108894904Y-77926762D01*
X107609189Y-77926762D02*
X107704427Y-77974381D01*
X107894904Y-77974381D01*
X107990142Y-77926762D01*
X108037761Y-77831524D01*
X108037761Y-77450571D01*
X107990142Y-77355333D01*
X107894904Y-77307714D01*
X107704427Y-77307714D01*
X107609189Y-77355333D01*
X107561570Y-77450571D01*
X107561570Y-77545810D01*
X108037761Y-77641048D01*
X107132999Y-77974381D02*
X107132999Y-77307714D01*
X107132999Y-77498190D02*
X107085380Y-77402952D01*
X107037761Y-77355333D01*
X106942523Y-77307714D01*
X106847284Y-77307714D01*
X116109191Y-79476762D02*
X116204429Y-79524381D01*
X116394906Y-79524381D01*
X116490144Y-79476762D01*
X116537763Y-79429143D01*
X116585382Y-79333905D01*
X116585382Y-79048190D01*
X116537763Y-78952952D01*
X116490144Y-78905333D01*
X116394906Y-78857714D01*
X116204429Y-78857714D01*
X116109191Y-78905333D01*
X115537763Y-79524381D02*
X115633001Y-79476762D01*
X115680620Y-79429143D01*
X115728239Y-79333905D01*
X115728239Y-79048190D01*
X115680620Y-78952952D01*
X115633001Y-78905333D01*
X115537763Y-78857714D01*
X115394905Y-78857714D01*
X115299667Y-78905333D01*
X115252048Y-78952952D01*
X115204429Y-79048190D01*
X115204429Y-79333905D01*
X115252048Y-79429143D01*
X115299667Y-79476762D01*
X115394905Y-79524381D01*
X115537763Y-79524381D01*
X114775858Y-78857714D02*
X114775858Y-79524381D01*
X114775858Y-78952952D02*
X114728239Y-78905333D01*
X114633001Y-78857714D01*
X114490143Y-78857714D01*
X114394905Y-78905333D01*
X114347286Y-79000571D01*
X114347286Y-79524381D01*
X114013953Y-78857714D02*
X113633001Y-78857714D01*
X113871096Y-78524381D02*
X113871096Y-79381524D01*
X113823477Y-79476762D01*
X113728239Y-79524381D01*
X113633001Y-79524381D01*
X113299667Y-79524381D02*
X113299667Y-78857714D01*
X113299667Y-79048190D02*
X113252048Y-78952952D01*
X113204429Y-78905333D01*
X113109191Y-78857714D01*
X113013952Y-78857714D01*
X112537762Y-79524381D02*
X112633000Y-79476762D01*
X112680619Y-79429143D01*
X112728238Y-79333905D01*
X112728238Y-79048190D01*
X112680619Y-78952952D01*
X112633000Y-78905333D01*
X112537762Y-78857714D01*
X112394904Y-78857714D01*
X112299666Y-78905333D01*
X112252047Y-78952952D01*
X112204428Y-79048190D01*
X112204428Y-79333905D01*
X112252047Y-79429143D01*
X112299666Y-79476762D01*
X112394904Y-79524381D01*
X112537762Y-79524381D01*
X111633000Y-79524381D02*
X111728238Y-79476762D01*
X111775857Y-79381524D01*
X111775857Y-78524381D01*
X110490142Y-79524381D02*
X110490142Y-78524381D01*
X110490142Y-78905333D02*
X110394904Y-78857714D01*
X110204427Y-78857714D01*
X110109189Y-78905333D01*
X110061570Y-78952952D01*
X110013951Y-79048190D01*
X110013951Y-79333905D01*
X110061570Y-79429143D01*
X110109189Y-79476762D01*
X110204427Y-79524381D01*
X110394904Y-79524381D01*
X110490142Y-79476762D01*
X109442523Y-79524381D02*
X109537761Y-79476762D01*
X109585380Y-79429143D01*
X109632999Y-79333905D01*
X109632999Y-79048190D01*
X109585380Y-78952952D01*
X109537761Y-78905333D01*
X109442523Y-78857714D01*
X109299665Y-78857714D01*
X109204427Y-78905333D01*
X109156808Y-78952952D01*
X109109189Y-79048190D01*
X109109189Y-79333905D01*
X109156808Y-79429143D01*
X109204427Y-79476762D01*
X109299665Y-79524381D01*
X109442523Y-79524381D01*
X108252046Y-79524381D02*
X108252046Y-79000571D01*
X108299665Y-78905333D01*
X108394903Y-78857714D01*
X108585380Y-78857714D01*
X108680618Y-78905333D01*
X108252046Y-79476762D02*
X108347284Y-79524381D01*
X108585380Y-79524381D01*
X108680618Y-79476762D01*
X108728237Y-79381524D01*
X108728237Y-79286286D01*
X108680618Y-79191048D01*
X108585380Y-79143429D01*
X108347284Y-79143429D01*
X108252046Y-79095810D01*
X107775856Y-79524381D02*
X107775856Y-78857714D01*
X107775856Y-79048190D02*
X107728237Y-78952952D01*
X107680618Y-78905333D01*
X107585380Y-78857714D01*
X107490141Y-78857714D01*
X106728236Y-79524381D02*
X106728236Y-78524381D01*
X106728236Y-79476762D02*
X106823474Y-79524381D01*
X107013951Y-79524381D01*
X107109189Y-79476762D01*
X107156808Y-79429143D01*
X107204427Y-79333905D01*
X107204427Y-79048190D01*
X107156808Y-78952952D01*
X107109189Y-78905333D01*
X107013951Y-78857714D01*
X106823474Y-78857714D01*
X106728236Y-78905333D01*
X81838800Y-79552800D02*
X81838800Y-63906400D01*
X76758800Y-81483200D02*
X76758800Y-96621600D01*
X80822800Y-80467200D02*
X77673200Y-80467200D01*
X77774800Y-62941200D02*
X80772000Y-62941200D01*
X76758800Y-47548800D02*
X76758800Y-61925200D01*
X138277600Y-100025200D02*
X80264000Y-100025200D01*
X141782800Y-96520000D02*
X141782800Y-47548800D01*
X80162400Y-43992800D02*
X138125200Y-43992800D01*
X80010000Y-43992800D02*
X80162400Y-43992800D01*
X80010000Y-43992800D02*
G75*
G03X76758800Y-47548800I152400J-3403600D01*
G01*
X80822800Y-80467200D02*
G75*
G03X81838800Y-79552800I50800J965200D01*
G01*
X76758800Y-61925200D02*
G75*
G03X77774800Y-62941200I1016000J0D01*
G01*
X81838800Y-63906400D02*
G75*
G03X80772000Y-62941200I-1016000J-50800D01*
G01*
X77673200Y-80467200D02*
G75*
G03X76758800Y-81483200I50800J-965200D01*
G01*
X138277600Y-100025200D02*
G75*
G03X141782800Y-96520000I0J3505200D01*
G01*
X141782800Y-47447200D02*
X141782800Y-47548800D01*
X141782800Y-47447200D02*
G75*
G03X138125200Y-43992800I-3556000J-101600D01*
G01*
X76758800Y-96621600D02*
G75*
G03X80264000Y-100025200I3454400J50800D01*
G01*
X135737000Y-63348800D02*
X136937000Y-63348800D01*
X136937000Y-61598800D02*
X135737000Y-61598800D01*
X135737000Y-61194900D02*
X136937000Y-61194900D01*
X136937000Y-59444900D02*
X135737000Y-59444900D01*
X135737000Y-59046100D02*
X136937000Y-59046100D01*
X136937000Y-57296100D02*
X135737000Y-57296100D01*
X128461000Y-62844100D02*
X128461000Y-62699100D01*
X132611000Y-62844100D02*
X132611000Y-62699100D01*
X132611000Y-57694100D02*
X132611000Y-57839100D01*
X128461000Y-57694100D02*
X128461000Y-57839100D01*
X128461000Y-62844100D02*
X132611000Y-62844100D01*
X128461000Y-57694100D02*
X132611000Y-57694100D01*
X128461000Y-62699100D02*
X127061000Y-62699100D01*
X130346000Y-63721900D02*
X131346000Y-63721900D01*
X131346000Y-65421900D02*
X130346000Y-65421900D01*
X118305240Y-59135040D02*
X118305240Y-59183300D01*
X117604200Y-61934020D02*
X118305240Y-61934020D01*
X118305240Y-61934020D02*
X118305240Y-61685100D01*
X118305240Y-59135040D02*
X118305240Y-58934380D01*
X118305240Y-58934380D02*
X117604200Y-58934380D01*
X108406000Y-58653100D02*
X108406000Y-59853100D01*
X110156000Y-59853100D02*
X110156000Y-58653100D01*
X112100000Y-58451700D02*
X113300000Y-58451700D01*
X113300000Y-56701700D02*
X112100000Y-56701700D01*
X112491000Y-62157100D02*
G75*
G03X112491000Y-62157100I-100000J0D01*
G01*
X113041000Y-61907100D02*
X112541000Y-61907100D01*
X113041000Y-59007100D02*
X113041000Y-61907100D01*
X112541000Y-59007100D02*
X113041000Y-59007100D01*
X112541000Y-61907100D02*
X112541000Y-59007100D01*
X133122000Y-71992500D02*
X131922000Y-71992500D01*
X131922000Y-73742500D02*
X133122000Y-73742500D01*
X133147000Y-69452500D02*
X131947000Y-69452500D01*
X131947000Y-71202500D02*
X133147000Y-71202500D01*
X131300220Y-87271860D02*
X130939540Y-88742520D01*
X130939540Y-88742520D02*
X130660140Y-87680800D01*
X130660140Y-87680800D02*
X130350260Y-88752680D01*
X130350260Y-88752680D02*
X130009900Y-87302340D01*
X132720080Y-87962740D02*
X131930140Y-87952580D01*
X131930140Y-87952580D02*
X131919980Y-87962740D01*
X131919980Y-87962740D02*
X131919980Y-87952580D01*
X131879340Y-87241380D02*
X131879340Y-88783160D01*
X132768340Y-87231220D02*
X132768340Y-88800940D01*
X132768340Y-88800940D02*
X132758180Y-88790780D01*
X133319520Y-87332820D02*
X133670040Y-87251540D01*
X133670040Y-87251540D02*
X133990080Y-87241380D01*
X133990080Y-87241380D02*
X134228840Y-87442040D01*
X134228840Y-87442040D02*
X134259320Y-87711280D01*
X134259320Y-87711280D02*
X134018020Y-87952580D01*
X134018020Y-87952580D02*
X133629400Y-88082120D01*
X133629400Y-88082120D02*
X133449060Y-88242140D01*
X133449060Y-88242140D02*
X133408420Y-88541860D01*
X133408420Y-88541860D02*
X133639560Y-88762840D01*
X133639560Y-88762840D02*
X133959600Y-88790780D01*
X133959600Y-88790780D02*
X134310120Y-88681560D01*
X135348980Y-87231220D02*
X135597900Y-87251540D01*
X135597900Y-87251540D02*
X135839200Y-87492840D01*
X135839200Y-87492840D02*
X135928100Y-87983060D01*
X135928100Y-87983060D02*
X135900160Y-88331040D01*
X135900160Y-88331040D02*
X135699500Y-88651080D01*
X135699500Y-88651080D02*
X135448040Y-88773000D01*
X135448040Y-88773000D02*
X135138160Y-88701880D01*
X135138160Y-88701880D02*
X134919720Y-88521540D01*
X134919720Y-88521540D02*
X134848600Y-88061800D01*
X134848600Y-88061800D02*
X134899400Y-87652860D01*
X134899400Y-87652860D02*
X135008620Y-87370920D01*
X135008620Y-87370920D02*
X135369300Y-87241380D01*
X134749540Y-85511640D02*
X135008620Y-86072980D01*
X135008620Y-86072980D02*
X134470140Y-86591140D01*
X134470140Y-86591140D02*
X133949440Y-86321900D01*
X133949440Y-86321900D02*
X133670040Y-86481920D01*
X132229860Y-86461600D02*
X131899660Y-86271100D01*
X131899660Y-86271100D02*
X131460240Y-86601300D01*
X131460240Y-86601300D02*
X130987800Y-86111080D01*
X130987800Y-86111080D02*
X131269740Y-85631020D01*
X131269740Y-85631020D02*
X131079240Y-85161120D01*
X131079240Y-85161120D02*
X130469640Y-84973160D01*
X130469640Y-84973160D02*
X130469640Y-84292440D01*
X130469640Y-84292440D02*
X131028440Y-84152740D01*
X131028440Y-84152740D02*
X131229100Y-83581240D01*
X131229100Y-83581240D02*
X130959860Y-83111340D01*
X130959860Y-83111340D02*
X131429760Y-82600800D01*
X131429760Y-82600800D02*
X131947920Y-82862420D01*
X131947920Y-82862420D02*
X132417820Y-82661760D01*
X132417820Y-82661760D02*
X132588000Y-82120740D01*
X132588000Y-82120740D02*
X133278880Y-82102960D01*
X133278880Y-82102960D02*
X133489700Y-82651600D01*
X133489700Y-82651600D02*
X133908800Y-82821780D01*
X133908800Y-82821780D02*
X134459980Y-82552540D01*
X134459980Y-82552540D02*
X134978140Y-83080860D01*
X134978140Y-83080860D02*
X134729220Y-83621880D01*
X134729220Y-83621880D02*
X134899400Y-84101940D01*
X134899400Y-84101940D02*
X135448040Y-84201000D01*
X135448040Y-84201000D02*
X135458200Y-84902040D01*
X135458200Y-84902040D02*
X134899400Y-85102700D01*
X134899400Y-85102700D02*
X134759700Y-85501480D01*
X132618480Y-85481160D02*
X132318760Y-85331300D01*
X132318760Y-85331300D02*
X132118100Y-85133180D01*
X132118100Y-85133180D02*
X131968240Y-84731860D01*
X131968240Y-84731860D02*
X131968240Y-84333080D01*
X131968240Y-84333080D02*
X132118100Y-83982560D01*
X132118100Y-83982560D02*
X132570220Y-83632040D01*
X132570220Y-83632040D02*
X133019800Y-83581240D01*
X133019800Y-83581240D02*
X133418580Y-83682840D01*
X133418580Y-83682840D02*
X133819900Y-84030820D01*
X133819900Y-84030820D02*
X133969760Y-84482940D01*
X133969760Y-84482940D02*
X133918960Y-84980780D01*
X133918960Y-84980780D02*
X133670040Y-85283040D01*
X133670040Y-85283040D02*
X133319520Y-85481160D01*
X133319520Y-85481160D02*
X133670040Y-86481920D01*
X132618480Y-85481160D02*
X132219700Y-86481920D01*
X112118353Y-66145161D02*
X112118353Y-66859447D01*
X112165973Y-67002304D01*
X112261211Y-67097542D01*
X112404068Y-67145161D01*
X112499306Y-67145161D01*
X111642163Y-67145161D02*
X111642163Y-66145161D01*
X111261210Y-66145161D01*
X111165972Y-66192780D01*
X111118353Y-66240399D01*
X111070734Y-66335637D01*
X111070734Y-66478494D01*
X111118353Y-66573732D01*
X111165972Y-66621351D01*
X111261210Y-66668970D01*
X111642163Y-66668970D01*
X110689782Y-66240399D02*
X110642163Y-66192780D01*
X110546925Y-66145161D01*
X110308829Y-66145161D01*
X110213591Y-66192780D01*
X110165972Y-66240399D01*
X110118353Y-66335637D01*
X110118353Y-66430875D01*
X110165972Y-66573732D01*
X110737401Y-67145161D01*
X110118353Y-67145161D01*
X136488466Y-64612781D02*
X136821800Y-64136590D01*
X137059895Y-64612781D02*
X137059895Y-63612781D01*
X136678942Y-63612781D01*
X136583704Y-63660400D01*
X136536085Y-63708019D01*
X136488466Y-63803257D01*
X136488466Y-63946114D01*
X136536085Y-64041352D01*
X136583704Y-64088971D01*
X136678942Y-64136590D01*
X137059895Y-64136590D01*
X135631323Y-63946114D02*
X135631323Y-64612781D01*
X135869419Y-63565162D02*
X136107514Y-64279448D01*
X135488466Y-64279448D01*
X138803047Y-63190381D02*
X139374476Y-63190381D01*
X139088762Y-63190381D02*
X139088762Y-62190381D01*
X139184000Y-62333238D01*
X139279238Y-62428476D01*
X139374476Y-62476095D01*
X138374476Y-63190381D02*
X138374476Y-62190381D01*
X138279238Y-62809429D02*
X137993523Y-63190381D01*
X137993523Y-62523714D02*
X138374476Y-62904667D01*
X140628666Y-59126381D02*
X140962000Y-58650190D01*
X141200095Y-59126381D02*
X141200095Y-58126381D01*
X140819142Y-58126381D01*
X140723904Y-58174000D01*
X140676285Y-58221619D01*
X140628666Y-58316857D01*
X140628666Y-58459714D01*
X140676285Y-58554952D01*
X140723904Y-58602571D01*
X140819142Y-58650190D01*
X141200095Y-58650190D01*
X139723904Y-58126381D02*
X140200095Y-58126381D01*
X140247714Y-58602571D01*
X140200095Y-58554952D01*
X140104857Y-58507333D01*
X139866761Y-58507333D01*
X139771523Y-58554952D01*
X139723904Y-58602571D01*
X139676285Y-58697810D01*
X139676285Y-58935905D01*
X139723904Y-59031143D01*
X139771523Y-59078762D01*
X139866761Y-59126381D01*
X140104857Y-59126381D01*
X140200095Y-59078762D01*
X140247714Y-59031143D01*
X141152381Y-59396381D02*
X140533333Y-59396381D01*
X140866667Y-59777333D01*
X140723809Y-59777333D01*
X140628571Y-59824952D01*
X140580952Y-59872571D01*
X140533333Y-59967810D01*
X140533333Y-60205905D01*
X140580952Y-60301143D01*
X140628571Y-60348762D01*
X140723809Y-60396381D01*
X141009524Y-60396381D01*
X141104762Y-60348762D01*
X141152381Y-60301143D01*
X140104762Y-60301143D02*
X140057143Y-60348762D01*
X140104762Y-60396381D01*
X140152381Y-60348762D01*
X140104762Y-60301143D01*
X140104762Y-60396381D01*
X139580953Y-60396381D02*
X139390477Y-60396381D01*
X139295238Y-60348762D01*
X139247619Y-60301143D01*
X139152381Y-60158286D01*
X139104762Y-59967810D01*
X139104762Y-59586857D01*
X139152381Y-59491619D01*
X139200000Y-59444000D01*
X139295238Y-59396381D01*
X139485715Y-59396381D01*
X139580953Y-59444000D01*
X139628572Y-59491619D01*
X139676191Y-59586857D01*
X139676191Y-59824952D01*
X139628572Y-59920190D01*
X139580953Y-59967810D01*
X139485715Y-60015429D01*
X139295238Y-60015429D01*
X139200000Y-59967810D01*
X139152381Y-59920190D01*
X139104762Y-59824952D01*
X138676191Y-60396381D02*
X138676191Y-59396381D01*
X138580953Y-60015429D02*
X138295238Y-60396381D01*
X138295238Y-59729714D02*
X138676191Y-60110667D01*
X140628666Y-56586381D02*
X140962000Y-56110190D01*
X141200095Y-56586381D02*
X141200095Y-55586381D01*
X140819142Y-55586381D01*
X140723904Y-55634000D01*
X140676285Y-55681619D01*
X140628666Y-55776857D01*
X140628666Y-55919714D01*
X140676285Y-56014952D01*
X140723904Y-56062571D01*
X140819142Y-56110190D01*
X141200095Y-56110190D01*
X139771523Y-55586381D02*
X139962000Y-55586381D01*
X140057238Y-55634000D01*
X140104857Y-55681619D01*
X140200095Y-55824476D01*
X140247714Y-56014952D01*
X140247714Y-56395905D01*
X140200095Y-56491143D01*
X140152476Y-56538762D01*
X140057238Y-56586381D01*
X139866761Y-56586381D01*
X139771523Y-56538762D01*
X139723904Y-56491143D01*
X139676285Y-56395905D01*
X139676285Y-56157810D01*
X139723904Y-56062571D01*
X139771523Y-56014952D01*
X139866761Y-55967333D01*
X140057238Y-55967333D01*
X140152476Y-56014952D01*
X140200095Y-56062571D01*
X140247714Y-56157810D01*
X141152381Y-56856381D02*
X140533333Y-56856381D01*
X140866667Y-57237333D01*
X140723809Y-57237333D01*
X140628571Y-57284952D01*
X140580952Y-57332571D01*
X140533333Y-57427810D01*
X140533333Y-57665905D01*
X140580952Y-57761143D01*
X140628571Y-57808762D01*
X140723809Y-57856381D01*
X141009524Y-57856381D01*
X141104762Y-57808762D01*
X141152381Y-57761143D01*
X140104762Y-57761143D02*
X140057143Y-57808762D01*
X140104762Y-57856381D01*
X140152381Y-57808762D01*
X140104762Y-57761143D01*
X140104762Y-57856381D01*
X139580953Y-57856381D02*
X139390477Y-57856381D01*
X139295238Y-57808762D01*
X139247619Y-57761143D01*
X139152381Y-57618286D01*
X139104762Y-57427810D01*
X139104762Y-57046857D01*
X139152381Y-56951619D01*
X139200000Y-56904000D01*
X139295238Y-56856381D01*
X139485715Y-56856381D01*
X139580953Y-56904000D01*
X139628572Y-56951619D01*
X139676191Y-57046857D01*
X139676191Y-57284952D01*
X139628572Y-57380190D01*
X139580953Y-57427810D01*
X139485715Y-57475429D01*
X139295238Y-57475429D01*
X139200000Y-57427810D01*
X139152381Y-57380190D01*
X139104762Y-57284952D01*
X138676191Y-57856381D02*
X138676191Y-56856381D01*
X138580953Y-57475429D02*
X138295238Y-57856381D01*
X138295238Y-57189714D02*
X138676191Y-57570667D01*
X131292505Y-56449981D02*
X131292505Y-57259505D01*
X131244886Y-57354743D01*
X131197267Y-57402362D01*
X131102029Y-57449981D01*
X130911552Y-57449981D01*
X130816314Y-57402362D01*
X130768695Y-57354743D01*
X130721076Y-57259505D01*
X130721076Y-56449981D01*
X129816314Y-56449981D02*
X130006791Y-56449981D01*
X130102029Y-56497600D01*
X130149648Y-56545219D01*
X130244886Y-56688076D01*
X130292505Y-56878552D01*
X130292505Y-57259505D01*
X130244886Y-57354743D01*
X130197267Y-57402362D01*
X130102029Y-57449981D01*
X129911552Y-57449981D01*
X129816314Y-57402362D01*
X129768695Y-57354743D01*
X129721076Y-57259505D01*
X129721076Y-57021410D01*
X129768695Y-56926171D01*
X129816314Y-56878552D01*
X129911552Y-56830933D01*
X130102029Y-56830933D01*
X130197267Y-56878552D01*
X130244886Y-56926171D01*
X130292505Y-57021410D01*
X131078266Y-66651143D02*
X131125885Y-66698762D01*
X131268742Y-66746381D01*
X131363980Y-66746381D01*
X131506838Y-66698762D01*
X131602076Y-66603524D01*
X131649695Y-66508286D01*
X131697314Y-66317810D01*
X131697314Y-66174952D01*
X131649695Y-65984476D01*
X131602076Y-65889238D01*
X131506838Y-65794000D01*
X131363980Y-65746381D01*
X131268742Y-65746381D01*
X131125885Y-65794000D01*
X131078266Y-65841619D01*
X130744933Y-65746381D02*
X130125885Y-65746381D01*
X130459219Y-66127333D01*
X130316361Y-66127333D01*
X130221123Y-66174952D01*
X130173504Y-66222571D01*
X130125885Y-66317810D01*
X130125885Y-66555905D01*
X130173504Y-66651143D01*
X130221123Y-66698762D01*
X130316361Y-66746381D01*
X130602076Y-66746381D01*
X130697314Y-66698762D01*
X130744933Y-66651143D01*
X131675047Y-63444381D02*
X132246476Y-63444381D01*
X131960762Y-63444381D02*
X131960762Y-62444381D01*
X132056000Y-62587238D01*
X132151238Y-62682476D01*
X132246476Y-62730095D01*
X131056000Y-62444381D02*
X130960761Y-62444381D01*
X130865523Y-62492000D01*
X130817904Y-62539619D01*
X130770285Y-62634857D01*
X130722666Y-62825333D01*
X130722666Y-63063429D01*
X130770285Y-63253905D01*
X130817904Y-63349143D01*
X130865523Y-63396762D01*
X130960761Y-63444381D01*
X131056000Y-63444381D01*
X131151238Y-63396762D01*
X131198857Y-63349143D01*
X131246476Y-63253905D01*
X131294095Y-63063429D01*
X131294095Y-62825333D01*
X131246476Y-62634857D01*
X131198857Y-62539619D01*
X131151238Y-62492000D01*
X131056000Y-62444381D01*
X130103619Y-62444381D02*
X130008380Y-62444381D01*
X129913142Y-62492000D01*
X129865523Y-62539619D01*
X129817904Y-62634857D01*
X129770285Y-62825333D01*
X129770285Y-63063429D01*
X129817904Y-63253905D01*
X129865523Y-63349143D01*
X129913142Y-63396762D01*
X130008380Y-63444381D01*
X130103619Y-63444381D01*
X130198857Y-63396762D01*
X130246476Y-63349143D01*
X130294095Y-63253905D01*
X130341714Y-63063429D01*
X130341714Y-62825333D01*
X130294095Y-62634857D01*
X130246476Y-62539619D01*
X130198857Y-62492000D01*
X130103619Y-62444381D01*
X129341714Y-62777714D02*
X129341714Y-63444381D01*
X129341714Y-62872952D02*
X129294095Y-62825333D01*
X129198857Y-62777714D01*
X129055999Y-62777714D01*
X128960761Y-62825333D01*
X128913142Y-62920571D01*
X128913142Y-63444381D01*
X115837293Y-53545431D02*
X116170627Y-53545431D01*
X116170627Y-54069241D02*
X116170627Y-53069241D01*
X115694436Y-53069241D01*
X114789674Y-54069241D02*
X115361103Y-54069241D01*
X115075389Y-54069241D02*
X115075389Y-53069241D01*
X115170627Y-53212098D01*
X115265865Y-53307336D01*
X115361103Y-53354955D01*
X112307523Y-51744571D02*
X112640857Y-51744571D01*
X112640857Y-52268381D02*
X112640857Y-51268381D01*
X112164666Y-51268381D01*
X111783714Y-51268381D02*
X111783714Y-52077905D01*
X111736095Y-52173143D01*
X111688476Y-52220762D01*
X111593238Y-52268381D01*
X111402761Y-52268381D01*
X111307523Y-52220762D01*
X111259904Y-52173143D01*
X111212285Y-52077905D01*
X111212285Y-51268381D01*
X110783714Y-52220762D02*
X110640857Y-52268381D01*
X110402761Y-52268381D01*
X110307523Y-52220762D01*
X110259904Y-52173143D01*
X110212285Y-52077905D01*
X110212285Y-51982667D01*
X110259904Y-51887429D01*
X110307523Y-51839810D01*
X110402761Y-51792190D01*
X110593238Y-51744571D01*
X110688476Y-51696952D01*
X110736095Y-51649333D01*
X110783714Y-51554095D01*
X110783714Y-51458857D01*
X110736095Y-51363619D01*
X110688476Y-51316000D01*
X110593238Y-51268381D01*
X110355142Y-51268381D01*
X110212285Y-51316000D01*
X109783714Y-51744571D02*
X109450380Y-51744571D01*
X109307523Y-52268381D02*
X109783714Y-52268381D01*
X109783714Y-51268381D01*
X109307523Y-51268381D01*
X119594618Y-59584839D02*
X119689856Y-59537220D01*
X119785094Y-59441982D01*
X119927951Y-59299125D01*
X120023190Y-59251506D01*
X120118428Y-59251506D01*
X120070809Y-59489601D02*
X120166047Y-59441982D01*
X120261285Y-59346744D01*
X120308904Y-59156268D01*
X120308904Y-58822934D01*
X120261285Y-58632458D01*
X120166047Y-58537220D01*
X120070809Y-58489601D01*
X119880332Y-58489601D01*
X119785094Y-58537220D01*
X119689856Y-58632458D01*
X119642237Y-58822934D01*
X119642237Y-59156268D01*
X119689856Y-59346744D01*
X119785094Y-59441982D01*
X119880332Y-59489601D01*
X120070809Y-59489601D01*
X118689856Y-59489601D02*
X119261285Y-59489601D01*
X118975571Y-59489601D02*
X118975571Y-58489601D01*
X119070809Y-58632458D01*
X119166047Y-58727696D01*
X119261285Y-58775315D01*
X109523826Y-62060081D02*
X109857160Y-61583890D01*
X110095255Y-62060081D02*
X110095255Y-61060081D01*
X109714302Y-61060081D01*
X109619064Y-61107700D01*
X109571445Y-61155319D01*
X109523826Y-61250557D01*
X109523826Y-61393414D01*
X109571445Y-61488652D01*
X109619064Y-61536271D01*
X109714302Y-61583890D01*
X110095255Y-61583890D01*
X109190493Y-61060081D02*
X108523826Y-61060081D01*
X108952398Y-62060081D01*
X107529238Y-59634381D02*
X108100667Y-59634381D01*
X107814953Y-59634381D02*
X107814953Y-58634381D01*
X107910191Y-58777238D01*
X108005429Y-58872476D01*
X108100667Y-58920095D01*
X106910191Y-58634381D02*
X106814952Y-58634381D01*
X106719714Y-58682000D01*
X106672095Y-58729619D01*
X106624476Y-58824857D01*
X106576857Y-59015333D01*
X106576857Y-59253429D01*
X106624476Y-59443905D01*
X106672095Y-59539143D01*
X106719714Y-59586762D01*
X106814952Y-59634381D01*
X106910191Y-59634381D01*
X107005429Y-59586762D01*
X107053048Y-59539143D01*
X107100667Y-59443905D01*
X107148286Y-59253429D01*
X107148286Y-59015333D01*
X107100667Y-58824857D01*
X107053048Y-58729619D01*
X107005429Y-58682000D01*
X106910191Y-58634381D01*
X106148286Y-59634381D02*
X106148286Y-58634381D01*
X106053048Y-59253429D02*
X105767333Y-59634381D01*
X105767333Y-58967714D02*
X106148286Y-59348667D01*
X114212666Y-56332381D02*
X114546000Y-55856190D01*
X114784095Y-56332381D02*
X114784095Y-55332381D01*
X114403142Y-55332381D01*
X114307904Y-55380000D01*
X114260285Y-55427619D01*
X114212666Y-55522857D01*
X114212666Y-55665714D01*
X114260285Y-55760952D01*
X114307904Y-55808571D01*
X114403142Y-55856190D01*
X114784095Y-55856190D01*
X113641238Y-55760952D02*
X113736476Y-55713333D01*
X113784095Y-55665714D01*
X113831714Y-55570476D01*
X113831714Y-55522857D01*
X113784095Y-55427619D01*
X113736476Y-55380000D01*
X113641238Y-55332381D01*
X113450761Y-55332381D01*
X113355523Y-55380000D01*
X113307904Y-55427619D01*
X113260285Y-55522857D01*
X113260285Y-55570476D01*
X113307904Y-55665714D01*
X113355523Y-55713333D01*
X113450761Y-55760952D01*
X113641238Y-55760952D01*
X113736476Y-55808571D01*
X113784095Y-55856190D01*
X113831714Y-55951429D01*
X113831714Y-56141905D01*
X113784095Y-56237143D01*
X113736476Y-56284762D01*
X113641238Y-56332381D01*
X113450761Y-56332381D01*
X113355523Y-56284762D01*
X113307904Y-56237143D01*
X113260285Y-56141905D01*
X113260285Y-55951429D01*
X113307904Y-55856190D01*
X113355523Y-55808571D01*
X113450761Y-55760952D01*
X111942476Y-55665714D02*
X111942476Y-56332381D01*
X112180572Y-55284762D02*
X112418667Y-55999048D01*
X111799619Y-55999048D01*
X111513905Y-55332381D02*
X110847238Y-55332381D01*
X111275810Y-56332381D01*
X110466286Y-56332381D02*
X110466286Y-55332381D01*
X110371048Y-55951429D02*
X110085333Y-56332381D01*
X110085333Y-55665714D02*
X110466286Y-56046667D01*
X115986465Y-57958741D02*
X115986465Y-58768265D01*
X115938846Y-58863503D01*
X115891227Y-58911122D01*
X115795989Y-58958741D01*
X115605512Y-58958741D01*
X115510274Y-58911122D01*
X115462655Y-58863503D01*
X115415036Y-58768265D01*
X115415036Y-57958741D01*
X115034084Y-57958741D02*
X114367417Y-57958741D01*
X114795989Y-58958741D01*
X132693706Y-75052181D02*
X133027040Y-74575990D01*
X133265135Y-75052181D02*
X133265135Y-74052181D01*
X132884182Y-74052181D01*
X132788944Y-74099800D01*
X132741325Y-74147419D01*
X132693706Y-74242657D01*
X132693706Y-74385514D01*
X132741325Y-74480752D01*
X132788944Y-74528371D01*
X132884182Y-74575990D01*
X133265135Y-74575990D01*
X132312754Y-74147419D02*
X132265135Y-74099800D01*
X132169897Y-74052181D01*
X131931801Y-74052181D01*
X131836563Y-74099800D01*
X131788944Y-74147419D01*
X131741325Y-74242657D01*
X131741325Y-74337895D01*
X131788944Y-74480752D01*
X132360373Y-75052181D01*
X131741325Y-75052181D01*
X130214571Y-72683714D02*
X130214571Y-73350381D01*
X130452667Y-72302762D02*
X130690762Y-73017048D01*
X130071714Y-73017048D01*
X129690762Y-73255143D02*
X129643143Y-73302762D01*
X129690762Y-73350381D01*
X129738381Y-73302762D01*
X129690762Y-73255143D01*
X129690762Y-73350381D01*
X129309810Y-72350381D02*
X128643143Y-72350381D01*
X129071715Y-73350381D01*
X128262191Y-73350381D02*
X128262191Y-72350381D01*
X128166953Y-72969429D02*
X127881238Y-73350381D01*
X127881238Y-72683714D02*
X128262191Y-73064667D01*
X132708946Y-69047621D02*
X133042280Y-68571430D01*
X133280375Y-69047621D02*
X133280375Y-68047621D01*
X132899422Y-68047621D01*
X132804184Y-68095240D01*
X132756565Y-68142859D01*
X132708946Y-68238097D01*
X132708946Y-68380954D01*
X132756565Y-68476192D01*
X132804184Y-68523811D01*
X132899422Y-68571430D01*
X133280375Y-68571430D01*
X132375613Y-68047621D02*
X131756565Y-68047621D01*
X132089899Y-68428573D01*
X131947041Y-68428573D01*
X131851803Y-68476192D01*
X131804184Y-68523811D01*
X131756565Y-68619050D01*
X131756565Y-68857145D01*
X131804184Y-68952383D01*
X131851803Y-69000002D01*
X131947041Y-69047621D01*
X132232756Y-69047621D01*
X132327994Y-69000002D01*
X132375613Y-68952383D01*
X130214571Y-70143714D02*
X130214571Y-70810381D01*
X130452667Y-69762762D02*
X130690762Y-70477048D01*
X130071714Y-70477048D01*
X129690762Y-70715143D02*
X129643143Y-70762762D01*
X129690762Y-70810381D01*
X129738381Y-70762762D01*
X129690762Y-70715143D01*
X129690762Y-70810381D01*
X129309810Y-69810381D02*
X128643143Y-69810381D01*
X129071715Y-70810381D01*
X128262191Y-70810381D02*
X128262191Y-69810381D01*
X128166953Y-70429429D02*
X127881238Y-70810381D01*
X127881238Y-70143714D02*
X128262191Y-70524667D01*
X134051253Y-52035461D02*
X134051253Y-52749747D01*
X134098873Y-52892604D01*
X134194111Y-52987842D01*
X134336968Y-53035461D01*
X134432206Y-53035461D01*
X133575063Y-53035461D02*
X133575063Y-52035461D01*
X133194110Y-52035461D01*
X133098872Y-52083080D01*
X133051253Y-52130699D01*
X133003634Y-52225937D01*
X133003634Y-52368794D01*
X133051253Y-52464032D01*
X133098872Y-52511651D01*
X133194110Y-52559270D01*
X133575063Y-52559270D01*
X132051253Y-53035461D02*
X132622682Y-53035461D01*
X132336968Y-53035461D02*
X132336968Y-52035461D01*
X132432206Y-52178318D01*
X132527444Y-52273556D01*
X132622682Y-52321175D01*
M02*
